<?xml version="1.0" encoding="utf-8"?>
<!-- Generator: Adobe Illustrator 23.0.6, SVG Export Plug-In . SVG Version: 6.00 Build 0)  -->
<svg version="1.1" id="flamingo" xmlns="http://www.w3.org/2000/svg" xmlns:xlink="http://www.w3.org/1999/xlink" x="0px" y="0px"
	 viewBox="0 0 421.7 711.8" style="enable-background:new 0 0 421.7 711.8;" xml:space="preserve">
<style type="text/css">
	.st0{fill:none;stroke:#FF7BAC;stroke-width:0.75;stroke-miterlimit:10;}
</style>
<title>flamingo</title>
<path class="st0" d="M392.3,240.8c-3.2-4.3-8.6-7.2-12.6-10.7c-6-5.3-8.3-10.9-11.5-18.2c-8.7-19.9-29.2-31-46.9-41.7
	c-21.2-12.8-40.8-24.4-66.3-22.9c-22.7,1.4-46.5,9.2-66.7,19.5c-41.3,21-76.5,58.2-96.4,99.9c-2.7,5.7-13.9,31.8-25,21.8
	c-2.4-2.1-1-10.8-0.6-13.2c1.6-12.2,8.3-23.8,14.6-34.1c27.2-44,70.3-75.6,98.7-118.6c22-33.3,44.4-105.7-9.9-120
	c-12.4-3.3-25.2-1.4-37,3.1c-16,6-31.2,17.2-42.8,29.7C73.3,53.4,66.8,76.9,52.2,96c-8.4,11-13.6,17.2-12,31.7
	c0.8,7.3,2.6,17.6,7.1,23.6c1.7,2.3,8.5,9.2,11.6,9.2c7.4,0,7.6-13.2,8.5-18c2.5-12.3,8.1-23.2,14.9-33.6c6.9-10.6,13.4-14,23.9-21
	c10.2-6.8,18.2-15.1,26.4-24c6.4-6.9,29.9-26.7,30.9-7.9c1,18.5-10.4,37.2-19.6,52.3c-26.6,43.5-66.4,76.2-95,118.1
	c-20.7,30.4-40.2,81-10.1,112c12.5,12.8,27.2,22.2,45.4,23.7c9.5,0.8,19.2-0.3,28.6-1.5c9.6-1.3,24.1-6.8,33.5-5
	c2.3,0.4,7.6,2.8,9.7,4.4c3.9,2.9,2.4-2,3.4,5.5c1.7,11.7-2.6,26.9-3.5,38.7c-0.9,11.5-1.1,23-3,34.4c-2.1,12.4-7.3,23.1-11.2,34.9
	c-4.2,12.5-3.1,16.6-14.8,24.7c-11.4,8-22.8,16-34.2,24c-11.6,8.2-23.4,16.2-34.8,24.6c-16.5,12-25.6,32.8-37.8,49
	c-5.4,7.2-16.7,18.4-18.1,27.5c-0.6,4-1.3,1.8,0.3,5.1c0.5,1,6.4,6.3,7.5,6.5c2.1,0.4,4.7-1.3,6.4-1.8c0.6-0.2,3.1,1.2,4.5,0.8
	c1.4-0.4,3.8-4.5,4.7-5.5c6.8,7.9,18.8-16.8,22.1-21.5c4.8-6.7,9.8-13.4,14.2-20.3c4.3-6.8,5.4-14.8,10.8-20.6
	c11.4-12.1,29.5-21.4,43-31.2c6-4.3,11.9-8.7,17.9-13c-8.3,37.4-16.3,74.9-25.2,112.2c-5.3,22.1-13.8,36.5-36,44.5
	c-4.7,1.7-41.4,12.2-29.2,17.8c-6.9,3.5-1.7,8.1,2.6,11c6.1,4,8.7,0.8,15.4,1.2c7.2,0.4-0.7,4,8.2,1.3c7.1-2.2,14.7-7.5,21.4-10.7
	c7.7-3.6,16.2-6.7,23.6-11c11.5-6.5,12.4-14.8,12.7-26.6c0.3-17.4,7.5-36.6,11.4-53.6c7.1-31.2,14.1-62.4,21.9-93.5
	c3.8-15.3,9.9-18.5,23.2-26.9c15.4-9.8,30.8-19.6,46.2-29.3c12.9-8.2,27.8-15.5,38.9-26.1c14.3-13.6,8.7-23.3-2.3-37.3
	c-10.9-13.8-22.2-27.3-33.4-40.9c-2.9-3.5-15.4-15.3-14.9-19c0.5-3.5,8.4-9.2,11.1-11.4c6.1-5.1,12.5-7.4,19.8-10.3
	c7.3-3,15.3-8.2,23-9.5c3.3-0.6,7.6,1,10.6-0.1c1.2-0.4,0.4-3.4,2.2-4.7c9.2-7.2,27.3-9.6,38.4-12.9c4.2-1.2,9.8-0.8,13.3-1.7
	c1-0.2,1.2-2.2,1.2-2.2c4.1-0.9,8.4-1.1,12.6-1.5c1.7-0.2,6.7-1.3,8.7-0.9c4.1-1.9,5.8-0.6,5.2,3.9c0.3,1.4,0.6,2.8,0.9,4.3
	c1.5,3.8,13.1,19.1,15,7.6c5.3,2.7,3.4,5.7,4.3,10.5c0.9,5.1,0.5,5,5.1,8.7c9.9,8.2,8.7-2.9,10.2-11.7c2,8.7,1.4,10.6,8.2,16
	c4.1,3.3,4.7,5.2,7.7,1.7c2.2-2.6,2.4-9.9,3.2-13.2c0.7-2.7,1.9-2.4,2.2-5.5c0.5-4.9-1.9-11.3-3.3-15.9
	C412.7,269,402.7,254.7,392.3,240.8z M328,273.1c-0.4,0.9-1.1,0.8-0.9,2.1c-9.3-2-19.8,3.5-28.4,6.2c-6.6,2.1-15.6,3.7-21.4,7.5
	c-0.8,0.5-4.8,4.2-5,4.3c0.4,1.2,0.3,1.8-0.4,1.8c-1.3,0-2.6-0.3-3.8-0.8c-3.4,1.2-7.4,1.1-11.1,2.4c-8.2,3-16.2,6.8-24.2,10
	c-7.9,3.2-26.3,13.8-23.6,22.6c2,6.5,12.5,15.2,16.9,20.6c6.7,8.1,13.4,16.3,20,24.5c8.9,11,28.5,27.5,18.4,42.4
	c-9.9,14.6-30.4,23.5-44.9,32.7c8.4-5.8,16.9-11.4,25.1-17.5c6.4-4.7,12.3-7.7,9.4-15.9c-4.3-12.2-17.5-26-25.2-36.3
	c-8.4-11.4-17.9-22.6-28.1-32.4c-2.8-2.6-7.6-8-10.7-7.6c-2.7,0.3-8.3,6.6-10,8.6c-7.4,8.9-6.5,23.5-8.2,34.9
	c-2.3,16.1-4.6,32.1-6.8,48.2c0.8-11.3,1.5-22.6,2.5-33.9c0.8-9.2,5.2-23.6,2.9-32.3c-1-4-4.3-6.1-7.8-8.6
	c-5.4-3.9-15.9-6.8-22.5-8.6c-5.2-1.4-9.5-0.3-15.7,0.6c-15.5,2.3-31.3,5.7-47.1,5c-10.9-0.5-24.4-3.1-31.8-11.6
	c-19.6-22.6-10.7-59.3,0.2-83c18.6-40.4,54.4-70.5,82-104.6c12.7-15.6,24.4-32.1,33.9-49.9c6.7-12.4,14.8-28.5,12.4-43.2
	c-1.1-6.7-4.4-10-9.5-14.2c-10.6-8.9-20.5-9.6-32.6-0.6c-8.2,6.1-13.8,15-21.3,21.8c-8.8,8-19.6,12.4-28.7,19.6
	c-8.3,6.6-14.9,20-19.2,29.6c-4.3,9.7-3.6,23.3-9.5,31.7c-3.4-11-5.6-24.1,0.8-34.3c7.2-11.5,15.8-20.9,21.9-33.4
	c11.6-23.7,26.4-44.1,49.4-57.9c15.1-9.1,33.4-16,51.3-12.4c9.4,1.8,13.5,5.9,16,15.4c9.3,35.8-13.8,77.5-35.4,104.1
	c-18.2,22.4-38.9,42.9-58,64.6c-16.8,19.2-35.9,41.6-42.3,66.8c-3.8,15,1.2,29.7,16.9,35.4c14.1,5.1,21.4-7.6,26.4-18.5
	c10.2-22,23.7-42,40.5-59.5c33.8-35.3,86-67.7,137-63c14.5,1.3,26.4,7.4,38.9,14.5c11.1,6.3,26.6,12.9,35.2,22.2
	c6.9,7.5,7.9,18.7,14.6,26.5c5.4,6.3,12.8,10.6,18.2,16.8c12.8,14.6,31.3,47.5,22,67.1c-4.4-4.4-13.3-31.6-17.4-12.9
	c-4.7-2.9-12.9-19-17.8-11.6c-3-2.6-7.1-7.8-11-9.1C351.7,267.1,337.1,271.7,328,273.1z M47,344.9c-0.6-0.7-1.2-1.4-1.8-2.1
	c1.4,1.1,2.7,2.2,4,3.4C48.5,345.8,47.8,345.3,47,344.9z M377.4,229.2c-0.5-0.5-1-1.1-1.5-1.7c1.2,1,2.4,2,3.6,3.1
	C378.8,230.2,378.1,229.7,377.4,229.2z M351.2,191.2C349.7,189.9,350.8,190.9,351.2,191.2z M152.3,497c-4.4,17.9-8.8,35.8-13,53.8
	c2-9.3,10.3-28.9,7.7-37.5c-1-3.2-5-5.6-7.8-8.1c8.8-5.9,9.2-9.7,11.8-19.6c3.3-13.1,9.9-24.7,12.2-38.2c-0.5,6.7-3.8,20.1-1,26.4
	c1,2.3,6,5.1,8,6.9C163.8,484.7,154.3,488.9,152.3,497z M114.4,669.7c-5.6,11.8-24.9,16.3-35.8,21.4c-6.1,2.8-18.6,14.3-23.7,6
	c13-6.3,28.1-8.3,40.4-15.8c11.7-7.2,18.3-18.5,21.5-31.5C115.5,657.5,118.3,661.4,114.4,669.7z M53.2,575.7
	c-9.6,14-19.6,27.8-29.4,41.7c-4.3-2.3,11.8-20.2,14.5-23.8c6.9-9.5,12.1-20.7,19.7-29.6C57,568.1,55.4,572,53.2,575.7z
	 M186.2,363.8c0.4-4.2,7.7-12.6,11.8-13.7c4.3-1.1,9.9,7.8,13.2,11.9c10.9,13.4,24.6,29.4,32.1,45c5.6,11.9-13.5,19.7-21.7,25.4
	c-16.2,11.3-32.4,22.5-48.6,33.8C174.4,431.9,181.5,397.7,186.2,363.8z"/>
</svg>
