<svg id="Layer_1" data-name="Layer 1" xmlns="http://www.w3.org/2000/svg" viewBox="0 0 336.63 320.7">
  <defs>
    <style>
      .cls-1{fill:none;stroke:#231f20;stroke-miterlimit:10;stroke-width:7px}.cls-2{fill:#33170f}.cls-4{fill:#342930}.cls-5{fill:#ba8053}.cls-6{fill:#d29760}.cls-8{fill:#be784b}.cls-10{fill:#934726}.cls-11{fill:#6e2f1b}.cls-14{fill:#b56a48}.cls-16{fill:#d29e73}.cls-18{fill:#ab6845}.cls-20{fill:#613d2a}.cls-22{fill:#442617}.cls-28{fill:#96492b}.cls-35{fill:#4f261f}.cls-37{fill:#8b6969}.cls-43{fill:#71696d}.cls-44{fill:#65575b}.cls-45{fill:#816765}.cls-46{fill:#975d36}.cls-47{fill:#533125}.cls-51{fill:#693628}.cls-52{fill:#2c1d18}.cls-53{fill:#584b52}.cls-57{fill:#433a40}.cls-58{fill:#4b454e}.cls-65{fill:#cc9870}.cls-66{fill:#bf8861}.cls-67{fill:#c37f44}.cls-68{fill:#d39d7c}.cls-71{fill:#aa7e6c}.cls-84{fill:#b37c6e}.cls-89{fill:#c88960}.cls-93{fill:#b7785c}.cls-95{fill:#824424}.cls-96{fill:#947a78}.cls-99{fill:#6c5961}.cls-100{fill:#83696b}.cls-107{fill:#aa734f}.cls-109{fill:#d2955d}.cls-110{fill:#dcb99c}.cls-111{fill:#e6d0c1}.cls-117{fill:#67382e}.cls-121{fill:#aa5728}.cls-129{fill:#b4653d}.cls-132{fill:#d8ae8e}.cls-133{fill:#d9a77c}.cls-136{fill:#deb99d}.cls-142{fill:#c3815a}.cls-149{font-size:30px;fill:#231f20;font-family:Notram}
    </style>
  </defs>
  <path class="cls-1" d="M214.37 508a132.51 132.51 0 0199.95-219.51" transform="translate(-144.06 -254.95)"/>
  <path class="cls-2" d="M260.11 492c-.88-.85-1.77-1.69-2.68-2.52-1.71-1.54-2.89-3.53-4.43-5.21a14.26 14.26 0 00-3.86-2.3 12.41 12.41 0 00-2.14-.61 16.37 16.37 0 01-5.21-1.62 42.68 42.68 0 01-8.22-6.66c.29-7.46-4.63-7.72-10.06-7.25-2.44.48-4.86 1-6.45 3.19 2.73 3.18 4.47 6.3-.39 9.19-.35.22-.09 1 .27 1.52 1.29 1.7 2.58 3.39 3.86 5.09 7 7.8 14.51 15.17 19.53 24.54a20.06 20.06 0 002.25 2.79 40.47 40.47 0 013.85 4.43c3.52 5 6.33 10.35 9.6 15.48.6 1 1.16 2 1.71 3 .33.69.65 1.38 1 2 .67 1.39 1.22 2.84 1.77 4.27 0 .79.07 1.54.14 2.27a116 116 0 0033.16 8.91c-9.11-12.49-13-27.69-20.57-41-3.91-6.88-7.32-13.93-13.13-19.51z" transform="translate(-144.06 -254.95)"/>
  <path d="M369.62 309.21c9.93 2.81 17.72 9 25 15.9 1.94 3.79 4.19 7.43 3.89 12-.16 2.36.54 5.18 2.59 6.19 8 4 8.83 12.19 12 19.05.65 4.32-1.52 7.15-4.95 9.29a3.67 3.67 0 01-2.14-1.06c.06.91 1.23.45 1.49 1.21 2.77 3.18 6.69 5.61 6.46 10.57-1.7 1.43-4.2 2.2-5.68 1.14-6.55-4.72-10.63 0-15.12 3.43-4.37 4.07-8.91-1.6-13.94.31-2.46.93-2.46-4.74-2.31-7.58-2.33 2.76-.22 10.57-8.26 7.19a8.46 8.46 0 01-1.15-4c4.52-17.48 3.16-35.59 5.76-53.27.6-4.06-1-7.44-3.12-10.73-1.98-3.04-3.49-6.25-.52-9.64z" transform="translate(-144.06 -254.95)" fill="#813d25"/>
  <path class="cls-4" d="M153.26 453.24c-5.54-3-4.84-8.62-5.79-13.63-1.94-10.23-4.15-20.42-2.87-30.94 4-.28 3.65 2.68 4.3 7 1.71-7.95 3.77-14.08-2.7-19.2-1.22-1-1.21-2.55-.15-3.9-.58-7.45-1.38-14.9-1.64-22.37-.11-3.27-1.3-6.93 1.49-9.85 5.14 3.43 3.06 8.76 3.59 13.43.19 1.68.62 3.87 2.58 4 1.39.12 1.54-2.23 2.67-3.14 5.79.74 3.85 5.34 4.65 8.05.64-2.85-1.09-5.93-1.85-9.18-.59-2.55-1.49-5.86 1.3-7.2 3.09-1.49 4.39 1.81 5.9 3.88a37 37 0 012.37 5.45c.26.73.09 1.72 1.11 2.07.06-.51.14-1.06.24-1.69 2.09-1 3.26-2.92 4.53-4.73 4 1.34 6.42 7.11 11.89 4a13.27 13.27 0 012.35-.4c2 .08 4.52.08 4.9 2.5.3 1.89-2 2.58-3.42 3.48-3.34 2.08-7.77 3.12-8 8.24-1.8 3.9 1.77 6.15 2.83 9.17-1 4-4.77 2.19-7.13 3.34-2 .95-5-2-6 1.3-.84 2.78 1.21 4.85 3.25 6.58.88.75 1.86 1.38 2.79 2.05a10.31 10.31 0 011.77 1.66 6.94 6.94 0 01.85 2.2c-.38 3.22 5 5.59 1.43 9.29-.76 6 7.58 9 5.12 15.49-7.83.55-1.07 4.78-1.79 7.13-1.51 2.65-2.76 5.49-5.09 7.6a5 5 0 01-2.12.62 17.51 17.51 0 00-4.21-.18c-2.22.94-1.53 3.94-3.53 5l-5.28-5.49a4.69 4.69 0 01-.81-4.85 3.35 3.35 0 011.87-1.56c3.93-.39 6.29-1.56 3.6-6.06a42.59 42.59 0 00-5.13-7.08 21.64 21.64 0 01-2-3 19.57 19.57 0 01-1.07-2.09 11.34 11.34 0 01-.96-3.23c0-.55.16-1.58 0-1.65-1.67-.72-.86.82-.91 1.25-.12 1.16-.09 2.34-.29 3.5-.71 3.27-1.61 6.5-2.19 9.79-.08 1.34-.11 2.67-.13 4-.15 3.26.33 6.69-2.32 9.35z" transform="translate(-144.06 -254.95)"/>
  <path class="cls-5" d="M322.29 553.33a9.3 9.3 0 00-1-6.46c-4.47-7.31-7.39-16.45-.62-22.23 4.09-3.49 1.94-5.58-2.88-6.18-3.16-.39-6.71-2.21-9.46-.32-4.29 3-6.77 1-8.37-2.46-1.93-4.16-4.27-3-7-1.42-7.05 8.49.45 16.44 1.61 25.22-4.82-1.08-6-4.09-7.22-7.5-4.24-12.34-8.77-24.56-18.69-33.78a29.57 29.57 0 00-2.2-2.66c-.73-.79-1.48-1.55-2.27-2.28s-1.48-1.45-2.28-2.11a7.21 7.21 0 00-2.65-1.54 2.66 2.66 0 00-1.92.49c-.1 0-.16.23-.17.67a1.47 1.47 0 00.52 1.16c5.38 6.5 11.14 12.63 13.7 21.12a46.94 46.94 0 007 14.09 35.5 35.5 0 015.75 12.57 27.11 27.11 0 006.56 12.46c3.19.46 6.41.82 9.64 1.06l-.16-.23c-2.55-3.92-1-4.91 3.16-5.15 4.94-.28 6.89 2.52 8.45 5.8 3.49.01 6.99-.1 10.5-.32z" transform="translate(-144.06 -254.95)"/>
  <path class="cls-6" d="M388.3 470c-1.45-1.94-3.15-1.41-4.88-.49a13.26 13.26 0 00-4.35 4.91c-2.2 10.74-11.26 17.22-16.45 26.15-2.83 4.88-2.58 11.28-7.12 14.87-5.55 4.4-8.26 9.87-10.95 16.44-2.45 6-1.41 12.1-1.51 17.36a2.94 2.94 0 003.49-.54c8.74-4 11.86-13.64 19.2-19 .85-6.21 4.7-11.05 7.44-16.41 2.49-4.6 5.21-9.09 7.82-13.62 5.23-9.19 10.52-18.47 7.31-29.67z" transform="translate(-144.06 -254.95)"/>
  <path d="M430.34 359.13a6.35 6.35 0 00.5-1.35l-.5-.84.5.84c1.12-4.59-3.75-8.7-7-13.13a183 183 0 00-29.21-19.54c-3 1.05-3.08 1.39-2.32 1.67 5 1.79 4.2 6.06 3.77 9.65-.65 5.25 1.95 8.79 5.82 10.91s7 3.71 5.77 9.23c-.38 1.74 1.42 5.08 4.48 5.89 1.6 3.13-.34 8.2 4.46 9.49s7.27-2.59 9.79-5.79c1.67-2.13 4-3.28 6.24-4.69l.25-.16c-.67-1.18-1.37-2.36-2.07-3.53a6.35 6.35 0 01-.48 1.35z" transform="translate(-144.06 -254.95)" fill="#662818"/>
  <path class="cls-8" d="M293.23 290.05c12.94 2.45 26.28 1.9 39.12 5.12 8.52 8.22 8.15 12.15-2.26 17.13-3 1.44-2.36 4.56-4.4 6.16-2.66 1.67-4.94 1.09-6.92-1.21-8.24-9.58-18.49-12.26-30.52-8.89a6.8 6.8 0 01-6.08-4.12 4.09 4.09 0 011-3.59 5.35 5.35 0 012.19-1.26c3.2-.19 6.07-2.19 10.15-1.58-4.4-2.93-11.42 2.72-13.06-5.08 2.6-4.84 7.37-1.01 10.78-2.68z" transform="translate(-144.06 -254.95)"/>
  <path d="M383.86 470.71a5.81 5.81 0 01-3.57 3.53c-1.25 1.9-2.79 3.27-5.3 2.84-6.83-1.42-7.93-5.34-5.91-11.64 1.41-4.37 4.11-8.37 4.15-13.16-1.1-5 2.87-8.28 4.26-12.45.11-3.17 0-6.37 1.19-9.38 1.15-2.82 2.88-3.43 5.28-1.33 2.52 3.78 3.37 7.93 3.42 12.48 0 2.65.23 6.91 4.86 2.86 2.4-2.09 5.71-.88 8.43-2a8.7 8.7 0 013.47-.86c2.58 1.47 6.37 1.68 6.29 6-7.23 3.11-11.32 10.1-17.7 14.25-6.44-.53-9.44 2.37-8.87 8.86z" transform="translate(-144.06 -254.95)" fill="#966f64"/>
  <path class="cls-10" d="M433.86 363c-3.17 4.69-7.17 8.87-9.3 14.16s-5.36 7-10.62 4.78c-4.81.81-8.91-.16-11.58-5.85-2.42 4.94-7.87 5-9.7 9.41-3.4 7.81-1.59 11.55 5.86 12.12 7 0 14 1 20.9-.24 6.51-1.66 12.37-3.88 12.9-12.1.12-2 2.39-3.46 2.88-5.36a17 17 0 013.89-6.53q-2.4-5.27-5.23-10.39z" transform="translate(-144.06 -254.95)"/>
  <path class="cls-11" d="M369.62 309.21c0 3.48-.35 6.61 3.45 9.23 2.92 2 4.17 6.23 3.46 10.16a192.74 192.74 0 00-3.35 37.4c.08 4.47-.08 8.8-2.78 12.63-1.11 1.57-.7 3.4-.8 5.14-3.49 2.83-2.86 6-.83 9.36a4.09 4.09 0 01-.8 3.58 5.2 5.2 0 01-5.05.42 7.46 7.46 0 01-3.19-4.18 9.32 9.32 0 01-.23-4c.18-1.35.43-2.68.65-4 1.56-8.86 4.65-17.52 2.93-26.79a6.21 6.21 0 013.23-6.69c5.44 2.87.28 8 2.45 10.7.7-7.93-1.71-16.5-2.06-25.26-.25-6.28-3.9-11.47-7.78-16.47-5.66-7.29-3.88-11.08 5.49-13 1.93-.02 3.98-.25 5.21 1.77z" transform="translate(-144.06 -254.95)"/>
  <path d="M168.94 460.39c.05-1.12.49-2.4.08-3.31-1.86-4.22.43-4.54 3.66-4.16.94 1.1 2.62.67 3.58 1.73h1.75c9.68 3.48 19.81 5 29.87 6.76a14 14 0 015.61 4.07 8.17 8.17 0 002.85 2.69l.73.61c1.51 3.8 7.19-.2 8.16 4.65-1.39 3.62-6.67 2.59-8.29 6.27l-1.71-.78a4.49 4.49 0 01-1.71-1.24c-1.07-1.06-2.6-.92-3.85-1.49l.13.09c-6.29-3.11-13-2.12-19.61-2-10.85 1.12-16.88-5.12-21.25-13.89z" transform="translate(-144.06 -254.95)" fill="#1e130f"/>
  <path d="M187.18 376.38l-2.12.28a1.4 1.4 0 01-2.13 0c-.66-2.21.29-4.14 1.06-6.1 1.93-10.27-7.21-16.6-18.44-12.76-5.21-1.06-6.46-5.75-8.71-9.53 8.36-3.85 17.27-5.08 26.35-5.49a2.38 2.38 0 012.37-.28c5.46 2.48 10.87 5 13.34 11.09.85 3.54 4.31 6.44 2.7 10.6-2.17 1.64-5.41 1.87-6.16 5.37-.91 4.36-5.03 5.12-8.26 6.82z" transform="translate(-144.06 -254.95)" fill="#3b3b5f"/>
  <path class="cls-14" d="M445.81 393.23c-1.25-2.2-1.41-3.87-1-5.23a141.59 141.59 0 00-6.65-16.58 6.59 6.59 0 01-2.79 1.43c1.3 6.11-5.67 8.4-6.3 13.94-.6 5.22-2 6-6.29 7.39-1.37.43-3 .23-3.57 1.95.09.42.18.83.28 1.24 4.29 6.24 10.36 4 16.09 3.36 2.49-.73 4.87-2.74 7.57-.62a5.34 5.34 0 002.4-2.06 21.93 21.93 0 01.26-4.82z" transform="translate(-144.06 -254.95)"/>
  <path class="cls-14" d="M445.9 393.41l-.09-.18a21.93 21.93 0 00-.24 4.82 4.66 4.66 0 00.33-4.64z" transform="translate(-144.06 -254.95)"/>
  <path d="M220.73 302.38c4.26-3.58 8.73-6.84 14.08-8.65a4.68 4.68 0 011.28 2c1.15 4.57 4.19 5.25 8.17 3.93 4.13-1.37 7.56-.52 10.18 3.06 1.14 2 1.53 4.33 2.23 6.53a5.08 5.08 0 01-.14 2.29 13.59 13.59 0 01-1.12 2.05c-.2.33-.43.65-.63 1-.4.7-.85 1.37-1.3 2-3.48 4.07-6.33 8.91-12.25 10-5.42-.92-7.68-4.86-9.16-9.56a13.08 13.08 0 00-8.4-11.12c-1.49-.66-3.42-1.15-2.94-3.53z" transform="translate(-144.06 -254.95)" fill="#cb8559"/>
  <path class="cls-16" d="M346.53 548.65h-3.57c-3.17-1.22-4.48 1.55-6.41 3l-.29.31q4.13-.56 8.21-1.29c.69-.67 1.38-1.33 2.06-2.02zM315.47 553.61a1.74 1.74 0 00-.75-2c-4.32-3.46-8.76-6.65-14.66-6.44-1.66.05-3.79-.63-4.61 1.52a5.14 5.14 0 00.38 5.09c.32.41.67.79 1 1.17a153.78 153.78 0 0018.64.66z" transform="translate(-144.06 -254.95)"/>
  <path d="M446 402.48c-1.65 5.76-3.67 11.33-8.93 15.29a13.54 13.54 0 00-1.69 1.78c-.25.33-.51.65-.76 1-3.33 4.14-6.71 8.24-10.35 12.12-1.16 1.24-2.64 2.87-.9 4.54 1.45 1.39 3.28.75 4.88-.2 3-1.28 5.38-3.42 7.78-5.62a117 117 0 0011.15-12.09c.96-5.44-.38-11.3-1.18-16.82z" transform="translate(-144.06 -254.95)" fill="#8e523c"/>
  <path class="cls-18" d="M256.08 311c-.57-2.39-4.8-3.85-1.84-7.14.28-8.05 9.59-6.15 12.64-11.38-3.5-1.49-6.94.38-10.31-.25a3.93 3.93 0 01-2.84-3.67c.71-2 2.89-1.14 4.11-2.14 10.88-1 21.49.56 32 3.23-2.08 1.75-5.19.32-7.23 2.38-.81.83-1.36 1.46-.47.68 0 0 .38.4.58.61 1.13 2.62 3.64 2.07 5.33 1.61 5.85-1.59 9.58.51 11.9 5.84-.76 1.23-1.9 1.44-2.82.48-2.39-2.47-4.59-3.36-7.22-.25-2 2.33-3.64-.25-5.45-.65-.57 1.16-1.15 2.32-1.74 3.47-2.88 2.6-5.52 1.27-8.14-.46-4.61-3.74-7.09.85-10.17 2.72-2.77 1.7-3.98 5.92-8.33 4.92z" transform="translate(-144.06 -254.95)"/>
  <path d="M431.81 359.42a15.89 15.89 0 00-9.59 8.91c-1.82 4.07-6 3-7.93-1.54-.64-1.48.15-3.64-2.12-4.33 0 4-3.4 6-5.32 8.86.43 4.83 4.4 7.3 7.09 10.63 4.23 6.95 6.61 6.91 10.71-.21 1.15-2 2.2-4.07 3.15-6.17.67-1.47.27-3.24 2.26-4.31a12.62 12.62 0 005.37-5.34c-1.16-2.19-2.36-4.36-3.62-6.5z" transform="translate(-144.06 -254.95)" fill="#85361b"/>
  <path class="cls-20" d="M254.07 538c-4-6-4.77-14.2-11.89-18.12-1.76 1-1.17 3.28-2.44 4.5-3.07 0-3-5.5-6.93-3.92a51.06 51.06 0 001.67 6.09 95.9 95.9 0 0030.07 18.79 14.21 14.21 0 00-3-5.66c-3.5 3.73-4.89 2.18-7.48-1.68z" transform="translate(-144.06 -254.95)"/>
  <path d="M220.73 302.38c5.29 1.33 9.23 4.39 12.69 8.65 2 2.49-.24 3.61-.37 5.35.06 7-6.58 8.79-10.15 13-3.11 2.31-6.53 4-10.25 2-3.15-1.74-2.51-4.7-1.24-7.49 4.63-4.42-1.94-10.39 2-14.91 2.07-2.67 4.13-5.26 7.32-6.6z" transform="translate(-144.06 -254.95)" fill="#d9a280"/>
  <path class="cls-22" d="M237 526.52c1 1.4 2.09 3.1 4.14 2s3-2.59 1.53-5c-.56-.9-.52-2.18-.76-3.29a2.83 2.83 0 001-2.81 8.23 8.23 0 00-1.36-2.71 15.18 15.18 0 01-.86-1.71c-.26-1.39.8-2.32 1.21-3.49-4.66-10.28-10.67-19.41-21.12-24.75a19.62 19.62 0 001.92 12.41c2.13 8.28 9.21 14.41 10.13 23.22 2.96 1.01 2.73 4.14 4.17 6.13zM232.85 520.46z" transform="translate(-144.06 -254.95)"/>
  <path d="M437.4 412c-4.48-.58-5.37 3.65-7.76 5.83-4.16 3.79-7.24 9.29-14.1 8.64-3.06-.09-5.45 1.78-8.13 2.8-9 3.38-9.8 5.53-5.88 14.73a2.11 2.11 0 001.82-1.82c8.3 3 15.23-3 23-3.5a2.21 2.21 0 001.92-1.7c-1.55-.42-3.43.67-5.1-1.47 6.47-3.12 9.27-9.63 13.8-14.6q-.23 0-.42-.6c-.13-.39 0-.76.51-1.12a5.63 5.63 0 001.51-4.91 6.09 6.09 0 00-1.17-2.28z" transform="translate(-144.06 -254.95)" fill="#a46c55"/>
  <path d="M364.41 307.36c-.59 1.67-2.19 1.49-3.46 2.08-4.47 2.07-5.23 4.61-1.7 7.89 8.63 8 10.88 18 10.4 29.13-.28 6.67 0 13.36 0 21.42-3.75-5.89.68-11.82-3.35-16.16-1.65-1.09-2-2.83-2.28-4.6-.23-2.51-.23-5.05-1.07-7.47-.92-4.86-2.34-9.51-5.49-13.47-2.18-2.75-4.71-5.26-6.05-8.61-1.09-2.9-2.84-5.64-3-8.78-.11-2.85-1-6.44 3.65-6.85 4 .26 6.83 3.25 10.51 4.21.64.38 1.26.79 1.86 1.21z" transform="translate(-144.06 -254.95)" fill="#3b1710"/>
  <path d="M213.52 323.44c-.63 2.06-3.07 4.16-.91 6.24 1.85 1.78 4.31.8 6.41-.28 1.25-.64 2.79-.84 3.45-2.35 4.33-2.07 7.49 1.75 11.32 2.24 2.19 1.28 1.85 3.42 1.86 5.46a4.25 4.25 0 01-1.13 2.13c-3 2.84-7.93 1.75-10.7 5.15a8.22 8.22 0 01-2.37.9c-3.17.49-6-.45-8.83-1.79-2.65-1.56-6.25-1-8.4-3.67 1-5.66 2.24-11.32 1.39-17.11a9.92 9.92 0 012.51-8c.11-1.12.93-1.33 1.83-1.42a19.35 19.35 0 013.57 12.5z" transform="translate(-144.06 -254.95)" fill="#9c583e"/>
  <path d="M156.84 348.31c2.85 1.2 5.4 2.52 5.76 6.2.12 1.29 1.56 2.23 3 2.6 5.79-.06 11.87-.8 14.65 6.23a2.52 2.52 0 01-1.58 1.8c-3.54 0-7.16-.11-7.58 4.81-1.78 4.08-5 .57-7.38 1.39-2.32-.72-1.59-4.51-5.07-4.55-.08 6.51 3.17 13 .47 21-1-5.33 0-10.12-4.18-12.89-1.3-2.3-.28-4.72-.4-7.09 1.45-6-3.63-10.67-3.33-16.43 1.52-1.73 3.59-2.38 5.64-3.07z" transform="translate(-144.06 -254.95)" fill="#383443"/>
  <path d="M373.17 513.19c-.78-5.1 3.47-8.29 4.9-12.59 1.23-3.73 3.82-7 5.54-10.59a38.82 38.82 0 003.8-21.11v-1.09a7.86 7.86 0 01.71-2.06c1.07-1.52 2.13-3.07 4.4-2.42-1 15.29-.89 30.88-13.67 42.46-2.27 2.03-2.12 6.21-5.68 7.4z" transform="translate(-144.06 -254.95)" fill="#dcc9bc"/>
  <path class="cls-28" d="M446.06 392c-.86-2.95-1.82-5.88-2.89-8.77-.23-.06-.44-.11-.69-.19-.64-.22-3.06 2.28-3.22 3.67-.32 2.92 2 1.87 3.58 1.5.72-.16 1.22.07 1.13.85-.4 3.56 1.84 7.53-1.58 10.64a3.51 3.51 0 00-.3 4.91c2.28.08 3.39-.65 4-1.74-.57-3.8-.88-7.49-.03-10.87z" transform="translate(-144.06 -254.95)"/>
  <path class="cls-28" d="M446.06 392c-.85 3.35-.54 7 0 10.87.91-1.67.61-4.19 1.33-6-.39-1.6-.85-3.22-1.33-4.87z" transform="translate(-144.06 -254.95)"/>
  <path d="M325.23 318.1c.13-2-.07-4.1.48-6 .48-1.61 1.81-2.57 4-2.54 5.91.09 8.2-3.27 5.88-8.31-1-2.08-2.13-4.06-3.2-6.09 2.19-.47 3.63 1.2 5.42 1.88 3.26 5.2 8.11 9.44 9.41 15.81a10.72 10.72 0 01-5.65 6.6c-5.57 1.33-10.79-2.21-16.34-1.35z" transform="translate(-144.06 -254.95)" fill="#cc8e63"/>
  <path d="M156.67 367.84a10.37 10.37 0 01-1.72 7c-.35 2.76.87 5.75-1.41 8.94-2-2.25-3.79-4.33-5.69-6.3-1.33-1.38-2.39-3.24-1.42-4.71 2.9-4.43.32-8.37-.53-12.48l.64-3.12c4-2.2 5.64.81 7.32 3.47 1.39 2.23 1.06 5.13 2.81 7.2z" transform="translate(-144.06 -254.95)" fill="#161319"/>
  <path d="M191.79 332c1.42-4.27 1.61-9.08 5.5-12.24a4.7 4.7 0 013.37-.71c.93-.11 1.45 2 2.67.47a3.26 3.26 0 012.12 1.17c2.57 8.54-2.15 13.72-8.36 18.23-2.43.69-4.74.74-6.65-1.27l.36-3.41a11.48 11.48 0 00.99-2.24z" transform="translate(-144.06 -254.95)" fill="#20161d"/>
  <path d="M146.05 392.54c.33 1.07-.05 3 1.15 3.07 6.86.63 5.27 5.92 5.69 10 .54 5.22-2.33 9.59-3.93 14.62-3.57-1.45-3.42-4.46-2.4-6.94 1.09-2.67.12-3.69-2-4.63.03-5.41-1.37-10.96 1.49-16.12z" transform="translate(-144.06 -254.95)" fill="#575158"/>
  <path d="M346.71 312.61c-3.15-5.1-9.2-8.52-8.94-15.56a34 34 0 0114.23 4.89c-3.47 2.68-2.05 5.95-1 9.11.76 2.36 2.8 4.26 2.62 7-4.29.7-5.97-1.91-6.91-5.44z" transform="translate(-144.06 -254.95)" fill="#965833"/>
  <path d="M403.35 442.2c.91-1.72 1.59-4.28 4.19-1.88 3.14 2.91 5.21 2.46 7.29-1.31 1.44-2.62 3.59-4.59 6.56-1.1 1.19 1.41 3.27.66 5 .79a38.65 38.65 0 01-15.92 8.9c-2.23-2.02-5.47-2.7-7.12-5.4z" transform="translate(-144.06 -254.95)" fill="#b4836f"/>
  <path class="cls-35" d="M197.46 337.34c2-2.77 4.13-5.43 5.87-8.34s2.63-6.24-.49-9.12c-1.38-2.42.66-3.91 1.56-5.71.75-1.62 2.37-1.42 3.72-1.78-1.32 6 .29 12.05.26 18.09 0 3.5-1.8 5.13-3.94 7-2.36 2.19-4.69 2.24-6.98-.14z" transform="translate(-144.06 -254.95)"/>
  <path d="M153.26 453.24c-.17-3.63-.68-7.26.07-10.89 2.21-2 4-.61 5.93.6 2 1.83 3.89 3.69 3.67 6.71-.2 1.68.48 3.52-.88 5-2.89-.66-6.23 1.34-8.79-1.42z" transform="translate(-144.06 -254.95)" fill="#b7b6bc"/>
  <path class="cls-37" d="M197.46 337.34l7 .12c2.93 1 6.62-1.5 9 2-2.27 2.44-5.38 2.28-8.3 2.68-6.62.75-13.06 5.26-19.93 1l-2-.29q3.63-2.6 7.25-5.2z" transform="translate(-144.06 -254.95)"/>
  <path d="M392.49 463.33A7.54 7.54 0 00389 467c-.51.65-1 1.28-1.57 1.91l-3.55 1.81c-.87-.16-2.31-.08-2.5-.52-2.06-4.88 2.85-7 4.45-10.44 1.49-3.17 3.45 0 5.16.33.67.12 1.18 1.15 1.76 1.77a12.33 12.33 0 01-.26 1.47z" transform="translate(-144.06 -254.95)" fill="#7d4f41"/>
  <path class="cls-20" d="M222.72 497.23c4.2 1.84 2.41 7.64 5.53 9.4 6.12 3.47 4.74 8.69 4.6 13.83-4.27-7.36-9.68-14.21-10.13-23.23z" transform="translate(-144.06 -254.95)"/>
  <path d="M254.33 288.06l1.72 3.5c-6.56 4.39-13.41 7-21.27 3.5v-1.33a29.77 29.77 0 0112.32-4.06c1-1 2.55-.61 3.62-1.43a4.69 4.69 0 011.74-.3 1.05 1.05 0 011.87.12z" transform="translate(-144.06 -254.95)" fill="#aa7050"/>
  <path class="cls-4" d="M156.67 367.84a5.79 5.79 0 01-3.55-4.63c-.72-3.42-2.85-5.69-6.58-6a9.31 9.31 0 014.68-5.85c4.11 4.73 6.16 10.15 5.45 16.48z" transform="translate(-144.06 -254.95)"/>
  <path class="cls-2" d="M190.17 474.31c2.13-2.07 3.64-3.94 7.63-2.27 3.82 1.61 8.86.16 12 4.26-6.49-1.3-13.3.7-19.63-1.99z" transform="translate(-144.06 -254.95)"/>
  <path d="M213.52 323.44c-3.28-3.56-3.66-7.94-3.57-12.47.51-1.79 2.1-1.74 3.49-2-.56 3.64 1.25 6.84 2.39 10 1.05 2.92-.35 3.59-2.31 4.47z" transform="translate(-144.06 -254.95)" fill="#bb8263"/>
  <path d="M282.71 293.35c-1.61-.2-2.55 2.69-4.88.68 3.19-3.91 7.46-4.48 12-4.35l3.4.37c-2.93 2.95-7.65.18-10.52 3.3z" transform="translate(-144.06 -254.95)" fill="#844932"/>
  <path d="M204.4 314.17c.71 2.24-.86 3.86-1.56 5.71a1.12 1.12 0 01-1.75 0l-3.81-.14a11.27 11.27 0 017.12-5.57z" transform="translate(-144.06 -254.95)" fill="#714b4a"/>
  <path class="cls-18" d="M254.33 288.06l-1.84-.12c1.3-2.26 3.35-1.79 5.35-1.49-.67 1.62-2.19 1.4-3.51 1.61z" transform="translate(-144.06 -254.95)"/>
  <path class="cls-43" d="M162.05 454.65v-5.31a1.26 1.26 0 011.85 0l-.24 5.55a4.64 4.64 0 01-1.61-.24z" transform="translate(-144.06 -254.95)"/>
  <path class="cls-2" d="M209.65 476.21c1.59-.29 3.17-.56 3.85 1.49-1.44-.08-3.04.22-3.85-1.49z" transform="translate(-144.06 -254.95)"/>
  <path class="cls-18" d="M250.75 288.24c-.75 1.63-2.17 1.57-3.62 1.43a3 3 0 013.62-1.43z" transform="translate(-144.06 -254.95)"/>
  <path class="cls-2" d="M213.52 477.71a1.63 1.63 0 011.71 1.24c-1.03.22-1.39-.48-1.71-1.24z" transform="translate(-144.06 -254.95)"/>
  <path class="cls-11" d="M364.41 307.36a1.49 1.49 0 01-1.86-1.21c1.11-.35 1.61.24 1.86 1.21z" transform="translate(-144.06 -254.95)"/>
  <path class="cls-37" d="M191.79 332a1.6 1.6 0 01-1 2.24 1.61 1.61 0 011-2.24z" transform="translate(-144.06 -254.95)"/>
  <path class="cls-44" d="M231.5 474c-1.56-.55-4.3-.56-1.7-3.19.59-.6 2.52.26 2.28-1.44a2.2 2.2 0 00-2.47-1.89 6.12 6.12 0 01-5.47-.49c.73-5.37 5-3.84 8.32-4.35a10.32 10.32 0 012.38.63c6.88 3.63 14 2.57 21.38 1.82 9.76-1 10.84.27 11.61 10a8.2 8.2 0 01-1.37 4.81 13.12 13.12 0 01-3.15 3.84c-1.37.66-3.57 1.24-4.09.12-2.41-5.1-6.1-2.76-9.57-2.1-4.25-6.83-11-7.76-18.15-7.76z" transform="translate(-144.06 -254.95)"/>
  <path class="cls-45" d="M231.26 463.4c-1.75 2.43-5.9.05-7.12 3.55-2.14 1.45-4.41 2.37-7.07 1.86-1-1-2.72-.4-3.59-1.66l-5-3.77a13.17 13.17 0 01-3.4-6c-.75-2.21-.4-6.24-5.05-2.93-1.27.9-3.17-2.14-3.75-4.1-.9-3.07-2.12-6-2.93-9.14a6.7 6.7 0 011.27-3.47c2.12-2.23 4-5.89 7.29-1.21.76.48-1.22 1.27.2 1.69a6.52 6.52 0 012.94 2.5 23.46 23.46 0 002 2.14c1.06.82 2.68.55 3.54 1.79 2.45 8.05 5.9 14.71 16.16 13.89 2.51-.16 5.09 1.27 4.51 4.86z" transform="translate(-144.06 -254.95)"/>
  <path class="cls-46" d="M259.54 536.26c-7.14-5.36-9-13.77-12.31-21.33a5.81 5.81 0 00-3.53-3.57c-3.71-1.32-5-.25-3.6 3.59a14.73 14.73 0 011.63 1.81l.16 3.51c1.8.58 3.43 2 3.34 3.61-.26 4.46.92 7.72 5 10.06 1.2.69 2.09 3 2.06 4.56a8.5 8.5 0 000 1 99.08 99.08 0 009 4.45c.17-1.49 0-3 .2-4.34-.14-1.37-.22-2.85-1.95-3.35z" transform="translate(-144.06 -254.95)"/>
  <path class="cls-47" d="M250.78 481.23a10.16 10.16 0 01.56-2.35c2.17 0 4.44 1.08 6.07-1.53.76-1.22 2-.87 2.86.2a1.6 1.6 0 01-.08 2.25c-4.1 5.56 1.83 2.2 2.86 3.2a11.74 11.74 0 012.43-1.51 13.28 13.28 0 017.13.12c2.66 1.22 7.07.88 7 4.92-.11 4.25-4.17 3.67-7.17 4a12.86 12.86 0 01-2.61-.39c-1.57-.39-3.1-1-4.71-1.23-1.11-.11-2.22-.2-3.33-.23-1.72 0-3.55-.5-5 1.05l-.85.6c-2.23-1.07-3.59-2.71-3.43-5.32a5.8 5.8 0 01-1.64-2.67z" transform="translate(-144.06 -254.95)"/>
  <path d="M231.5 474c4.63-4.6 9.7.64 14.55-.6 1.37-.35 1.14 1.58 1.16 2.61.06 2.55.83 4.56 3.57 5.26.49 1.73 0 2.45-1.86 1.88l-1.7-.14c-1.52-1.56-3.86-.23-5.44-1.56-5.1-.2-6.03-6.12-10.28-7.45z" transform="translate(-144.06 -254.95)" fill="#a7a3a9"/>
  <path d="M259.54 536.26a3.64 3.64 0 00-.31-1.69 14.62 14.62 0 00-1.26-2c-2.86-6.31-6-12.45-10.74-17.61-.45.34-1.35.84-1.29 1 2.76 7.08 4.45 14.66 10 20.47 1.63 1.73 2.41-.21 3.6-.17z" transform="translate(-144.06 -254.95)" fill="#b9815e"/>
  <path class="cls-20" d="M243.7 511.36c-2.5-.1-3.77 1-3.6 3.59-1.72-.59-3.42-1.72-3.13-3.52.46-2.9 3.22-1.36 4.95-1.86a2.18 2.18 0 011.78 1.79z" transform="translate(-144.06 -254.95)"/>
  <path class="cls-44" d="M248.94 483.12l1.86-1.88c2.1.53 1.77 2.19 1.71 3.72-1.44-.12-2.96-.1-3.57-1.84zM241.8 481.42c2-.18 4.21-1 5.44 1.56-1.96.02-4.11.64-5.44-1.56z" transform="translate(-144.06 -254.95)"/>
  <path class="cls-47" d="M257.85 490.14l-.14 1.79a2.11 2.11 0 01-1.77-1.65l.41-.41a1.05 1.05 0 011.5.27z" transform="translate(-144.06 -254.95)"/>
  <path class="cls-46" d="M259.23 534.57c.19-1.05-.41-1.62-1.26-2a1.76 1.76 0 001.26 2z" transform="translate(-144.06 -254.95)"/>
  <path d="M367.8 396.14l.09-3.53c-.27-2.05-.09-3.95 1.72-5.32 2.7.22 3-1.56 3.84-3.65 1.47-3.52 1.17-8.41 6.19-9.8 2.08 3.38-2.22 5.9-1.21 9.2.47 1.54-.39 4 2.31 3.7 1.65-.19.82-2.6 1.91-3.79 2.88 2.56 5.68 5.76 10 2.56 3.27 2.27-2.93 3.2-.75 5.35a10.86 10.86 0 012.71 5.27c.53 1.95 2.19-.41 3.36 0 1.42 1.62 1 4.22-.12 4.58-6.86 2.24-8.94 10.34-16.28 10.7-6.5.32-5.31 9-10.88 10.47-1.2.05-3.09-.23-3-1.16.9-8.19-3.46-16.42.11-24.58z" transform="translate(-144.06 -254.95)" fill="#905135"/>
  <path class="cls-51" d="M369.61 387.29c-.32 1.85.93 4.22-1.72 5.32-2.48.1-3.7-.94-3.61-3.57.11-3.53 1.77-5.32 5.32-5.31.01 1.19.01 2.37.01 3.56z" transform="translate(-144.06 -254.95)"/>
  <path class="cls-10" d="M406.85 371.32l-1.55.75c-1.33.66-2 3.41-4.16 1.38-.6-.56-1.3-1.44-.31-2.19 1.64-1.24 2.55-4.44 5.49-2.42.51.35.37 1.63.53 2.48zM400.59 361.4a3.18 3.18 0 012.37 2c.34.74.1 1.86-.81 1.75a2.76 2.76 0 01-2.11-2.36c-.04-.38.35-.91.55-1.39z" transform="translate(-144.06 -254.95)"/>
  <path class="cls-52" d="M194.15 440.54c1.06 2.19 4.13 3.15 3.55 6.41-.47 2.65 1 4.81 2.86 7.17l1.11-6c5.49 4 5.77 9.83 6.81 15.3-8.37 1.4-15.57-4.82-24-3.55-3.18.48-5-2.48-6.43-5.16 2.3-2 .28-7.31 5.43-7.17 5-1.26.18-4.88 1.66-7-.67-5.76-4.57-9.68-8-13.81-.81-1-3.15-1.3-1.83-3 1.55-2 2.94.68 4.49.84 3.58.69 5.38 3.95 8.24 5.7 2.06 1.73 3.53 4 5.25 6 .81 1.29 1.71 2.61.86 4.27z" transform="translate(-144.06 -254.95)"/>
  <path class="cls-53" d="M192.07 437.09c-2.85-.78-2.83-4.24-5.15-5.52-.07-6.94-4.79-11.26-8.94-15.91v-1.76c-1-.9-.8-2.06-.75-3.16.12-.46.59-.87.65-1.28.17-1.17-1-1.38-.2-.51s-1.44 1.06-.42.54c-.83 1.38.4 3.19-1 4.38a29 29 0 00-2.84-1.87c-5.86-2.95-6.65-7.78-4.75-14.05 4.63 1 9.72 3.64 14.6 0l1.11-.45c5.16 1.56 4.65 7.07 7.29 10.38 4 3.07 9.81 4.81 8.85 11.65a3.73 3.73 0 01-1.46 1.88c-3.86.33-6.18 1.65-4.32 6.13a8 8 0 01-1.57 8.94z" transform="translate(-144.06 -254.95)"/>
  <path d="M201 364.41a4.75 4.75 0 00-1.63-4.57c-2-1.69-1.87-4-1.79-6.25 2.83-1.3 5.32-.25 7.77 1.12 3.89 3.65 4.58 8.53 5.13 13.46a28.84 28.84 0 00.95 4.95c.54 3.47 3.05 7.48-2.47 9.35-2.91-1-3.93-3.53-4.81-6.12-.32-.7.6-.75.68-1.26-1 0-1 1.05-1.64 1.49-6.14 7.55-12.06 15.28-19.8 21.33h-.11c-1-.54-2-1.06-2.91-1.64-4.71-2.9-4.71-2.91-.53-7.4-.32-.88-.25-2 .51-2.29 10.55-3.94 15.49-13.13 20.65-22.17z" transform="translate(-144.06 -254.95)" fill="#584148"/>
  <path d="M201 364.41c-1 10.84-7.81 17.42-16.66 22.45-1.44.81-3.69-.14-4.5 2.06-2.8-1.63-2.56-3.55-.16-5.14 3.68-2.43 7.13-5.32 12-6-1.57-1.6-3.16-1-4.48-1.42a5.1 5.1 0 013.51-3.47c2.09-.77 3-2.28 3.39-4.52.98-5.6 1.11-5.58 6.9-3.96z" transform="translate(-144.06 -254.95)" fill="#796d7d"/>
  <path class="cls-43" d="M163.87 433.3c5.63 2.8 5.18 10.1 11.15 13.64-3.78 1.3-5.33 6.21-9.57 2.49-2.77-3-5.61-5.95-5.77-10.38-.11-2.99-.34-6.11 4.19-5.75z" transform="translate(-144.06 -254.95)"/>
  <path d="M170.79 369.68c-.35-2.15-3.17-4.35-.86-6.35 2.61-2.26 5.47-.53 8 .93 2.92 3.62 2.54 8.7 5.44 12.33l1.65.07c-6.92 3-7.81 2.65-10.7-3.6-.3-.66-1.2-1.05-1.82-1.57l-.6-.26a3.74 3.74 0 01-.93-.93z" transform="translate(-144.06 -254.95)" fill="#140e13"/>
  <path class="cls-57" d="M178 415.66c3.8-.22 5.56 3.4 8.36 5 4.1 2.3 1.36 7.14.58 10.94a18.67 18.67 0 01-7.17-7c0-1.31 2.57-2.76-.63-4-1.84-.7-4.57-2.44-1.14-4.94z" transform="translate(-144.06 -254.95)"/>
  <path class="cls-58" d="M163.87 433.3c-5.8 3.27-1.2 7.3-.49 10.8.35 1.7 2.57 3 2.07 5.33-.51 0-1-.07-1.55-.08h-1.85l-3.54-5.35c-1.21-2.24-3.35-3.55-5.2-5.15 2.37-2.59.47-6.65 3.14-9.14 1.59 1.25 3.58 1.34 5.41 1.87a2.13 2.13 0 012.01 1.72z" transform="translate(-144.06 -254.95)"/>
  <path d="M168.38 413.3c-4-2.42-7.85-4.64-10-8.7-1.59-3-1.59-3 2-8.56 4.54 5.09 3.34 12.48 8 17.26z" transform="translate(-144.06 -254.95)" fill="#4f424b"/>
  <path d="M185.1 440.52c3.48 2.36 4.59 5.53 3.24 9.55-2.51.84-3-2.32-4.9-2.56l-6.16-7.12c-.81-.93-.11-1.59.46-2.17s1.43-.91 1.92.15c1.14 2.48 4.08.3 5.44 2.15z" transform="translate(-144.06 -254.95)" fill="#736c6c"/>
  <path d="M161.86 431.6a3.29 3.29 0 00-.8.28c-4 2.78-4 2.78-4.61-2.15-2.16-5.21.07-8.14 5-9.66 2.58 2.92-1.87 5.14-.78 7.91a9.59 9.59 0 001.22 2c.02.56 0 1.09-.03 1.62z" transform="translate(-144.06 -254.95)" fill="#857f88"/>
  <path d="M163.73 371.34l.6-6.53c1.24 5.6 2.95 7.68 6.46 4.87l.06-.07a10.23 10.23 0 011.71 1.83v.05c.87 2.94-.78 4.24-3.26 5a2.44 2.44 0 01-3.71.12c-.78-1.7-2.14-3.2-1.86-5.27z" transform="translate(-144.06 -254.95)" fill="#6e6777"/>
  <path d="M165.57 376.62l3.71-.12a23 23 0 012.34 2.4c.47.63 1.07 1.72.82 2.22a1.81 1.81 0 01-2.87.6c-1.8-1.32-4.25-2.17-4-5.1z" transform="translate(-144.06 -254.95)" fill="#a89eac"/>
  <path d="M153.31 438.87c3.9-.47 5.09 1.8 5.2 5.15-1.73-.55-3.08-2.26-5.18-1.67z" transform="translate(-144.06 -254.95)" fill="#7f7e88"/>
  <path class="cls-57" d="M176.23 413.87c1.08-1.77-2.83-3.6.07-5.35 1.6-.4 2.15.23 1.74 1.78v3.6c-.64-.02-1.22-.03-1.81-.03z" transform="translate(-144.06 -254.95)"/>
  <path class="cls-52" d="M176.26 454.65c-1.47 0-3 .2-3.58-1.73 1.47-.01 3.05-.22 3.58 1.73z" transform="translate(-144.06 -254.95)"/>
  <path class="cls-58" d="M161.91 430a1.68 1.68 0 01-1.22-2 1.79 1.79 0 011.22 2z" transform="translate(-144.06 -254.95)"/>
  <path class="cls-65" d="M327 550.94c1.46-6-1.83-12.54 2.23-18.19-1.53-3.19-.38-5.72.94-8.9 3.93-9.46 13.27-16.79 11.5-28.5-3.05-4.3-6.66-8.18-9.36-12.73-3-.37-4.7 1.55-6.27 3.67-1.14 2-1.83 4.39-3.36 6.14s-.74 5.7-4.91 5c-3.5-.6-5.31-1.82-6.08-5.91-1-5.32-5-4.85-8.66-2-2.43 1.85-3.55 4.5-4.26 7.44-.63 2.56-1.5 5.35-4.67 5.66-2.49.25-6.71-.78-5.89 2.68.77 3.23-1.05 9 5.13 9.68 1.61 1.15 5-2.37 4.73.29-.49 5.45 4.53 5.22 6.59 7.82 1.3 1.63 4.74 2.14 3.26-2.47-.44-1.37 1.36-2.25 2.27-1.54 3.24 2.5 7.4.11 12.36 2.85-7.35.55-3.52 8-8.57 9.58-.68.21-.44.85.34 1.23 3.45 1.66 2.14 4.39 1.33 6.82a4.78 4.78 0 001.77 5.42c3.74 2.35 3 5.49 2.63 8.55 1.55-.08 3.09-.17 4.64-.29a9.44 9.44 0 012.31-2.3zM320 553.46a12.63 12.63 0 00-.1 2.29h3.56a7.16 7.16 0 011.18-2.56c-1.51.1-3.05.19-4.64.27z" transform="translate(-144.06 -254.95)"/>
  <path class="cls-66" d="M272 504.68c4.62 1.65 1.65 6.05 4.16 8.21 2.75 2.36 6.89 4.33 4 9.23 3.79 4.29 4.75 9.78 6.57 15a8.19 8.19 0 005.08 4.6c1.8.65 3.34 2.53 5.45.36s.24-3.35-.52-5.23c-2.82-7-7-13.88-3.39-21.89l-2.77-2.84c3.8-1.67 1.05-3.72.09-5.33-.6-1-3-1.3-1-3 1.7-1.4 2.47.38 3.3 1.44.5.65.86 1.4 1.58 2.58 2.11-3.77 7.47-6 6.62-9.82-1-4.57 2-5.59 3.81-7.85 1.17-1.46 2.72-2.23 4.47-.59 1.5 1.42 2 2.91.33 4.48-3.52 3.34.43 3.81 2 4.34 3.57 1.22 8-.12 10.94 4.24-.07-4.8.18-8.8 3.89-11.77.78-.63.34-2.77.46-4.21-1.42-1.48-5.86-.93-2.65-5.38 2.69-3.72 1.89-7.9-3.7-8-7.78-.16-15.73-2.61-23.36 1a7.1 7.1 0 00-2.16 1.18c-1.39 3.66 1.07 5 3.73 6.31.76.74.85-1.42 1.47-.36.11.2-1.07.87-1.59 1.38-9 12.47-9.52 12.67-23.48 8.59a3.66 3.66 0 00-.88-.05c-3.18.63-2.88 5.58-6.69 5.42l-1 .55c-.31 3.86 2.64 6.51 5.24 7.41zM257.85 490.14q-.77-.11-1.5-.27c-.22-4.17 2.69-3.15 5-3a2.42 2.42 0 01-.77 2.91l-1 .41z" transform="translate(-144.06 -254.95)"/>
  <path class="cls-66" d="M261.38 491.92a2.08 2.08 0 01-1.77-1.77 1.5 1.5 0 012 .63c-.08.36-.15.75-.23 1.14zM263.15 493.7a2.1 2.1 0 01-1.77-1.78 1.56 1.56 0 012 .64c-.08.36-.15.75-.23 1.14zM264.93 495.47a2.09 2.09 0 01-1.78-1.77 1.57 1.57 0 012 .64c-.07.36-.15.74-.22 1.13zM266.7 497.24a2.06 2.06 0 01-1.77-1.77c1.57-.4 2.16.19 1.78 1.76z" transform="translate(-144.06 -254.95)"/>
  <path class="cls-67" d="M335.83 553.86a6.69 6.69 0 003.42-2.35c-1.37.21-2.75.4-4.12.58.21.59.43 1.18.7 1.77z" transform="translate(-144.06 -254.95)"/>
  <path class="cls-67" d="M380.29 474.24c-1.84.46-3.28 2.21-5.42 1.65-2.79-1-5.83-1.21-8.44-2.73a4.48 4.48 0 00-4.5 3.77 91.31 91.31 0 00-10.46 25.5 18.29 18.29 0 00-.88 2.15c-.56 1.77-1.08 3.55-1.73 5.28-.35 1-.66 2.07-1 3.12-.56 1.82-2 2.94-3.25 4.25a11.64 11.64 0 00-1.32 1.79c-.4.62-.8 1.25-1.16 1.9l-1.3 1.79c-1.8 2.3-4.74 4-3.95 7.63-2.53 7.16-4.42 14.35-1.79 21.75 1.37-.18 2.75-.37 4.12-.58 1.08-1.17 2.11-2.42 3.71-2.88-.18-3.59 1.88-4.87 5.37-4.93-.54-3.43-9-6.69-.49-10.37.2-.09.06-1.08 0-1.64-.79-6.34 2.61-10.29 7.65-13.2 3.24-1.88 5.51-4.09 5.31-8.29-.37-7.37 8.64-10.55 8.37-18 0-.35 1.48-1.05 2.27-1.07 3.66-.08 6.48-.54 4.21-5.36-.23-.49 1.08-2 2-2.66 3.12-2.36 2.61-5.68 2.68-8.87z" transform="translate(-144.06 -254.95)"/>
  <path class="cls-68" d="M325.23 318.1c3.53-2.78 6.89-5.42 10.86-.29.69.9 3.38.26 5.15.33 1.93 9.86 5.29 19.38 7.82 28.74 1.1-1.26 2.06-3.89 4.88-4.48a3.63 3.63 0 012.37.49c2.4 2.14 2.48 4.69.47 6.89-6.64 7.29-10.81 16.91-20.22 21.55 1.61 6.14 2.12 12.46 3.43 18.62.67 3.16.48 5.8-1.82 8.15-9.24.76-9.91.27-9.68-7.94a20 20 0 00-4.29-13c-2.13-6.29-6.4-11.71-7.5-18.42-.48-2.29-1.45-4.52-.8-6.94 1.14-1.69 3-2.49 4.52-3.71a23.86 23.86 0 006.44-11.31 14.26 14.26 0 01-1.83-1c-3.69-3-6.8-3.88-8.76 1.84-.42 1.22-2.14 1.84-3.38 2.56a5.44 5.44 0 01-3.73 0 12.18 12.18 0 01-3.23-2c-6.9-8.65-17.71-14.54-19.16-27.06a4.33 4.33 0 011.18-3.56c5.47-5.14 12.29-1.47 18.34-2.83 1.92 7.06 13 2.91 13.9 11.5.3 2.87 3.23 1.51 5.04 1.87z" transform="translate(-144.06 -254.95)"/>
  <path d="M288 307.51c.08 1.17.16 2.34.23 3.51-5.69 7.48-9.1 8.06-18.55 3.15a5 5 0 011.45-6.5c.75-.64 2 .24 2.59-.64s.23.43-.64-.39a4.28 4.28 0 01-.56-1.88 5 5 0 01.56-1.94l.78-.67c3.1-.13 5.66 2.6 8.9 1.7z" transform="translate(-144.06 -254.95)" fill="#874b2b"/>
  <path class="cls-51" d="M367.8 396.14c1.64 5.07-.42 10.66 2.37 15.65 1.31 2.36-1.18 4.2-1.82 6.32-.85 2.81 1.27 2.66 3 2.89 5.07 3.55 8 7.51 4.22 14-3 5.19 5.47 1.63 4.63 5.52-1.26 4.35-7 6.77-5.33 12.38-4.15 3.66-8.36 7-6.42 13.85.89 3.16-1.34 6.19-5.41 6.53a5.82 5.82 0 01-2.51-1.12c-6.63-10.4-9.8-21.23-8.19-34 1.5-12 5.65-23.35 6.39-35.38a7.62 7.62 0 013.8-6.59z" transform="translate(-144.06 -254.95)"/>
  <path d="M380.19 440.5c-2.43-1.75-4.67-2.18-6.74.94 1.55-3.28-4.47-7.64 2-10.23 1.69-.68.81-2.45-.27-3.64-1.75-1.92-4.15-3.46-3.87-6.57.91-1.81 2.39-3.54 2.62-5.43.73-5.85 4-7.64 9.25-6.28 2.3.6 3.17 0 3.4-2.12l5.13-6.78c1.25 2.15 2.51 2.6 4.33.41 1.18-1.42 2.09-2.76 1.91-4.65 1.81-.93 3.65-6.51 5.45 0 .1.38 1 .92 1.05.89 4.64-4.8 9.93.66 14.75-.95l.07.05c.77 3.09-.29 5.65-3.52 5.51-9.65-.42-12.85 5.53-14.42 13.51a11.62 11.62 0 01-1.53 3.1c-2.18 4.69-6.69 7.3-9.93 11.06-1.71 2-3.89 2.58-6.1.47-1.17.26-2.87-2.42-3.36 0-.68 3.48-1.53 7.12-.22 10.71z" transform="translate(-144.06 -254.95)" fill="#9d644b"/>
  <path class="cls-71" d="M383.8 429.83c1.42-.15 4-.14 4.09-.48.83-6.2 8.64-6.41 10.1-11.92a10.12 10.12 0 016.23-2 22.07 22.07 0 002.57 0c11.41-1.62 13.56.92 10.69 12.59-2.38-.1-4.66-.1-6.45 2-.93 1.07-2.64 2.82-3.35 2.55-8.62-3.25-5.55 3.5-6.1 7a28.19 28.19 0 00-.05 4.41c-1.06 2.45-3.85 1.27-5 1.25-2.71 0-4.39-.58-3.95 3.06.2 1.68-.84 2.71-2.61 2.69-1.25 0-1.93-.73-2.68-1.78-1.59-2.2-2.78-5.2-2.39-7.2.75-4 .54-7.28-1.71-10.57-.19-.29.39-1.06.61-1.6z" transform="translate(-144.06 -254.95)"/>
  <path d="M364.35 472.34c1.8-2.9 5.67-5.5 1-9.2-1.6-1.26-1.61-3.67-.21-4.52 3.21-1.95 4.78-6.78 9.72-5.74.9.26 1.94 1.09 1.56 1.72a46.08 46.08 0 00-4.89 11c-2.1 6.8-2.86 6.57 3.34 10.27-3.18.27-6.25 0-9-1.85a2.64 2.64 0 01-1.52-1.68z" transform="translate(-144.06 -254.95)" fill="#8c5647"/>
  <path d="M362.52 396.16c-1 4-2.36 7.82-1.84 12 .18 1.43.44 3.39-.31 4.31-4 5-2.86 11.25-4.41 16.81-1.37 4.94-1.14 10.35-2.13 15.53-.63 3.32-.94 7.11 2.31 9.85 1.23 1 1 2.67 1.07 4.15a23.51 23.51 0 005.35 13.54c-3.23 8-9.87 11.47-17.75 12.9-4.87.88-9.55.4-11.69-5.25.6-6.89 7.12-11.09 8.11-17.81 3.25-11.35 6.49-22.71 9-34.25 3.76-10 4.28-20.79 7.08-31a7.15 7.15 0 013.57-4.24c1.86.52 1.53 2.1 1.64 3.46z" transform="translate(-144.06 -254.95)" fill="#35180f"/>
  <path d="M360.88 392.69c-.2 1.42-.13 3-1.71 3.75-3.84.36-8.4 4.92-11.24.5-2.55-4-2.81-9.18 0-14.27 2.59-4.66 4.07-9.38 8.38-13.53 4.58-4.41 1.25-12.39 2.28-18.72a43.48 43.48 0 01.86-6.22 3.69 3.69 0 011.77-1.74c2.62 0 3.54 2 4.49 3.91.18 1.78.36 3.57.53 5.35-.21 3-1.64 5.45-.57 9 1.83 6.11-.25 12.6-2.07 18.66a29.23 29.23 0 00-1.24 7.63 10 10 0 01-1.54 2c.03 1.24.04 2.46.06 3.68z" transform="translate(-144.06 -254.95)" fill="#ba6d36"/>
  <path class="cls-51" d="M360.83 389a2.36 2.36 0 011.54-2 1.82 1.82 0 01-1.54 2z" transform="translate(-144.06 -254.95)"/>
  <path class="cls-2" d="M213.49 467.16c1.5-.11 3-.27 3.59 1.66-1.92 1.01-3.93 2.18-3.59-1.66z" transform="translate(-144.06 -254.95)"/>
  <path d="M204.6 355.4a10.85 10.85 0 01-7.06-1.81c-2.46-3-4.86-6-8.84-7.1a4.82 4.82 0 01-3.47-3.38c6.83.83 12.92-2.24 19.34-3.59.99 5.29 5.18 10.58.03 15.88z" transform="translate(-144.06 -254.95)" fill="#542e30"/>
  <path d="M179.8 364.22c-2.2-3.81-5.74-5.14-9.9-5.31-1.65-.07-3.5.32-4.28-1.8 1.62-1.86 3.24-3.71 3.67-4.19 4.89-1.49 5.54 6.05 9.71 1.56.5 5.71 7.16 6.19 9 10.49 1.09 2.5-.78 4.81-2.93 6.44-6.95 1.44-3.93-4.48-5.27-7.19z" transform="translate(-144.06 -254.95)" fill="#6f6b81"/>
  <path d="M179.8 364.22c2.07.82 3.51 1.65 2.29 4.47s1.42 2.43 3 2.72c.47 2.07-1.21 3.43-1.69 5.18-7.29-1.69-5-7.6-5.44-12.33z" transform="translate(-144.06 -254.95)" fill="#2f2731"/>
  <path d="M419.3 396.18c-.64 1.29-1.27 2.57-1.91 3.85-3.45-2.94-5.9 2.73-8.8 1.22-5.88-3.07-6.74 1.54-6.83 4.89-.11 4.35-2.21 7.64-3.77 11.29h7.11c2.83-1.73 5.16-4.49 8.91-4.32 1.16-.19 2.33-.38 3.49-.61 1.74-.24 3.87-1.15 5.21.08 9.15 8.38 14.46-.39 12.53-12.87-5.4-.77-11.56 1.87-15.94-3.53z" transform="translate(-144.06 -254.95)" fill="#b47558"/>
  <path d="M441.85 395.66c-1.92-1.26-2.52 1.36-3.82 2.13-1 .58-1.86 1.27-2.79 1.92.33 6-4.59 9.25-7.2 15.63-2.23-6.29-5.39-7.35-9.74-5.07-.68.36-1.71.06-2.58.07-.51.66-1.22 1.13-1.76 1.76-4.58-1.67-6.22-.68-8.86 5.33 1.31 0 2.33 2 3.86.54 1.7-1.65 3.79-3.66 5.9-1.48 1.55 1.62 3.69 3.89 1.44 6.85-1.37 1.8 1 3.09 1.18 4.73 1.17 2.48 2.54 1.61 4.06.32a101.89 101.89 0 0015.46-16.3c3-.86 4-3.45 5.19-5.92 0-.39.08-.78.13-1.16l.08-5.28c-.15-1.41.2-3.59-.55-4.07z" transform="translate(-144.06 -254.95)" fill="#bb8671"/>
  <path d="M234.78 295.06c5.1-.87 10.63.93 15.32-3 1.25-1.05 3.93-.38 6-.5 4.6-3 9.68-1.36 15.2-1.89-.89 4-2 6.28-6.15 7.5-4 1.15-8.6 2.32-10.86 6.72-3.52-3.11-7.21-5-11.49-1.36-3.9 3.32-5.62-1.27-8.16-2.38-3.22-1.39.03-3.36.14-5.09z" transform="translate(-144.06 -254.95)" fill="#ce9068"/>
  <path d="M234.81 334.11c-2.88-1.16.31-2.4-.05-3.6 1.18-3.39 4.38-4.05 7.17-5.27a51.94 51.94 0 0010.63-10.62c.6-.59 1.14-1.23 1.75-1.81.57-.61 1.23-1.14 1.77-1.78 3.66-1.06 4.53-4.92 7.1-7.1 3.47-2.95 8.24-3.35 11.38-6.68 2 2.4-.74 3.32-.75 4.9a18.84 18.84 0 00-2.82 3.59c-4.62 5.93-1.55 14.68-7.39 20.15a5.27 5.27 0 01-6.49-1c-2.86-2.8-5.34-1.3-7.81.56a27.38 27.38 0 00-3 3.45 10.29 10.29 0 01-1.74 1.62c-3.1 1.61-5.56 5.05-9.75 3.59z" transform="translate(-144.06 -254.95)" fill="#7b3923"/>
  <path d="M241.93 325.24c-2.32 1.85-3.45 5.32-7.17 5.27-4.85 1.51-8.33-1.82-12.29-3.46 3.53-3.55 8.06-6.11 10.58-10.67 2.95 2.99 3.46 8.37 8.88 8.86z" transform="translate(-144.06 -254.95)" fill="#ba724e"/>
  <path class="cls-18" d="M254.31 312.81a2.08 2.08 0 01-1.75 1.81 2 2 0 011.75-1.81zM256.08 311a2 2 0 01-1.77 1.78 2 2 0 011.77-1.78z" transform="translate(-144.06 -254.95)"/>
  <path d="M336.92 545.66c-3.71-3.55-1.73-5.78.42-8.87a53.84 53.84 0 003.5-5c.36-.68.47-1.81-.76-1.8a8.19 8.19 0 00-2.46.85l-1.1.17a11.23 11.23 0 00-2 1c-.65.38-1.3.77-1.91 1.2-6.91 5.86-8.06 11.42-3.71 19.57q3.61-.36 7.21-.85c.89-2.16 2.89-4.27.81-6.27z" transform="translate(-144.06 -254.95)" fill="#a15725"/>
  <path class="cls-67" d="M328.7 546.82c-2.5-5.79.18-9.24 4.66-12.07 1-.61 2.17-.79 2.48-2.11a3.79 3.79 0 00-3.07-2.76 5.05 5.05 0 00-2.15.28 4.57 4.57 0 00-1.56 1.5l-.24 1.06c-3.91 4.55-7.8 9-2.19 15.08.83.89-.09 2.17-1.37 2.66a3.37 3.37 0 00-.16 2.69c1.67-.13 3.34-.29 5-.46a23.2 23.2 0 00-1.4-5.87z" transform="translate(-144.06 -254.95)"/>
  <path class="cls-5" d="M325.26 550.46c-2 .58-2.85 1.56-2.75 2.86 1.35-.09 2.69-.19 4-.3a18.6 18.6 0 01-1.25-2.56z" transform="translate(-144.06 -254.95)"/>
  <path class="cls-84" d="M442.31 405zM442.33 405c-2.11 2.79-3.12 6.23-5.32 9v5.28c2.29.14 3.69-1.11 5-2.84a30 30 0 004.68-9.16c-.4-2.59-.84-5.16-1.07-7.64-.5 2.05-1.18 4.07-3.29 5.36z" transform="translate(-144.06 -254.95)"/>
  <path d="M451.2 392.59z" transform="translate(-144.06 -254.95)" fill="#763827"/>
  <path class="cls-84" d="M437 420.93a11 11 0 00.09-1.72l-1.35.81z" transform="translate(-144.06 -254.95)"/>
  <path class="cls-8" d="M284.46 300.38h-4.2c1.5-1.7 2.53-3.88 5-2.94.08 0-.53 1.92-.82 2.95z" transform="translate(-144.06 -254.95)"/>
  <path class="cls-20" d="M240.12 515a1.77 1.77 0 011.63 1.81 1.88 1.88 0 01-1.63-1.81z" transform="translate(-144.06 -254.95)"/>
  <path d="M437 412.09v1.88c3.47-2 4.92-5.19 5.34-9-3.49 1.09-3.83 4.55-5.34 7.12z" transform="translate(-144.06 -254.95)" fill="#7a483a"/>
  <path d="M355.41 342.94c-3.52 1.5-5.23 4.36-6 8.31-2.41-3.49-4.13-6.78-3.22-10.93.57-2.61-1.14-1.49-2.44-1.63-.85-.1-2.36-1.83-2.18-2.36 2.07-6.14-3-12.11-.32-18.19 2.53-1.15 2.26-5.05 5.47-5.53 2.75 1.24 3.84 4.59 6.91 5.43 1.34 2.71 4.45 4.09 5.38 7.12 4.13 7 1.52 12.64-3.6 17.78z" transform="translate(-144.06 -254.95)" fill="#d9af96"/>
  <path d="M355.41 342.94c1.53-3.18-.56-7.53 4.36-9.89 2.12-1-1.84-5-.77-7.89a19.2 19.2 0 015.44 14.07c1.19 3.62-2.41 2.54-3.67 3.75-1.76 1.48-3.52 1.23-5.29 0z" transform="translate(-144.06 -254.95)" fill="#c49d80"/>
  <path class="cls-89" d="M360.77 343c.24-2.21 3.42-1.54 3.67-3.75 2.4 2 1.31 4.68 1.28 7.14z" transform="translate(-144.06 -254.95)"/>
  <path d="M224.32 341c.05-1.1-2.48-3-.16-3.09 3.71-.19 7-1.58 10.58-2.12 3.37-2.63 8.21-3.06 10.67-7.08 5.84 1.33 9.83 4.41 10.3 10.84a11.69 11.69 0 01.17 2.43c-5.59 14.79-12 16.17-23.16 5-1.95-1.94-4.45-2.85-6.74-4.16a4.92 4.92 0 01-1.66-1.82z" transform="translate(-144.06 -254.95)" fill="#ca8c69"/>
  <path d="M204.6 355.4a11.26 11.26 0 00-.47-9.64c-1.43-2.53-.64-4.23.44-6.24l8.89-.11c2.69 1.82 5.75 1.9 8.83 1.82 2.51 3.62-.38 5.29-2.76 6.59-5.28 2.9-5 6.26-1.41 10.22a7.63 7.63 0 011.73 4.86c-2 5.49-5.75 8-11.66 6.66.38-5.12-1.46-9.68-3.59-14.16z" transform="translate(-144.06 -254.95)" fill="#702b1e"/>
  <path d="M217 358.91c-4.1-2.08-6.15-4.68-3.69-9.57.92-1.82 1.58-2.83 3.58-2.84 3.47 0 5.5-1.56 5.36-5.27l2-.21a14.33 14.33 0 011.59.18c2.94 2.25 6.87 3.3 8 7.65a10.63 10.63 0 01-2 9.84c-2.33 3-5 2.21-7.89 1.23a19.25 19.25 0 00-6.95-1.01z" transform="translate(-144.06 -254.95)" fill="#9a4422"/>
  <path class="cls-93" d="M245.41 328.73c-.09 2.44.75 5.25-3.39 5.41-2.45.1-4.86 1.09-7.28 1.67 0-.57 0-1.13.07-1.7 3.89-1.11 6.31-5.11 10.6-5.38z" transform="translate(-144.06 -254.95)"/>
  <path class="cls-6" d="M387.39 468.91A2 2 0 01389 467a1.8 1.8 0 01-1.61 1.91z" transform="translate(-144.06 -254.95)"/>
  <path class="cls-35" d="M201.1 319.87h1.75l-.88 1.31z" transform="translate(-144.06 -254.95)"/>
  <path d="M206.37 444.07a2.1 2.1 0 01-1.78-1.79c-.48-3.72 2.44-2.16 4-2.42 2.09-.35 4.34-.58 4.54-3.08.24-3-2.47-2.75-4.34-2.95-5.86-.62-9.71-3.37-10.63-9.47a4 4 0 011.09-3.47c4.31-.87 6 5.61 10.68 3.76 10.85-.39 17.25 5.8 21.79 14.75-1.27 3.06-3.78 2.89-6.39 2.47-1.25-.35-2-1.4-2.8-2.27 0 1 .83 2 .31 3.11-2.25 8.76-1 10.56 8.64 12.27a8.72 8.72 0 015.52 3.19c.09 2.85 0 5.6-4 5.38a17 17 0 01-1.74-.14c-4.06-7.29-8.92-1.39-13.33-.73-1.83-1.54 1.51-3.38-.44-4.71-2.63-1.8-5-4.17-7.58-5.72-4.16-2.48 2.73-6.37-1.69-8.14a1.24 1.24 0 01-1.85-.04z" transform="translate(-144.06 -254.95)" fill="#ac8b83"/>
  <path class="cls-95" d="M270 488.49c2.84-.7 6.13.84 8.87-1.34-1.22-4-5.93-.64-6.94-4 .5-.75 1.55-1 1.94-1.64.87-1.43-.66-1-1.19-1.08-2.28-.32-4.59.67-6.87-.13l-.91-.76 1.76-3.58c1.1-2.78 2.94-4.67 6.06-5 6.06 1.38 12.17 2.57 18.21 4.09 10.92 12.48-1.84 18.86-18.77 16.21-1.33-.44-2.26-1.19-2.16-2.77z" transform="translate(-144.06 -254.95)"/>
  <path class="cls-45" d="M272 472.39l-5.32 3.52c1-2.13-5.78-3-.89-6 1.45-.91.16-2.76-1.65-2.72-4.36.08-8.87-1-13.06.68-6.05 2.45-11.28-.44-16.68-2.19-.63-.21-.95-1.39-1.41-2.12 2.16-1.1 2.41-3.49 3.56-5.27 4.55 1.93 6.09 2 9.79.64 2.74 1.26 5.76 1.51 8.62 2.39 2.52 1.84 5.41 1.42 8.24 1.34 5.33-.17 8.7 2.15 9.64 7.56a2.85 2.85 0 01-.84 2.17z" transform="translate(-144.06 -254.95)"/>
  <path class="cls-95" d="M265 483h-1.92c.17-1.42.05-3 1.88-3.51A2.4 2.4 0 01265 483z" transform="translate(-144.06 -254.95)"/>
  <path class="cls-96" d="M199.35 424.48c3.8 7.18 3.8 7.18 12.34 6.37 2.63-.25 5.29 2.73 4.87 5.45-.74 4.84-2.59 6.15-7.58 6-1.44 0-2.95-2.7-4.39-.05-2.09-.3-1.39-3.32-3.51-3.57-.11-1.08.14-2.47-1-3-2.73-1.14-2.19 2.78-4.2 2.9a4.32 4.32 0 01-1.49-2.16c-.21-2.79.82-5.5.39-8.36-.56-3.45 1.39-4.43 4.57-3.58z" transform="translate(-144.06 -254.95)"/>
  <path class="cls-53" d="M195.75 436.94c0 .57.05 1.14.11 1.71a2.37 2.37 0 01-1.71 1.89c-.7-1.15-1.39-2.3-2.08-3.45l.21-.23a2.37 2.37 0 013.47.08z" transform="translate(-144.06 -254.95)"/>
  <path class="cls-96" d="M201.08 438.71l-.75 1.29c-1.13-1.24.28-1 .75-1.29zM206.37 444.07h1.85q-.96 2.55-1.85 0z" transform="translate(-144.06 -254.95)"/>
  <path d="M270 488.49l2 1.64c.51.68 1.7.7 1.74 1.82-.35.77-1 1.58-1 2.31.2 2.08 1.9 4.61-1.19 5.66-2.14.73-2.82-2.53-4.89-2.71a296.07 296.07 0 01-3.55-3.54 445.57 445.57 0 01-3.55-3.55l1.77-3.29 3.4-.16c1.05 1 2.65.65 3.73 1.55a3.84 3.84 0 001.54.27z" transform="translate(-144.06 -254.95)" fill="#d49c73"/>
  <path d="M265 483v-3.51c5.43-2 10.7-2.48 16.19 1.91-3.11 2.51-6.34 1.2-9.18 1.69z" transform="translate(-144.06 -254.95)" fill="#a3613c"/>
  <path class="cls-95" d="M268.53 488.22c-1.52.15-2.9 0-3.73-1.55 1.51-.12 3.05-.32 3.73 1.55z" transform="translate(-144.06 -254.95)"/>
  <path class="cls-99" d="M204.62 374.86c.7 2.6 4.24 3.77 3.55 7.07 1.51 3.73.24 6.65-2.64 9.11-6.09 3.08-11.47 6.51-10.78 14.76.15 1.73-1.64 3.75-4.32 2.76-2.41-1.43-3.05-3.9-3.51-6.35a5.21 5.21 0 00-3.57-4.3c.23-3 1-6 4-7.1 4.77-1.81 6.65-5.81 9.09-9.81 1.68-2.82 3-7.41 8.19-6.13z" transform="translate(-144.06 -254.95)"/>
  <path class="cls-100" d="M190.43 408.56c1.93-.82 3.31-1.81 3.26-4.36-.14-8.69 0-8.66 8.12-12.12 1.28-.54 1.1-2.69 2.8-3a5.33 5.33 0 011.4 2c-3.1 12.22.78 23.66 3.93 35.18-3.65 1.13-7.32 2.49-8.14-3.43-.1-.75-1.67-1.31-2.55-2 .89-4.3-2.39-6.74-4.38-9.75-4.87 5.01-3.79-.23-4.44-2.52z" transform="translate(-144.06 -254.95)"/>
  <path class="cls-100" d="M195.75 436.94l-3.47-.08c.46-3.72 3.48-7.58-1-11-1.45-1.1-.24-2.6.73-3.73 1.33-1.53 2.63-3.09 3.78-4.45l3.47 3.19.12 3.59c-1.17 1.57-4.9.78-3.73 4.68.69 2.41.1 5.2.1 7.8z" transform="translate(-144.06 -254.95)"/>
  <path d="M178 410.3a2.3 2.3 0 00-1.74-1.78c.08-.27.07-.65.25-.81 1.19-1 .84-3.56 2.91-3.46.71 0 1.7 1.57 1.93 2.57.65 2.63-.77 3.68-3.35 3.48z" transform="translate(-144.06 -254.95)" fill="#776e77"/>
  <path d="M208.19 369.56c3.8-2 8.87-2.09 10.64-7.11 4.84.5 5 4 4.86 7.63-.62 3.09-4.28 3.27-5.54 5.77a3.72 3.72 0 01-1.67 1.47c-3.82 1.17-5.41-1.13-6.51-4.2-1.97-.51-1.78-2.12-1.78-3.56z" transform="translate(-144.06 -254.95)" fill="#864131"/>
  <path d="M210 373.12c1.75 2.36 4.53 2.64 7 3.5 2.71 7.7-4.11 11.59-7.26 16.63-2.45 3.92-3.87-.41-5.09-2.43v-1.74c4.2-.89 1.84-5 3.56-7.15 2-.86 3.59-1.76 2.2-4.5-.65-1.2-.34-2.86-.41-4.31z" transform="translate(-144.06 -254.95)" fill="#915b52"/>
  <path class="cls-99" d="M204.63 374.87l.74-1.28c1.12 1.23-.3 1-.75 1.27z" transform="translate(-144.06 -254.95)"/>
  <path class="cls-4" d="M172.56 371.44a2.1 2.1 0 01-1.71-1.83 1.73 1.73 0 011.71 1.83z" transform="translate(-144.06 -254.95)"/>
  <path d="M343 463.52c-.75 6.53-6 10.55-8.9 15.88-1 1.07-.15 3.11-2 3.71l-5 3.49c-2.7-.58-5 .9-7.8 1.59-.56-4.47 3.63-6.4 4.8-9.8 1.07-3.1-.78-4.41-2.7-3.74-4.42 1.56-8.31 2.32-12.15-1.2-1.41-1.29-2.87.37-3.88 1-2.72 1.72-5.58 1.47-8.48 1.43-1.16-2.64-.63-5.37-.51-8.09 2.24-3.14 6-3.8 9.09-5.59 6.21-.07 11.82-2.77 16.88-5.56 13.09-7.2 14.9-6.94 20.65 6.88z" transform="translate(-144.06 -254.95)" fill="#ba7947"/>
  <path d="M328.82 532.72a10.54 10.54 0 011.82-1.71l1.68-.13c3.76-2.68 6-7.27 10.68-8.79a20.76 20.76 0 011.74-1.77c0-.59.06-1.17.06-1.76 1-2.5 4.12-2.94 5.16-5.38l.18-3.48c1.5-1.49 0-3.92 1.71-5.35.58-5.11.82-10.06-5.49-12a6.84 6.84 0 00-2.66.21 5.84 5.84 0 00-2.16 1.48l-.61 1.17c-2.19 12.87-10 23-16.72 33.61 1.33 1.52 2.52 3.18 4.61 3.9z" transform="translate(-144.06 -254.95)" fill="#e2b289"/>
  <path d="M344.38 493.39a2 2 0 00-1.37.46 20 20 0 01-2 1.41l-.06-.11c-5-2.51-9.05-5.72-8.9-12 .45-1.35.27-3.05 2-3.71 2.57 4.55 6.4 4.44 11.07 3.84 7.66-1 11.82-7 17.44-10.86h1.79c.87.24 1.51.68 1.53 1.7a6.33 6.33 0 00-3.4 3.65c-.06.32-.12.65-.17 1a8.62 8.62 0 01-1.09 1.68c-.21.26-.44.5-.66.77-.44.54-.91 1-1.39 1.56l-.72.79c-.51.55-1 1.07-1.58 1.58a23.14 23.14 0 01-12.49 8.24z" transform="translate(-144.06 -254.95)" fill="#4c2514"/>
  <path class="cls-107" d="M273.78 492a2.11 2.11 0 01-1.74-1.82c5.73-.33 12.1 3.72 16.77-3.25-5.57-4.59 1.29-7.17 2.72-10.93a2.64 2.64 0 013.63.08 10 10 0 005.26 5.24c1.24 6.09-6.41 8.1-6.36 13.68 0 .17-.93.53-1.41.5-6.42-.5-13.37 1.81-18.87-3.5z" transform="translate(-144.06 -254.95)"/>
  <path d="M295.16 476l-3.63-.08c-6.93 1.1-13.22-1.27-19.52-3.56v-1.75a4.36 4.36 0 013.31-1.46c5.72.28 11.28 4.08 17.17.83a7 7 0 014.48-1.08c3.87 2.37.59 4.65-.1 7-.6.01-1.16.1-1.71.1z" transform="translate(-144.06 -254.95)" fill="#995c33"/>
  <path class="cls-107" d="M300.42 481.27l.76-1.3c1.13 1.24-.3 1-.76 1.3z" transform="translate(-144.06 -254.95)"/>
  <path class="cls-109" d="M344.38 493.39q6.36-5.2 12.73-10.4a13.62 13.62 0 001.82-1.74 14.8 14.8 0 001.77-1.77 11.46 11.46 0 001.77-1.78c2.23 1.14 5 2.38 1.18 4.75-4.89 3.07-8.9 5.87-7.07 13.07.65 2.57-1.8 6.55-4.72 8.81-.44-1.66-1.95-2.88-1.79-4.82.37-4.1-1.97-5.78-5.69-6.12z" transform="translate(-144.06 -254.95)"/>
  <path class="cls-65" d="M335.86 532.64c.6-.57 1.18-1.16 1.75-1.76a4.57 4.57 0 012.83-4.86 3.57 3.57 0 002.55-3.91c-1-.38-2.72-1.35-3-1-2.84 3-7.37 4.81-7.66 9.82l3.52 1.77zM344.81 518.53c-.43-3.85 3.21-3.81 5.16-5.38.53 3.94-3.19 3.85-5.16 5.38z" transform="translate(-144.06 -254.95)"/>
  <path class="cls-109" d="M350.15 509.67c.22-1.9-1-4.25 1.71-5.35-.24 1.89.91 4.22-1.71 5.35z" transform="translate(-144.06 -254.95)"/>
  <path class="cls-6" d="M228.61 232.57l-.58.22.07-.55.51.33z"/>
  <path class="cls-65" d="M343 522.06a2 2 0 011.74-1.77 1.93 1.93 0 01-1.74 1.77z" transform="translate(-144.06 -254.95)"/>
  <path class="cls-110" d="M325.24 376.65c4.84 4.78 6.76 10.79 4.52 15.85-1 2.26-.36 2.89 1.48 4 2 1.18 4.53-.2 6.31 1.53 3.31 1.25 2.52 3.94 2.28 6.44a8.89 8.89 0 01-1.86 4.65c-5.78 2.54-10.13 6.86-14.32 11.42-3.29 3.58-5.67 6.87-3.46 12.48 1.71 4.33.84 8.48-6 5.42-4.53-2-4.7 3.09-5.77 5.22-2 4-1.69 8.62-8 10-3.88.83-2.52 6.51-2.56 10.23-1 2.3-1.48 4.92-4.27 5.89-4.26 1.27-8.57 4.16-12.66-.35-.37-.78.24-1.69 0-2.24-.32-.84-.71.84-1.37.33-3.55-.8-3.6-8.65-9.49-4.68a4.24 4.24 0 01-2.18-1.05c-1.42-3.83-2.33-8.2-8.28-5.95-1.71.64-3.42-.35-4.67-1.77-3.38-4.43.14-8.61.68-12.84.22-1.79 2.32-4.07 4.12-4.12 8.44-.22 13.45-6.73 20.39-9.53 4.78-1.93 3.88-5.82 3.65-9.53 2.9-5.65 7.17-.77 10.74-1.4 9.29 4.18 24.06-6 25.57-17.78.48-3.73.77-7.5.95-11.27 2.22-3.35.49-8.21 4.2-10.95z" transform="translate(-144.06 -254.95)"/>
  <path class="cls-111" d="M325.24 376.65c.18 2.39-1.64 4.48-.25 7.23 1.15 2.27-.89 3.48-3.3 3.39-.22 1.74-4.48-1.24-3.28 3.54.84 3.3-.6 8-1.65 12-1.93 7.38-8.23 6.74-13.2 8-2.42.63-3.51-2.13-3.38-5 .49-10.79.39-10.8-10-12.87-1.36-1.91 0-4.38-1.74-6.43-2.66-3.17-.66-5.38 2.48-6.52 5-1.8 7.58-6 10.6-9.79a8.5 8.5 0 011.28-1.11c.55-.36.78-.1.65-.1-1.44 0-1.91 1.54-3.16 1.81-3.8.7-6.33-.68-6.65-4.65-.27-3.42-.56-7.14 3.44-8.91 2.36-1 4.71-2.11 7.06-3.18 5.74-1.54 10.7-.74 14.06 4.76 1.67 6.24 6.87 11.04 7.04 17.83z" transform="translate(-144.06 -254.95)"/>
  <path d="M337.81 403.18a4.55 4.55 0 00-.26-5.19c2.53-5.11-1.06-9.8-1-14.72.06-3.45 1.56-7.13-3.09-9.07-.37-.15.41-3 .65-4.65 10.58-2.35 19-7.33 22.57-18.32.69-2.11 2.13-2.65 4-1.2.66 4.82-1 9.54-.17 14.5.78 4.43-4 5-6.37 9.24-.53 1-3.81 1.77-1.81 4.42a2 2 0 01-.33 3c-5.59 3.51-3.36 9-3.61 13.81-.11 2.05.67 3.49 3.1 1.72s5-1.53 7.64-.29c-1.24 10.81-2.91 21.54-7 31.74-4.19 2.58-7.34 1.74-9.36-2.84-.77-3.85-3.73-6.94-3.91-11 3.91-2.07 4.42-4.36.42-6.92-.95-1.22-.37-3.03-1.47-4.23z" transform="translate(-144.06 -254.95)" fill="#c77d47"/>
  <path d="M270.16 312.73c2.22 3.45 5.95.68 8.48 2 4.23 2.17 5.25-1 7.08-3.32.38-.47 1.62-.27 2.46-.37 1.9 6.14 3.87 12.23 10.93 14.47.53 5.65 6.08 7.73 8.54 12-1.13 1.59-2.79 1.83-4.56 1.83a9.39 9.39 0 01-2.45-.57 13.14 13.14 0 01-4.54-4 13.41 13.41 0 00-5.72-5.24c-3.63-2-7.36-1.36-11-.31-2.88.83-5.64 1.36-8.43-.08-2.05-1.55-6.13 5.38-6.9-1.6 1.19-3.55 3.07-6.24 7.43-5.7-.92-3.1-7.43-5.23-1.32-9.11z" transform="translate(-144.06 -254.95)" fill="#a06343"/>
  <path class="cls-89" d="M360.72 350c-1.08.38-3.68-.44-2.36 2 1.75 3.31-1.34 5.5-1.32 8.34a3.57 3.57 0 01-.75 1.42c-5.6-3-6.39 3.29-9.49 5-5.87 3.26-5.75 3.47-12.67 2.72.62-1.73 2-1.89 3.56-1.79 1.92.13 4-.44 4.55-2.05 1.84-5.93 6-9.77 10.84-13.09-1.6-2.71 1.21-2.66 2.33-3.49 2.85-2.1.93-4.09.06-6.14h5.29z" transform="translate(-144.06 -254.95)"/>
  <path d="M327 335.85a24.46 24.46 0 014.22.51c.84.24 1.18 1.94.5 2-7.3.58-4.68 9.59-10.08 11.66-2.86-2.52-4.48-6.57-8.87-7.21-.8-1.05-1.05-2.1 0-3.17 1.88-3.19 4.4-6.2 2.36-11.54 4.24 3.45 9.95 2.32 11.91 7.76z" transform="translate(-144.06 -254.95)" fill="#c48760"/>
  <path d="M318.2 358.86c-4.4-2.41-8.85-4.59-14.12-3.3l-1.28-.19c-4.1-1.95-4.44-4.39-.59-6.86a24.57 24.57 0 018.15-2.9 6.52 6.52 0 012.6.16c2.2 1.44 4.62 2.77 3.41 6.11a10 10 0 011.83 6.98z" transform="translate(-144.06 -254.95)" fill="#d7b09b"/>
  <path d="M316.37 351.88l-3.8-5.13c-.24-.63 1.26-1.42-.2-1.94a1.67 1.67 0 01.05-1.66l.82-.28c1.65.27 1.4-5.31 4-1.47 1.78 2.65 5.48 4.46 4.46 8.61-1.81.58-3.2 2.25-5.33 1.87z" transform="translate(-144.06 -254.95)" fill="#975b3f"/>
  <path class="cls-117" d="M302.15 337.7l5.5-.2 1.83 1.69-1 1c-2.74.81-5.66 2.01-6.33-2.49zM312.76 339.63l.48 3.24-.67.06c-2.63.48-3.65-.77-3.5-3.27l.41-.47z" transform="translate(-144.06 -254.95)"/>
  <path d="M270.16 312.73c-1.26.56-2 1.87-1.08 2.68 1.55 1.36 2.91 2.41 3.2 4.74.22 1.73 1.65 3.52-1.52 3.27-4-.33-4.39 3-5.82 5.33-.89 1.62-1.93 2.84-4 1.63-1.32-2.56.45-3.89 2.09-5.29 1.54-5.81 3.44-11.57 4.43-17.48.38-2.26 1.41-2.83 2.9-3.61 2.06-1.27 2.41.82 3.36 1.72a11.34 11.34 0 010 1.75 5 5 0 00-3.56 5.26z" transform="translate(-144.06 -254.95)" fill="#b88466"/>
  <path class="cls-18" d="M273.74 305.72l-3.36-1.72c.4-2 2-1.72 3.43-1.85zM273.78 307.47l1.32.74c-1.26 1.16-1-.32-1.3-.76z" transform="translate(-144.06 -254.95)"/>
  <path d="M344.76 422.74c.59 5.18.59 5.18 7.44 5.44-1.89 12.09-5.46 23.74-9.25 35.34-4.24-3.09-6.17-8.11-9.56-11.3-7.1 1.37-10.18 10.83-19 8.72-1.93-.46-1.35 1.22-.88 2.19s1.48 2.18.3 3.06c-1.8 1.33-2.26-.53-3.14-1.6-1.28-1.55-3.23-.93-4.92-1.07a3.83 3.83 0 01-2.34-2.67 4.11 4.11 0 01.78-2.26c3.41-4.41 12-2.86 12.4-10.75 2-5.94 5.59-10.4 11.67-12.54 5.69-1 8.13-6.13 12-9.45 1.36-1.21 1.74-3.85 4.5-3.11z" transform="translate(-144.06 -254.95)" fill="#ca8850"/>
  <path class="cls-71" d="M415.72 410.34a2 2 0 01-1.72 1.76 2 2 0 011.72-1.76z" transform="translate(-144.06 -254.95)"/>
  <path d="M263.05 325.09c-.4 1.91-2.14 3.41-1.66 5.58 2.07 4.42.35 6.83-4.11 7.8-5.47-3.41-6.4-9.11-10.06-13.24.83-3 3.7-3.83 6-4.53.81-.24 4.63-1.75 4.84 2.45.18 3.04 3.15 1.7 4.99 1.94z" transform="translate(-144.06 -254.95)" fill="#9f6045"/>
  <path class="cls-93" d="M247.22 325.23c1.63.25 2.75 2.34 4.76 1.23 1.12-.61 2.72-.72 1.93 1-1.37 3-1.55 4.23 2.41 5.19 3.16.77-.12 3.22-.26 4.93a2.14 2.14 0 01-1.85 1.82c-3.64-.24 2-6.11-3.51-5.6-3 .28-2.78-4.11-5.29-5.1.03-1.43-.05-2.96 1.81-3.47z" transform="translate(-144.06 -254.95)"/>
  <path class="cls-67" d="M337.61 530.88a2.07 2.07 0 00-1.75 1.76 1.82 1.82 0 001.75-1.76z" transform="translate(-144.06 -254.95)"/>
  <path class="cls-65" d="M330.64 531a1.86 1.86 0 00-1.82 1.71 2.08 2.08 0 001.82-1.71z" transform="translate(-144.06 -254.95)"/>
  <path class="cls-121" d="M222.37 371.29c.13-3.47-.49-6.64-3.54-8.84-.59-1.18-1.19-2.36-1.79-3.54.73-1.52 1.33-3.45 3.6-2.61 2.63 1 5.62 1.26 7.51 3.74 6.52-8.57 6.36-9.88-2.24-18.84 4.85.81 8.61 2.81 10.77 7.73 1.79 4.06 10.11 4.93 12.75 1.22 1.94-2.73 5-5.13 5-9 5.47-.34 4.68.86 3 8.34 2.37 2.12 5.73-1.78 8 1.13 1.1 2.77-1.15 4.4-2.18 6.46-.33.72-.69 1.42-1 2.14-2.85 8.86-8.92 14-18 15.73-1.42.27-3.29 1.43-4.19.56-5.27-5.08-11.26-4.35-17.47-2.72a1.22 1.22 0 01-.3-.65 2.87 2.87 0 01.08-.85z" transform="translate(-144.06 -254.95)"/>
  <path d="M264.93 351.81c-4.24-2.63-6.16 1.88-9.67 3.32-1.52-3.88-1.46-7.06 1.43-10.35 2.31-2.63.21-3.46-2.25-3.63-.1-.57-.18-1.15-.23-1.72a2.32 2.32 0 011.85-1.82c4.7-.07 4.5-3.9 5.33-6.94l3.55-1.92c3.66 2.48 2.72-1.92 4.13-2.81 1-.62 1.93-.2.85.28s1.51 1 .33.81c1.79 2.26.58 4.11-.81 5.93-4.13 2.55-3.56 6.15-2.06 9.83s4.53 3 7.41 2.53c3.77-.59 7-.14 8.42 4-.71 7.6-5.81 6.26-10.74 5.28a51.2 51.2 0 01-5.72-1.38 6.4 6.4 0 01-1.82-1.41z" transform="translate(-144.06 -254.95)" fill="#8a4930"/>
  <path d="M284.47 417.42a24.14 24.14 0 011.56 3.14c1.71 5.14 1.48 5.65-3.58 8-1.5.71-3 .48-3.75 3-1 3.23-3.41 7.7-8.21 3-.75-.73-2-.2-1.63.56 2.07 3.9-4.37 4.55-2.36 8.28-2.25-2.14-3.29-4.71-6.39-6.06-.32 3.45-5.69 5.31-4.63 7.44 1.52 3-2.89 5.79.54 8a17.62 17.62 0 01-8.65 7.05c-.3 0-.71-.11-.87 0-4.11 4-7 1-9.94-1.71-2.12.34-3.57-1.25-5.36-1.87-4-4.07-4.84-7.93 1.15-10.78 3.29-1.58 3-5.42 5.4-7.47 1.72-1.25 3.88-2.19 5.77-1.86 4.9.85 2-3 3-4.49 3-3.67 3.68-8.49 5.24-12.67a15.18 15.18 0 019.95-9.83c4-.1 5.71 1.62 5.62 5.88-.13 6 2 7.17 7.06 4 3.28-1.82 5.98-5.12 10.08-1.61z" transform="translate(-144.06 -254.95)" fill="#cd9872"/>
  <path d="M204.65 390.82c1.73.23 1.54 2.35 3.23 3.1 3.2-5.66 7.35-10.83 9.12-17.3a1.72 1.72 0 012.2-.07c1.3 5 2.55 10 2 15.31-.25 2.62.59 6 5 4 4.56 1.78 2.29 8.66 7.51 9.93a5.59 5.59 0 015.34 2.37 7.62 7.62 0 011 3.66 6.51 6.51 0 01-1 3.53c-4.36 3.92-.59 8.54-1.05 12.81a12.68 12.68 0 01-1.46 6.1c-1.39 2-1.86 5.06-5.37 4.51-1.82-1.24-4.88-1.36-5.14-4-.56-5.56-7.29-3.74-9.16-8.13-.68-1.61-4.65 2.33-7-.34-2.13-2.26-5.88-3.09-4.35-8.13.52-1.7-.31-6.16-2.42-8.92-2.48-3.23 1.21-7.42-1.47-11.2-.76-1.2 4.06-3.83 3.02-7.23z" transform="translate(-144.06 -254.95)" fill="#a5776c"/>
  <path d="M231.23 438.76c2.16-1.14 2.3-3.61 3.56-5.35 5.8-1.33 4.89 1.83 3.55 5.28-.34.79-1.17 1.76-1 2.35 1.65 4.55 1 7.09-4.67 6.62-3.46-.28-3.76 2.09-2.62 4.63a8.85 8.85 0 011.11 4.11c-7.91 1.43-14-4.61-12.26-12.25.4-1.8 2-1.8 3.45-1.93a3.38 3.38 0 011.76-1.75c2.4-.56 5.39 1.44 7.12-1.71z" transform="translate(-144.06 -254.95)" fill="#cd9d86"/>
  <path d="M224.15 440.47a2 2 0 01-1.76 1.75c-.82-1.13-1.61-2.29-2.47-3.39-.73-.94-1.35-2-.32-2.94a3.52 3.52 0 012.31-.69c2.65 0 .69 2 1.17 3 .36.74.71 1.51 1.07 2.27z" transform="translate(-144.06 -254.95)" fill="#91695a"/>
  <path d="M247.37 459.94c1.06-4.58 5.45-5.09 8.65-7.05.91 2.17 2.67 2.07 4.31 1.29 4.71-2.21 7.91-.7 8.14 4 .06 1.16.06 2.32.08 3.48-7-1.28-8.89-1.28-14.25 0-2.3-.43-5.79 3.47-6.93-1.72z" transform="translate(-144.06 -254.95)" fill="#be9c8a"/>
  <path d="M254.3 461.71c4.74-5.94 9.5-3.51 14.25 0 .56.05 1.13.1 1.69.13 3 2.11 7.46 3.37 5.3 8.66l-3.57.16c-2.38-5.73-6.12-7.88-12.36-5.52-2.3.86-5.51.76-5.31-3.43z" transform="translate(-144.06 -254.95)" fill="#9c837b"/>
  <path class="cls-129" d="M218.85 376.65h-1.83c-2.8-6.37 3.3-3.81 5.35-5.31l1.12 1.13c2-4.63 6.73-2.06 9.85-3.8 1.18-.66 2.1 1 3.16.94 3.07-.08.52 7.69 5.3 4.08 2.57-1.94 5.61-.42 7.87-2.49a7.83 7.83 0 014-1.6c4.43-.65.18-5.22 1.75-5.18 5.59.15 3-5.77 6-7.22 4.35 1.92 3.79 6.06 4.4 9.68a6 6 0 01-.81 2.37c-4.16 5.55-10.48 8.25-15.95 12.06-4.14 2.88-7.78.55-11.41-1.36-3.49-2.41-7.1-3.86-11.46-2.26-2.51.87-5.19 1.18-7.34-1.04z" transform="translate(-144.06 -254.95)"/>
  <path d="M318.16 449.35c-.83 3.51-1.81 6.55-6.3 7.24-2.74.43-5.26 2.22-7.88 3.4l1.76 3.52c-1.37 4.35-6.72 2.22-8.8 5.41-.6 1.79-2.14 1.66-3.58 1.74a1.07 1.07 0 01-.47-1.2c.15-.4.3-.61.45-.61 2.24-1.05 2.34-3.52 3.5-5.3a2.92 2.92 0 01-.77-2.39c1.53-7.53 14.5-14.44 22.09-11.81z" transform="translate(-144.06 -254.95)" fill="#ca8e63"/>
  <path class="cls-65" d="M341 495.26a1.8 1.8 0 012-1.41 1.72 1.72 0 01-2 1.41z" transform="translate(-144.06 -254.95)"/>
  <path class="cls-67" d="M360.71 479.47a1.91 1.91 0 01-1.77 1.77 2 2 0 011.77-1.77zM358.93 481.25a1.88 1.88 0 01-1.82 1.74 2.27 2.27 0 011.82-1.74zM362.48 477.69a1.9 1.9 0 01-1.77 1.78 2 2 0 011.77-1.78z" transform="translate(-144.06 -254.95)"/>
  <path d="M293.33 468.86v1.81c-.29 1.62-.07 3.27-2.82 3.13-5.22-.26-10.31-.75-15-3.32-.24-3.82-4.7-5.06-5.3-8.66.73-.45 1.46-.91 2.2-1.34 1.63-1 2.21-4 4.64-3.06 3.1 1.22.11 3.42.29 5.18a4.92 4.92 0 003.53 4.47c1.36 3 3.49 4.59 6.69 2.82a11.28 11.28 0 015.77-1.03z" transform="translate(-144.06 -254.95)" fill="#cea07e"/>
  <path class="cls-132" d="M284.47 417.42c-2.79.49-6.38-1.53-7.47 3.58-.75 3.47-5.17.93-7.61 2.92-1.88 1.53-2.39-1.59-3.51-2.68s-2.5-2.1-3.78-3.15c5.66-5.12 5.66-5.12-.73-7.74-7.64.95-6.2-5.64-8-9.58-.78-11.63 7.07-18.09 14.82-24.62 2.82 1.32 2.78 3.43 1.71 5.91a18.3 18.3 0 000 13.8c1.66 4.51 1.32 7.36-4.68 8.36 4 2.33 8.18 1.7 10.56 5.3-2.84-5-2.95-9.1 3.58-10.39 3.24-.64 4.4-3.87 7.12-5a5 5 0 013.47.72c1.64 1 3.27 2.09 4 4.06.24 1.85.66 3.71.09 5.59a2.53 2.53 0 01-1.78 1.23c-3.93.35-3.41 2.62-2.21 5.16.74 1.21 1.46 2.44 2.2 3.65a9.1 9.1 0 01.94 1.87c0 .34.07.69.1 1-1 2.3-2.6 2-3.82.47-1.63-2.07-3.23-1.33-5-.46z" transform="translate(-144.06 -254.95)"/>
  <path class="cls-133" d="M318.16 449.35c-2.63.11-7.27-.46-7.56.43-2.21 6.62-10.75 3.92-13.2 9.5-.55 1.27-.4 2.85-.57 4.28-2.57-1.2-2.15-3.67-1.46-5.34a30.91 30.91 0 001.83-7.74c2 .2 3.88.52 5.79.54 1.66 0 2.38-.7 2.31-2.71-.2-5.88 3.33-11.76 9.36-16.38 2.2.67 1.46 2 .77 3.37-1.17 2.26-.26 3.26 2.06 3.35 2.93.12.94-1.95 1.31-3 1.45-3.95-2.83-5.11-4.05-8.38 5.29-5.74 10.72-11.68 16.2-17.57 1.89-2 4.45-.83 6.68-1.22-3.5 9.3 1.82 21.34-8.83 28.42-5.73 2.3-8.8 6.86-10.64 12.45z" transform="translate(-144.06 -254.95)"/>
  <path d="M293.32 399.69c-.24-2.13-3.29-1.43-3.56-3.53a3.22 3.22 0 01-.9-1.81c.05-.34.11-.69.16-1l.74-.72a18.5 18.5 0 003.51-.16c5.79-1.44 5.76-1.47 7.93 4.89a4.55 4.55 0 001.6 2c2.46 1.83 2.4 3.12-.13 5.09-1.13.89-2.93 3.4-.13 5.08 2.35 1.42 2.76-.76 3.79-2.08 1.19-1.52 2.6-3.78 4.63-.74 1.52 2.28 2.59.48 3-.61 1.91-4.75 1.27-10.06 3.53-14.88 1.17-2.48-3.87-2.21-4-5 3-2.41 5.3 1.76 8.15 1 .52 1 1.67 2.2 1.47 3.07-1.31 5.65.61 12.16-3.58 17a127.34 127.34 0 01-12.2 11.7c-.91.79-2.54.52-3.47 2.05-1.93 3.17-4 6.08-5.69-.46-.35-1.38-3.2-2.14-4.9-3.18-.51-.68-1.23-1.14-1.77-1.77-1.87-.55-1.74-2.09-1.77-3.55.93-1 5.47 1.08 2.73-3.24a3 3 0 01.82-3.84c3.13-1.77.72-3.53.04-5.31z" transform="translate(-144.06 -254.95)" fill="#e0c4ad"/>
  <path d="M328.8 436.93c0-1.48.13-2.92 1.35-3.95 3.72-3.13 5.33-6.51 2.63-11.35-1.28-2.29-.49-4.92 1.49-7.17 1.47-1.67 2.26-3.94 3.36-5.95l.18-5.33c1.86.62 1.64 2.23 1.75 3.68 2.05 2.35 1.68 4.67-.07 7l5.27 8.9c-2 5.8-8 8.35-11 13.35-.93 1.48-3.25.73-4.96.82z" transform="translate(-144.06 -254.95)" fill="#d49868"/>
  <path class="cls-136" d="M288 394.4c-1.61 2-3.63 3.79-4.74 6s-1.8 2.34-3.63.75c-2.88-2.5-2.62 1.84-4.35 2.48s.75 1.18 1.33 1.72c3.15 2.94 1.88 6.44 1.42 10.11-2.89-3-3.85-7.66-9-8.09-5.53-.47-5.5-.72-5.25-7.08a15.11 15.11 0 012.25 1.38c1 .91 1.9 1.16 2.93 0 .87-.95 1.53-2.16.47-3-2.82-2.38-5.57-4.52-1.81-8.34.69-.71-.27-1.6-.89-2.14-2.5-2.16-1.71-4.1.44-5.81s3.17-3.35 1.28-5.8c-.92-3 1.18-4.68 3.25-5.26 9.32-2.61 14.56-10.72 22-15.83a10 10 0 0110.23-.16l.12.2c-1 1.91-2.39 3.4-4.7 3.32-3.67-.13-3.78 1-3.36 4.66.63 5.52-.14 5.61 6.18 6-.1 7.24-4.7 10.61-10.92 12.41-1.41.41-3.13.32-2.84 2.26.15.92 1.51 2.46 2.13 2.37 5.51-.75 2.41 2.38 1.6 3.82-.43.76-2 1-2.39 2.21a4.74 4.74 0 00-.95 1.49z" transform="translate(-144.06 -254.95)"/>
  <path class="cls-136" d="M156.81 110.12l.61-.24-.06.59-.55-.35z"/>
  <path d="M339.49 413.84c0-2.33.05-4.65.07-7 1.78-1 4.87-1.87 4.33.75-.57 2.79 2.2 3.74 1.69 6.23z" transform="translate(-144.06 -254.95)" fill="#ac642b"/>
  <path d="M291.55 328.6c3.3.28 5.19 2 5.52 5.36a2 2 0 010 2.33 9.44 9.44 0 01-3.28 1.85c-5.15 2.11-10.46 4-16 3.74-2.93-.11-6.79.22-8-4 7.21-3.14 11.84-12.46 21.76-9.28z" transform="translate(-144.06 -254.95)" fill="#311e25"/>
  <path d="M291.55 328.6c-3.4.14-7.1-.44-9.26 3.19-2.74 4.56-7.31 5.27-12 5.9-4.23-.55-2-3.34-1.87-5.39.57-1.77 2.23-3.16 1.79-5.27 2.35 1 4.72 3 7.22.71 3.08-2.81 7-.52 10.42-2.14 1.59-.74 2.98 1.32 3.7 3z" transform="translate(-144.06 -254.95)" fill="#674d49"/>
  <path d="M309.07 339.66a7 7 0 003.5 3.27l.22 1.78c-6.22 1.25-12.37 2.21-16.48-4.43a4 4 0 01.21-2.82 3.7 3.7 0 014.05-.06l1.58.3c1.63 3.05 4.69 1.06 6.92 1.96z" transform="translate(-144.06 -254.95)" fill="#341816"/>
  <path class="cls-117" d="M300.57 337.4l-3.55.21-.36-1c.14-.87.28-1.74.41-2.61a6.79 6.79 0 013.5 3.4z" transform="translate(-144.06 -254.95)"/>
  <path class="cls-68" d="M327 335.85l-.75 1.28c-1.13-1.23.29-1 .75-1.28z" transform="translate(-144.06 -254.95)"/>
  <path class="cls-117" d="M297 339.43c2.07 1.58 3.43 4.46 6.82 3.52s5.87 1.74 9 1.76l1.18.75-1.4 1.29-.7-.06-.7.06c-9.56.48-18.58 5.64-28.46 3.3-2.24-1.83-3.89-5.22-7.71-2.43-1.72 1.25-3.95.48-5.94.64-2.92.22-4.3-1-4.14-4a10.29 10.29 0 00-.91-5c-2-4.39 0-6.51 4.45-6.91 1.61 1.46-.24 4.1 1.87 5.39 2.68 3.58 7.31.38 10.45 3 1 .8 1.68-1.08 1.88-2.22s1.55-2.8 2-2.08c3.28 5.54 6.14-1.83 9.14-.1a12.29 12.29 0 003.17 3.09z" transform="translate(-144.06 -254.95)"/>
  <path d="M282.71 350.05c9.33-2.4 18.73-4.3 28.46-3.3-3 2.27-6.66 3-9.95 3.77-1.46 3.33 2.81 2.67 2.74 4.84-3.73-.56-7 1.33-10.59 1.83-4.87 3.2-9.45 6.38-16.05 5.49-4.53-.62-8.26 3.28-12.38 5.08-2.55-3.08-1-7.52-3.53-10.61a2.79 2.79 0 012.88-1c1.31 1.11 1.78.65 1.68-.9a4.51 4.51 0 011.51-1.53c1.44-1.33 3.08 1 4.52-.25 1-.49 2.1-1.46 3.09-1.39 4.85.38 4.84.48 7.62-2.03z" transform="translate(-144.06 -254.95)" fill="#b57754"/>
  <path class="cls-129" d="M264.93 357.13h-3.52c-1-3.2 2.91-3.2 3.52-5.34h1.79a2.41 2.41 0 010 3.53c-.63.6-.72 1.68-1.79 1.81z" transform="translate(-144.06 -254.95)"/>
  <path class="cls-121" d="M266.72 355.36v-3.53c1.85.28 4.19-1 5.28 1.68.28 1 1.08 2.71.75 3-1.17.91-1.88 0-2.49-1.2-1.12-2.21-2.34.18-3.54.05z" transform="translate(-144.06 -254.95)"/>
  <path class="cls-142" d="M254.31 399.69c1.06 3 3.27 5.45 3.68 8.72.25 2 2 1.75 3.38 1.94a4.87 4.87 0 01-3.6 3.44c-1.11.3-2.31.18-3.12 1.22-1.7 2.18 2.94 6.26-.74 6.63-4.46.44-1.65 2.38-2.21 3.87-.84 2.2.22 6.55-4.46 6.14H246c-3.54-1.15-5.62-3.15-3.77-7.09 3-6.42 1.28-11.61-3.9-16-1.78-.58-3.21-2.18-5.31-1.82-1.09-4.7-.28-8.43 5-9.92 5.29 1.75 11.62-2.39 16.29 2.87z" transform="translate(-144.06 -254.95)"/>
  <path class="cls-142" d="M238.34 438.69c-.15-2.45.72-5.59-3.55-5.28.55-1.8 2.21-3.24 1.77-5.37 4.84-2.7 6.61 3.75 10.61 3.55l.07.06c1.68 3.92.18 6.21-3.79 6.94a29 29 0 01-5.11.1z" transform="translate(-144.06 -254.95)"/>
  <path d="M254.31 399.69c-3.54-.17-7-1.83-10.7-.21-1.57.68-4.19 1.09-5.3-1.58a2.47 2.47 0 01-.87-1.85c-.09-1.54-1.06-2.62-1.95-3.77-1.7-2.21-2.83-7.59-6-1-.9 1.85-1.59 3.84-3.58 4.89l-3 2.75c-.43-3-6.19-2.79-4.72-6.21 1.64-3.8 2.4-6.71-.31-10.27-.39-.51 1-3.7 1-5.76 2-.12 4.52.48 6-.49 5.45-3.69 9.53-1.47 13.55 2.24 3.67 3.19 7.19 8.25 11.75 1 .31-.49.84-1.22 1.28-1 10.46 4 9.81-6.07 13.55-10.58 3.54-5.79 8.71-7.9 16.4-6.41 1.66.32 2.74-.61 4-1.07 2.7-1 4.86-3.35 8.06-3.09-2 2.79-3.26 6-7.47 6.79-1.84.36-4.27 3.09-4.53 5-.48 3.67-1.93 2.58-4.42 2.63-3.29.07-6.93 1.19-8.48 5a36.29 36.29 0 00-5.84 8.34 11.18 11.18 0 01-2.33 3.61c-1.54 1.25-3.78 1.72-5.16 3.08-2.24 2.21 3 2.44 1.59 4.72-.83 1.07-.73 2.84-2.52 3.24z" transform="translate(-144.06 -254.95)" fill="#cd9173"/>
  <path d="M238.24 396.15c0 .58.07 1.16.07 1.75-2.27 1-3.33 2.77-5.29 8.84 0 2.34-.71 4-3.49 3.38-2-.48-1.85-1.95-.94-3.26 3.27-4.66-3.48-6.73-2.7-10.72 1.19-4.32 1.49-9.1 6-11.78 3.61 1.58 5.05 4.37 4.68 8.21a4.33 4.33 0 011.67 3.58z" transform="translate(-144.06 -254.95)" fill="#ae6546"/>
  <path d="M247.17 431.59c-4.47 1.62-6.53-4-10.61-3.55-3.11-3.85-.56-8.42-1.41-12.63-.35-1.75 2 .51 3.2.21 1.41-1.18 1-2.35 0-3.51v-3.55c3 0 4.48 3.09 7.26 3.6.78.14 1 .84.56 1.16-4.78 3.18 3.81 6.79-.16 9.55-5.74 4-2.18 6.23 1.16 8.72z" transform="translate(-144.06 -254.95)" fill="#ac6848"/>
  <path d="M218.88 412.22c4.92 5.54 13.71 8.36 12 19.41-3.49-6.68-8.53-9.16-14.87-9.53-.79 0-3-1-.83-2.88 2.82-2.32 2.82-2.62 3.7-7z" transform="translate(-144.06 -254.95)" fill="#b48c7f"/>
  <path class="cls-142" d="M238.34 412.11c1.4.39 2.81 1.25 2.74 2.61-.06 1.14-1.7.84-2.73.9z" transform="translate(-144.06 -254.95)"/>
  <path class="cls-100" d="M67.2 165.19l-.61.23.06-.58.55.35z"/>
  <path d="M264.94 367.77c.64 2.05-.76 3.8-1 5.77-.85 8.35-3.17 9.69-11.05 7.31-.85-.25-2.25-3.5-2 .11.38 5.11-3.52 4.26-5.25 3.53-2.83-1.19-7.46-1.08-7.35-6.09 2.17.78 4.39 1.45 6.5 2.38a2.32 2.32 0 003-.51c5.09-5.11 11.89-7.76 17.15-12.5z" transform="translate(-144.06 -254.95)" fill="#c0764f"/>
  <path class="cls-133" d="M304 460l-1.29-.77c1.25-1.13 1 .32 1.3.76z" transform="translate(-144.06 -254.95)"/>
  <path class="cls-110" d="M293.33 405c-.57 2.66 2.56 4.47 1.37 7.66-1.48 1.33-3.16-1.3-4.92-.58-1.9 0-4.38-.75-3.29-2.72 1.31-2.36-1.21-5.62 1.79-7 2.32-1 2.91 2.64 5.05 2.64zM293.32 399.69c.74.39 1.47.82 2.24 1.16 1.59.72 2.68 1.14 1.64 3.58-1.29 3.05-2.59.56-3.86.59 1.02-1.78-2.76-3.54-.02-5.33z" transform="translate(-144.06 -254.95)"/>
  <path class="cls-136" d="M289.77 394.39v1.77a2.08 2.08 0 01-1.77-1.76 1.13 1.13 0 011.77-.01z" transform="translate(-144.06 -254.95)"/>
  <path class="cls-110" d="M291.55 415.66a2 2 0 011.77 1.77 2 2 0 01-1.77-1.77z" transform="translate(-144.06 -254.95)"/>
  <path class="cls-111" d="M289.77 394.39h-1.75a2 2 0 011.75-1.77z" transform="translate(-144.06 -254.95)"/>
  <path class="cls-132" d="M279.9 395.41c.33-.28.67-.78 1-.76s.71.48 1.07.75c-.2.18-.42.55-.58.52a7.64 7.64 0 01-1.49-.51z" transform="translate(-144.06 -254.95)"/>
  <path d="M297 339.43c-3.7 1.66-4.48.31-3.22-3.13l2.88.27a.71.71 0 00.36 1z" transform="translate(-144.06 -254.95)" fill="#ded4e2"/>
  <path class="cls-121" d="M264.93 357.13a2.07 2.07 0 011.79-1.77c-.13 1 .3 2.11-.8 2.73-.11.06-.65-.62-.99-.96z" transform="translate(-144.06 -254.95)"/>
  <path class="cls-142" d="M238.24 396.15c-1.88-.58-1.67-2.12-1.64-3.58 1.49.34 3.7-.87 4.34.95.45 1.28-1.3 2.21-2.7 2.63z" transform="translate(-144.06 -254.95)"/>
  <path class="cls-1" d="M314.32 553.48A132.22 132.22 0 01214.37 508M314.32 288.46a132.51 132.51 0 010 265" transform="translate(-144.06 -254.95)"/>
  <text class="cls-149" transform="rotate(.93 -1499.18486887 9997.4735048)">
    F
  </text>
  <text class="cls-149" transform="matrix(.99 .14 -.14 .99 181.69 25.95)">
    L
  </text>
  <text class="cls-149" transform="rotate(16.21 -.08355937 717.30996944)">
    E
  </text>
  <text class="cls-149" transform="rotate(25.28 33.1178299 510.53112243)">
    A
  </text>
  <text class="cls-149" transform="rotate(34.3 48.69620992 413.11603338)">
    B
  </text>
  <text class="cls-149" transform="matrix(.73 .69 -.69 .73 259.24 56.8)">
    A
  </text>
  <text class="cls-149" transform="rotate(53.7 66.68650705 308.23187304)">
    G
  </text>
  <text class="cls-149" transform="rotate(62 66.8126599 291.78328437)">
    
  </text>
  <text class="cls-149" transform="rotate(68.3 71.13932477 271.47551117)">
    B
  </text>
  <text class="cls-149" transform="matrix(.22 .98 -.98 .22 305.24 125.22)">
    R
  </text>
  <text class="cls-149" transform="rotate(86.33 76.71718657 238.60277433)">
    E
  </text>
  <text class="cls-149" transform="rotate(96.79 80.89348124 222.63394823)">
    W
  </text>
  <text class="cls-149" transform="matrix(-.27 .96 -.96 -.27 307.21 198.22)">
    I
  </text>
  <text class="cls-149" transform="rotate(111.7 80.77208403 208.01316653)">
    N
  </text>
  <text class="cls-149" transform="rotate(121.75 85.09331886 196.74128795)">
    G
  </text>
  <text class="cls-149" transform="rotate(129.78 81.53328996 191.99349532)">
    
  </text>
  <text class="cls-149" transform="rotate(137.26 86.50597865 184.00697416)">
    C
  </text>
  <text class="cls-149" transform="rotate(148.69 88.6543744 175.01964933)">
    O
  </text>
  <text class="cls-149" transform="rotate(156.64 84.56223235 170.30455235)">
    .
  </text>
</svg>
