<svg data-name="Layer 1" xmlns="http://www.w3.org/2000/svg" viewBox="0 0 196.2 253.2" style="">
  <path d="M125 6h7l1 3c4 1 7 2 9 4l4 1a3 3 0 002 1l1 2a24 24 0 000 2 1 1 0 001 1l3 1c0 2-2 2-3 3a10 10 0 01-2 1 7 7 0 01-4-1 6 6 0 00-6 1l-4 1c-1 1-2 2-3 1l-12-6c-1-1-3-3-5-1-1 2-1 4 1 6 1 1 2 2 1 4h-4c-2-2-3 0-5 0a3 3 0 01-1 0 19 19 0 00-9-5h-1l1 1c3 0 6 1 5 5a3 3 0 01-2 1c-2-1-4-3-7-2-2 2-6 4-9 3a6 6 0 00-6 1l-9 3-8 3a8 8 0 01-4 1c-2 0-4 2-6 1-1-1-1 1-1 1a7 7 0 01-3 5 6 6 0 01-1 0 34 34 0 01-8 0c-2 0-3-1-3-3 2-5 10-13 16-13l-2-4 2-3 10-9c3-1 6-2 8-5l10-4h2c3-2 7 0 10-2a7 7 0 011-1h25c3 0 6 0 8 2zM177 204a10 10 0 01-5 8c-1-2 0-4-2-6-2-1-4-2-6 1-2 2-2 4-5 5a3 3 0 01-1 0 3 3 0 01-1-2 4 4 0 00-1-1v1c0 2-1 3-3 3a5 5 0 00-2 0l2 1a3 3 0 011 1c0 5-4 5-7 5-5-2-9-3-14-1-2 1-3-1-3-2-3-3 0-6 0-8-1-5 3-7 6-9 2-1 4-3 2-5l-3-2c1-3-2-4-2-7-1-3 1-4 3-6 2 0 3 0 4 2 1 4 4 2 6 1 2 0 4-1 4 2l2 1c2 0 4 1 4 3 0 3 2 3 4 3l1 3c0 2 1 0 1 0a6 6 0 013-1c5 1 4-3 5-6l3-1 2 1c0 5 5 10 2 16zM195 162l-3 11-2 6-1 1a4 4 0 01-2 2c-3 1 1 2 1 3 0 4-2 6-5 6l-2-2c-1-4 0-9-5-11v-3a6 6 0 012-4l1-2c-3-2-2-5-3-7-2-5-2-6 2-8 3-1 3-2 1-3-1-2-2-4-1-7s-3-3-3-5c2-4-3-2-3-3a2 2 0 010-2c4-3 8-3 13-3l4 7a3 3 0 010 2c-4 6-1 11 0 17a46 46 0 012 4c-1 3-2 5-1 7l2-7 2-5c0-1 1-2 2 0l-1 6z" fill="none" stroke="#000" stroke-miterlimit="10" stroke-width=".3" class="mZKRXrhZ_0"></path>
  <path d="M52 33l1 2-3-1c0-2-2-1-3-1-3 1-3 1-6 6l-5 6-1 2a15 15 0 002 0h9v2a4 4 0 01-2 0l-7 1c-2 0-4 0-4 2a3 3 0 003 4 2 2 0 012 1 17 17 0 01-4 13 4 4 0 01-5 1l5 4a2 2 0 010 2 2 2 0 01-3 1c-3-1-5-2-3 3 2 3-2 3-4 4-5 2-6 2-6-4a9 9 0 010-2l1-6a53 53 0 013-9 22 22 0 003-6c3-5 4-11 8-15l4-4c3-4 5-9 11-10l4 4zM110 252h-1c-2-2-5 0-7-1-3-3-7-1-10-2h-8c-4-1-9-2-12-6-7-6-7-6 1-9 4-1 5 3 7 4a26 26 0 009 4c7 1 13 3 20 1 3-1 5 0 7 2 3 2 5 1 8 0 2-1 3-2 5-1 1 2 0 2-2 4-2 1-3 3-6 3-4 0-7 2-11 1zM169 37a2 2 0 013 1l5 9 3 4c1 3 0 5-4 6a14 14 0 01-8-7c-1-4-4-4-6-6l-14-4a2 2 0 01-1-3c2-2 1-6 2-9l1-2h1c4 5 11 4 15 8 0 2 2 2 3 3zM147 219l2-1c1 2 2 0 3 0 2-1 1-2 1-3l2-1c2 1 3 1 3-2h4c5-1 5 0 7 5-1 4-3 7-7 9h-6c-4 0-8 4-11 7l-5 3a4 4 0 01-3-1c-1-1 1-2 1-4-1-7 4-9 9-12zM30 210a6 6 0 01-2-1l-4-3c-2-1 0-4-2-5-1-3-4-7-3-9 2-3 0-5 0-8l-2-2a13 13 0 001-8 5 5 0 013-7 9 9 0 015 0c2 1 4 2 3 4l-1 7c0 2-1 3 2 3 1 0 3 0 3 3a3 3 0 01-3 3c-2 0-2 1-1 3 1 3 0 4-1 6 0 2-2 3-1 5l3 9z" fill="none" stroke="#000" stroke-miterlimit="10" stroke-width=".3" class="mZKRXrhZ_1"></path>
  <path d="M140 235a13 13 0 003-1l1-2c0-3 1-3 3-3a2 2 0 003-2c1-2 2-2 4-2h3c2 1 4 2 2 5a15 15 0 01-1 1 8 8 0 01-1 1l-1 1c1 3-4-1-4 3 1 3-4 3-5 5h-2c0-4-1-1-1 0-2 3-4 4-7 5-2 1-3 4-6 3-1-1-3 0-4-2l2-3a5 5 0 012-3l9-6zM58 231h-2a44 44 0 01-4-4 35 35 0 00-9-7 14 14 0 01-2-2l-6-5c-2-2-1-3 0-5s2-1 3-1a12 12 0 014 1 2 2 0 011 1c0 4 5 7 9 7 3 0 5-3 7-1 2 3 7 2 8 7l-2 5c-1 3-2 3-4 2-1-1-2-3-3-2s1 3 0 4zM177 175a4 4 0 00-1 1 7 7 0 000 2c3-1 3 2 5 2 1 1 2 2 1 3-2 2 0 4 1 6s-1 1-1 2v1c-1 1 0 0 0 0-1 2 0 5-3 7v3a2 2 0 01-2 2l-1-7c0-1 0-3-2-4v-1a5 5 0 001-2l-1-2h-2c-4-4-4-4 0-10 1-2 1-5 5-3zM195 155h-1c0 6-2 11-3 16v1a3 3 0 01-1-1v-2c-3-2-2-5 0-7a6 6 0 000-1 39 39 0 001-9c0-2 1-4-1-6l-1 5c0 2 1 4-1 6-1-2-3-3-1-5 0-1 1-3-1-3l-1-2 1-3a1 1 0 01-1-1c3-1 3-3 4-5 2-2 4-1 6 0v1a54 54 0 010 16z" fill="none" stroke="#000" stroke-miterlimit="10" stroke-width=".3" class="mZKRXrhZ_2"></path>
  <path d="M42 209l-4-1c-1-1-2 0-2 2v1c-4 0 0 1-1 2-2 0-4-1-5-3l-1-2-3-3c-1-2 2-3 1-4 1-3 3-2 4-1s2 3 4 1c4-3 8-2 11 1a2 2 0 010 4 12 12 0 00-4 3zM20 183c2 0 3 1 2 2l-1 1v2a8 8 0 013 1 1 1 0 010 1l-1 1a18 18 0 01-2 0c-1 0-2-1-2 1l2 1 1 2-1 1c0 2 3 0 2 2l-1 3-5-4c-1 0-3-1-1-3l-2-1a38 38 0 00-4-9c0-1 1-2-1-2l-1-1c-1-2 1-4 2-5a2 2 0 012 1c1 5 4 6 8 6zM4 131l1-2h1l-1-1 1-2 5-4a3 3 0 001-5c-2-2-1-4-1-7a3 3 0 012-2c2 0 1-2 1-3v-4-6a1 1 0 012 0l1 5v23c0 2-1 3-2 3-4 0-5 2-6 5a4 4 0 01-2 1 3 3 0 01-3-1zM169 217l-2-1a6 6 0 01-1-1h3v-2c-2-1-5 1-6-1l-1 2a9 9 0 01-1 1 5 5 0 01-1-1 12 12 0 01-1-2c2-1 1-3 2-4l2-1c2-3 5-2 8-1l2 1-1 5v1l-3 4zM176 56c1 0 2 1 3-1a9 9 0 001-3l-1-2c-2 0-2-2-2-3l4 5 2 3a6 6 0 012 6 13 13 0 013 8 4 4 0 01-5 3 2 2 0 01-1-2c2-4 0-5-2-7s-4-4-4-7zM166 34c-1 0-1-2-2 0h-2l-5-4h-1v3a4 4 0 01-1-1c-2-1-3-2-3-5l-2-1c-1 0-2 0-2-2l1-1c8-3 11 4 15 8a2 2 0 013 2c1 1 0 1-1 1zM5 175c-2-2-2-5-3-7a14 14 0 01-1-5c0-1 1-2-1-4 2-2 0-5 3-7a1 1 0 011 0 2 2 0 012 1c-2 3-2 6 0 9a36 36 0 002 4 4 4 0 011 2c0 3-2 4-3 7zM58 231a25 25 0 00-2-3v-2h4l2 2 2 1v-2a1 1 0 011 0c1 3 2 5 5 5a2 2 0 011 2c-2 2-5 3-8 1l-4-3zM61 17a12 12 0 010 2c-3 0-4 2-6 3l-4 4h-4l1-1 3-2v-3l2-2 2-1v-1h-1l1-1a15 15 0 012 0l2 1c1-1 2-1 2 1z" fill="none" stroke="#000" stroke-miterlimit="10" stroke-width=".3" class="mZKRXrhZ_3"></path>
  <path d="M4 131h3c2 2 2 4 2 7-1 2-1 6-4 7a1 1 0 01-2 0c-1 0-3 0-2-2 2-2 1-4 2-6a7 7 0 001-6zM37 39l-4 6-4 5a36 36 0 01-2 6l-2 2c0-2-1-4 2-5l1-2c1-1-1-4 2-4l1-5 4-3h2zM47 26h4a15 15 0 00-1 1 7 7 0 00-1 1 1 1 0 01-1 1c-3 0-4 3-6 5l-3 2c-1 1 0 3-2 3v-2a7 7 0 010-2c1-2 1 0 2 0l1-3a4 4 0 012-2s1 2 1 0l1-2 1-2a5 5 0 012 0zM115 2h5l1 1-3 2-13-1H93a3 3 0 01-2-1c0-2 1-1 2-1a64 64 0 0122 0zM195 138h-8c1-2-1-3-2-5a3 3 0 010-1 4 4 0 011-1c2-1 1-5 4-6a1 1 0 010 1s0 0 0 0l-1 7 6 4a4 4 0 010 1zM164 31l-7-7-3-1h-5c0-2 2-1 3-1l1-1a5 5 0 00-1 0h-4l-1-1 1-1a4 4 0 011 0h4a36 36 0 003 3l5 3 3 4a5 5 0 010 2zM79 7l-7 4-3 1h-2V6l1 1a4 4 0 006 1l5-1zM191 74v5c2 4 2 8 1 11-3 2-3 0-3-1l-1-5a8 8 0 01-1-5l1-9a2 2 0 011-1c3 1 2 3 2 5zM59 232l5 2a6 6 0 007-1s0 0 0 0a2 2 0 012 0 1 1 0 010 1s0 0 0 0c0 1 1 2-1 2h-3a5 5 0 00-2 1 5 5 0 001 2l4 4a6 6 0 01-2-1l-5-5-6-5zM84 249h6l1-2a1 1 0 012 0l1 2a2 2 0 002 0c1-1 1-3 4-1l2 2a3 3 0 010 1 8 8 0 01-6 0c-4 0-8-2-12-1v-1zM22 64l-2 9c-2 2 0 5-1 7-1 1 0 3-2 2-1-1-3-2-2-4a7 7 0 010-1c3-1 2-4 3-5l4-8zM137 246l-1-1a5 5 0 011 0c2 0 3-1 4-3 1-1 4-2 3-5v-1l2-1a7 7 0 011 3 10 10 0 01-1 2c-1 1-1 1 1 1-3 3-6 5-10 5z" fill="none" stroke="#000" stroke-miterlimit="10" stroke-width=".3" class="mZKRXrhZ_4"></path>
  <path d="M15 78l1 2c2 0 1 1 1 2 1 5 2 9-2 13h-1a36 36 0 001-4v-4a8 8 0 00-2-7v-2c1-2 1 0 2 0zM115 2H93V1l10-1a109 109 0 0112 1v1zM147 241a3 3 0 012-3l2-1 1-2-2 1-1-1 1-1a2 2 0 011 0l6-2a2 2 0 010 0l-5 7a6 6 0 01-5 2zM10 176c0 1 1 3-1 3l-1 2-3-6c1-1 2-3 4-2 1 0 2 1 1 3zM182 192v-1a2 2 0 011 0c2 0 2-3 4-3a22 22 0 000-3v-4l2-1v5c0 4-2 7-7 7zM67 12l1-1a3 3 0 011 1l-5 5h-3l-2-1a5 5 0 015-3c1 0 3 1 3-1zM127 247a5 5 0 014 2l-7 2a1 1 0 01-2 0v-1c2-1 3-3 5-3zM195 155v-16l1 1v21l-1 1zM193 80l1 1v15l-1 1a3 3 0 01-2-2 6 6 0 010-3 9 9 0 001-2c1-3-1-7 1-10zM3 145h1c2 1 2 3 2 5a3 3 0 01-2 2H3a11 11 0 01-2-2c0-1 2-2 0-3a12 12 0 001-1l1-1zM142 13c-1 0-3 1-3-1l-1-1h-6l-1-1c2-1 4-2 6-1 2 0 3-1 4 2l1 2z" fill="none" stroke="#000" stroke-miterlimit="10" stroke-width=".3" class="mZKRXrhZ_5"></path>
  <path d="M192 95l1 2v4a1 1 0 010 2v4c-1 1-1 2-3 0v-9c0-1 0-3 2-3zM159 230c1-2-1-3-2-5a28 28 0 013-1c2 0 2 0 2 2l-3 4zM122 251h2v1h-6l-6 1s-2 1-2-1c4-2 8-1 12-1zM10 184l2 2 2 2c1 1 2 2 0 4v1l-2-1-2-8z" fill="none" stroke="#000" stroke-miterlimit="10" stroke-width=".3" class="mZKRXrhZ_6"></path>
  <path d="M191 108c2 0 1-2 1-3s-1-2 1-3a21 21 0 010 10c0 1 1 2-1 2a2 2 0 01-2-1 6 6 0 010-2l1-3zM118 4l3-1c3 0 4 0 4 3-1 0-3 1-4-1l-3 1a1 1 0 010-2zM96 251h6a7 7 0 003 0c1-1 2-1 4 1H97l-1-1zM191 74a6 6 0 01-1-4l-1-1a1 1 0 010-2l2 1v2l2-1a4 4 0 010 1 4 4 0 01-2 4zM137 9c-2 0-4 2-6 1V8l1-2a16 16 0 013 1 15 15 0 012 2z" fill="none" stroke="#000" stroke-miterlimit="10" stroke-width=".3" class="mZKRXrhZ_7"></path>
  <path d="M189 67v2l-1 1-1-1-2-6a11 11 0 010-2c2 0 2 2 3 3l1 3zM166 34l1-1a5 5 0 012 4h-3s1 3-1 1v-2a16 16 0 001-2zM91 3h2a1 1 0 010 1s0 0 0 0l-2 1c-2 1-5 3-7 0l4-1 3-1z" fill="none" stroke="#000" stroke-miterlimit="10" stroke-width=".3" class="mZKRXrhZ_8"></path>
  <path d="M84 5h5a8 8 0 012 0c0 1 1 2-1 2h-9zM191 113l1 1v11l-1 1c-2-4-1-8-1-12a3 3 0 011-1zM192 91v1l-1-1V79l1 1a26 26 0 010 11zM73 5l-1 1-3-2a3 3 0 012-2c1 0 2 1 2 3z" fill="none" stroke="#000" stroke-miterlimit="10" stroke-width=".3" class="mZKRXrhZ_9"></path>
  <path d="M191 114v12h-1v-1c-2-5-2-8 1-11zM192 91V80h1v10l-1 1zM193 112v-11h1v11h-1zM45 49c2 0 1-1 1-2h1l10-7a5 5 0 004-1c3-2 7-3 11-3l8-3c1-1 3 0 3 2a4 4 0 01-1 3c-2 2-2 3 1 2s4 3 3 6a13 13 0 00-1 4c0 4 0 8-5 8a3 3 0 00-3 1c-1 3-4 4-7 4l-1 1 1 1c5-3 10-1 15-2a7 7 0 016-1c-1 4-4 6-8 7-1 0-2-1-2 1 1 4 1 4-3 5a29 29 0 00-5 2c-5 1-5 2-4 7a2 2 0 01-1 2 4 4 0 01-3-1c-4-3-8-1-11-1-2 0-3 2-2 4s2 5 4 7c0 2-2 3-4 5-1 1-3 2-3 4l1 3 1-3c0-2 6-5 8-4 2 0 3 3 2 5-3 3-6 4-8 8 1 3 4 1 6 3a3 3 0 012 3 3 3 0 01-1 1c-2 0-5 3-8 1l-1-1v1c-2 1-1 4-2 5a3 3 0 01-3 2c-2-3-5-6-9-5a2 2 0 01-2-3c3-1 5-5 9-4v1l2 2v-3a15 15 0 010-4c0-4-1-4-4-3a15 15 0 01-5 0c-1 0-3-1-3-3s2-2 4-2a17 17 0 002 0h1l-1-1a11 11 0 01-5-5 2 2 0 010-3c1-1 1 0 2 1 2 1 4 2 6 0l2-2h-1c0 1-3-2-3 1 0 2-2 2-3 1a17 17 0 01-6-7c-3-2-2-4-1-7l3-5c2-5 2-11 5-16s5-7 12-6a7 7 0 002 1c2 1 4 0 6-1v-1c-2-1-4 0-5 1a2 2 0 01-3 0l-5-1c-1 0-3 1-4-1 0-2 1-3 3-4zM148 24l2 2 1 4c1 0 1 2-2 2l-1 1a13 13 0 001 1l3 1v1c-2 0-3 2-5 1-2 2-5 0-7-1-2 0-4-2-6 0l-18-6a2 2 0 00-1-3c-2 0-2-1-3-3s-1-1 0-2a4 4 0 001-3c1-2 1-2 3-1a8 8 0 012 1 1 1 0 002 0h2a13 13 0 010 2l-1 1a6 6 0 00-1 1 2 2 0 001 0l3-1a12 12 0 013-1l1 1-1 1v1c1 1 4 0 4 3a3 3 0 001-1l2-1c0-2 1-3 3-1h1c2-2 4 0 6-1h2l2 1z" fill="none" stroke="#000" stroke-miterlimit="10" stroke-width=".3" class="mZKRXrhZ_10"></path>
  <path d="M116 30c1-1 3-2 4 0 0 2 4 0 3 3h2a23 23 0 001-2l1 1 1 1c2-1 3 1 5 2h1a2 2 0 011 3c-3 2-6 1-8 0a20 20 0 00-13-2h-7c-5-3-10 1-15 0-4-1-7 1-10-1v-2l-2 1c0 2-3 1-2 3h-1c-2-2-4 1-7 0l-3 1c-2-2-2 0-3 1a9 9 0 01-3 0c2-2 4-3 7-3l4-1a8 8 0 012-1l4-1c2-2 2-2 4-1a1 1 0 001 0h3c3 1 4 0 5-3 1-2 1 1 2 0l6 2h3l4-1h1l5-1a5 5 0 004 1z" fill="none" stroke="#000" stroke-miterlimit="10" stroke-width=".3" class="mZKRXrhZ_11"></path>
  <path d="M106 30l-1 1c0 2-1 1-2 0a3 3 0 00-1 0c-1-3-2-4-4-4a12 12 0 01-1 0c-1 0-3 1-4-1l1-3 1-1 2 1 2 1c3 1 6 2 7 6zM91 5l2-1a30 30 0 0112 0h5c1 1 2-2 4 0h4v2c-2 0-4 1-6-1h-2l-1 1c-6-2-12 0-18-1zM57 40v1l-7 6h-3c1-2 3-2 2-5h3c1-2 3-2 5-2zM48 29l1-1c2 0 3 1 3 3v2a13 13 0 00-3-1c-2 0-2-2-1-3zM112 29a8 8 0 00-2 1v2c-2 0-2-1-3-2a14 14 0 011-2c2-1 2-1 4 1z" fill="none" stroke="#000" stroke-miterlimit="10" stroke-width=".3" class="mZKRXrhZ_12"></path>
  <path d="M99 31c0 2-2 1-2 1a21 21 0 01-4-3h1c2-1 3-1 4 1l1 1zM144 23c0 1 0 3-1 2l-5-1v-1h6zM131 209c1 0 2-1 2 1l-1 1s0 0 0 0c-4 2-4 2-1 5a4 4 0 01-3 2l-9 2-15-4c-1-3-3-3-5-1l-3 2a19 19 0 01-3 3c-3 1-2 3-1 5 1 3 2 3 5 3 6-2 6-1 5 5-1 3 0 4 3 3l8-4c4-1 9 0 11 3a2 2 0 00-1 3c-2 2-5 5-9 4l-20-1a12 12 0 01-5-2c-4-2-7-4-7-9-2-1-3-5-7-5-2 0-2-3-1-5 3-6 7-7 13-6a5 5 0 003-1 26 26 0 00-2 0h-4c-1 0-3 0-3-2-1-2 1-2 2-3 1 0 3 1 3-1 2-3 5-2 8-3a7 7 0 012 0 24 24 0 009 2 9 9 0 011 0c2 1 5 0 5 3a3 3 0 01-2 1h-4 4a14 14 0 007-2h10l5 1z" fill="none" stroke="#000" stroke-miterlimit="10" stroke-width=".3" class="mZKRXrhZ_13"></path>
  <path d="M128 217l3-1a7 7 0 000 1v2a4 4 0 001-1 5 5 0 016-2l1 1a2 2 0 001 1c2-3 3-1 5 0a16 16 0 012 1c0 1 1 2-1 2-3 1-4 3-6 5v2c1 2 1 2-1 3-2 3-4 3-7 2-5-3-5-3-7 2a1 1 0 01-2 1c-1-3-1-4-4-2h-1c-2-2-2-2-5-1a2 2 0 010-2 4 4 0 012-1c6-3 12-5 13-13zM173 179l1 2h-1c-5 1-5 1-2 4a3 3 0 011 3l-1 1-1-1a7 7 0 01-2 0c-3 0-4 4-7 3h-1a3 3 0 011 0c1 1 2 1 1 2a2 2 0 01-2 0h-6l1-2c1-2 0-4-2-4l-6 1-1-1a1 1 0 011-1 10 10 0 012-1l1-1h-1l-3-1-2-2 3-6c4-2 7-2 10 2 0 3 0 5 5 4l9-3a2 2 0 012 1z" fill="none" stroke="#000" stroke-miterlimit="10" stroke-width=".3" class="mZKRXrhZ_14"></path>
  <path d="M144 181l2 2c0 2-1 3-3 3a23 23 0 01-4-1l-1-2c1-2 1-2-2-2l-3-1a15 15 0 00-5-2 52 52 0 01-7-2c-3-2-6-2-6-6a5 5 0 014-1c4 4 9 2 13 3 5 2 10 4 12 9zM133 186c1 1 1 4 3 3l1 2a8 8 0 01-2 1 62 62 0 01-10 1h-5c-4 2-7 0-10-2-3-1-1-3 1-4l5-1a5 5 0 012 0c3 2 6 2 9 2s4-3 6-2z" fill="none" stroke="#000" stroke-miterlimit="10" stroke-width=".3" class="mZKRXrhZ_15"></path>
  <path d="M125 192l7-1 3 1 1 1a19 19 0 003 0c0 5-2 7-7 8a2 2 0 01-2-1c-1-5-3-5-7-4a6 6 0 01-1 0l-2-2c2-1 3-3 5-2z" fill="none" stroke="#000" stroke-miterlimit="10" stroke-width=".3" class="mZKRXrhZ_16"></path>
  <path d="M131 201a18 18 0 002 0l3-1v-4l2-1c2 0 1-1 1-2 2 1 0 3 2 5-2 1-2 3-5 3-1 0-2 0-2 2v1c-4 0-3 3-3 4a3 3 0 000 1 10 10 0 00-2 1l-2-1-4-2c1-4 5-4 7-6zM160 193h2c3-1 4-4 6-6 1 0 2-1 2 1l1 5-1 2c-2-1-4 2-6 0l-4 4-1 1a2 2 0 01-1-1c0-2 0-3 2-4 2 0 0-1 0-2zM133 186l-1 1c-1 2-2 2-4 2-1-1-4 0-4-3 0-2 2-3 4-5l5-2a8 8 0 002 0l1 2c0 1 1 2-1 2s-2 1-1 2l-1 1zM158 212a13 13 0 000 2c0 2 0 3-1 2a6 6 0 00-4-1c-1-2-2-1-3 0l-2-1v-1c1-2 2-2 5-2a4 4 0 002 1 2 2 0 001-1l-1-1a1 1 0 000-1l-3-1 4-1 1 1 1 4zM171 206l-1 1c-2-2-4-1-7 0 0-3 0-3 2-3h5c2 0 1 1 1 2zM187 79a5 5 0 011 4c2 5 1 11 1 16v14c0 7-1 13-3 19h-5l-3 1h-4l-2 1a74 74 0 01-11-8c0-2 2-3 4-2 4 0 4-2 4-5 2-2 3-4 5 0l1 1c2 0 4 2 5 1s0-3-2-4c-2-2-5-4 0-6-2-3-1-7-5-8-2-1-4-1-4-3a9 9 0 000-4c0-6 3-12 2-17v-1c-1-3 4-2 3-5 0-1-3-1-3-4a15 15 0 00-6-11c-2-1-5 0-5 2-1 6-3 4-5 1 1-5 0-8-5-11-1-1-2-3-1-5s2-1 3-1l1-2c5-1 9 3 13 5a24 24 0 013 2c1 4 5 5 7 7l4 5a5 5 0 010 2c2 2 2 4 2 6l1 2c3 2 4 5 4 8zM173 179l-2-1c-3 1-6 3-8 0s-1-7 2-10a18 18 0 011-1c4-2 5-4 2-8-2-2-3-4 0-6a2 2 0 001-3c-2-4 1-9 0-14a2 2 0 011 0c2 0 4 1 5 3h2v1a4 4 0 000 1 3 3 0 013 1 14 14 0 001 2h-2v4a33 33 0 002 3l2 1-1 2c0 2 0 2-1 1h-2a4 4 0 01-2 2c-1 0-2 0-2 2l2 2c3 0 2 1 2 2 0 2-1 2-2 2h-1a3 3 0 001 1h2a5 5 0 012 2 3 3 0 01-1 4l-3 3h-2s-3 1-1 2a15 15 0 01-1 2z" fill="none" stroke="#000" stroke-miterlimit="10" stroke-width=".3" class="mZKRXrhZ_17"></path>
  <path d="M161 126a35 35 0 017 4l1 1c2-1 2 2 3 3v2a1 1 0 01-2 0l-6-3a10 10 0 01-1 5l-1 3c-1 1-2 2-3 1l-2-2c-3-4-5-9-10-11a2 2 0 010-2 3 3 0 011-1 14 14 0 004-2 4 4 0 013 0c2 2 4 1 6 2zM188 157v-13l2-1a16 16 0 012 2l1 1c-2 4 0 8-1 13a3 3 0 01-2 2c-2-1-2-2-2-4z" fill="none" stroke="#000" stroke-miterlimit="10" stroke-width=".3" class="mZKRXrhZ_18"></path>
  <path d="M170 136h2l5-1 1 1-2 2a7 7 0 01-1 1h-1l-4-3zM187 181v4c-1 0-2 1-3-1a4 4 0 011-4l2 1zM15 95h1v-7c0-2 2-4 1-6a8 8 0 001-1l1-1v2l1 4c0-2 2 0 3-1a7 7 0 011-1c4 1 4 4 3 7l-2 10-2 4c-1 5 0 9 1 14 2 3 0 6-1 8a5 5 0 01-4 1c-2-1-2-3-3-5v-1-1c1-5-1-11 2-16-3-1-3-3-2-5l-1-5zM51 55h-5c-1 0-2 0-2 2a2 2 0 01-2 2l-2 1v4s-2 0-2 2-3 2-1 3c1 1-2 3 0 4v1l-3 3a1 1 0 01-1 0 6 6 0 00-1-2 12 12 0 00-2-2l-3-2h4a6 6 0 004-4 88 88 0 002-10c1-7 3-9 8-8l-2 3v1a2 2 0 001 1l4-1h2c2 0 1 1 1 2z" fill="none" stroke="#000" stroke-miterlimit="10" stroke-width=".3" class="mZKRXrhZ_19"></path>
  <path d="M33 77h1c0 1 1 3-1 3l-1 1c2 3 1 3-1 4l-1 1 1 1c2 0 2 1 2 2-1 2-3 3-2 7 0 2-3 6-7 5a5 5 0 00-1-1 6 6 0 00-1-1 3 3 0 011 0h2a6 6 0 000-3c0-1-1-2 1-2v-2c-1-1-1-1 1-1 0 0 0 0 0 0v-3c1-1 0-2-1-2l-2-1v-1c1-2 2-1 3-1s2-1 1-2c-1 0 0-2-2-2l-1-4 1 1zM45 49h-2a2 2 0 00-3 2l-2 6h-1-2c-1 1-1 2-2 0a17 17 0 00-2-4c2-1 0-2 0-3l2-1c1-1 2 3 2 0l2-1 8 1zM19 80v-1c-2-3 0-4 1-6v6l-1 1zM89 238c0 2 2 0 3 1s2 1 4 0a2 2 0 013 1h3a3 3 0 013 0c3 2 7 1 10 1 2 2 5 0 7 2-1 3-4 2-7 3a6 6 0 01-1-1c-3-2-3-2-6-1h-1-3c-1 2-2 2-4 1-2 0-4 0-5-2a1 1 0 00-2 1s0 2-1 0a4 4 0 00-3-1c-3 0-5-2-8-1l-1-2c1-1 0-2-1-2-3 0-4 0-4-3l-2-1v-1c2-2 3-2 5-1a11 11 0 003 2c3 2 5 4 8 4z" fill="none" stroke="#000" stroke-miterlimit="10" stroke-width=".3" class="mZKRXrhZ_20"></path>
  <path d="M115 246c1-2 3-2 5-2 1 0 2 1 2-1s1-3 3-3a14 14 0 013 0 4 4 0 013 1 2 2 0 01-2 3c-1 0-2-1-3 1s-4 1-5 2c-3 2-4 0-6-1zM169 49c-2 0-4 1-5-2a12 12 0 01-5-3c-2 1-3-1-5-2a3 3 0 00-1 0c-2 0-5 0-6-3a1 1 0 011 0l10 1 1 1a13 13 0 004 3c1 1 1 0 1-1a5 5 0 011-1l2 1c-1 3 2 4 2 6z" fill="none" stroke="#000" stroke-miterlimit="10" stroke-width=".3" class="mZKRXrhZ_21"></path>
  <path d="M148 39h-1q-6 4-8-3a4 4 0 011-1h2c1 2 3 2 5 2zM128 241h-3l-2-4-1-1h1l1-1v-6l2-1 7 4c2 2 3 1 6-1l-2 4c-1 2-4 2-5 5a1 1 0 01-2 0 2 2 0 00-2 1z" fill="none" stroke="#000" stroke-miterlimit="10" stroke-width=".3" class="mZKRXrhZ_22"></path>
  <path d="M128 241v-8l1-1 1 1v7a22 22 0 002-3c1-2 4-1 5-2h3c-1 2-1 3-4 3l-2 1a1 1 0 00-1 1l-2 1zM27 179c0-2 1-5-1-7l1-1a7 7 0 002 0l-1-2a3 3 0 00-3-1h-5a1 1 0 01-1 0 3 3 0 01-1-1 3 3 0 011-2c2-1 5 0 7-2 1-2 3-1 4 1l4 4h2c0-2 2-2 2-3h-1c-3 1-5-1-4-3 0-4-1-7-4-9a3 3 0 01-1-3c2-3 4-3 7 0a24 24 0 012 6l1 2v-1a14 14 0 010-10l-1-1c-2-2-3-3-3-6 1-2 1-4 3-4 1 1 1 4 5 2 2-2 3 2 4 4a5 5 0 012 3c0 3 2 5 5 5l6-2a3 3 0 012 3 6 6 0 01-3 3l-5 4c-1 2-2 2-3 2a5 5 0 01-3 0h4l4-2 5 1c1 4 4 5 7 7-3 5-3 5-8 3-3-2 0 3-2 3-3 2-6 5-9 5-4-1-5 0-4 4a4 4 0 010 3c-2 3 0 6 0 9-2 5-2 5-6 2l-1-1v2c-1 1 1 4-2 4-2 0-2-3-2-4 0-4-2-8 0-9 3-2 2-5 3-7 1-3-1-3-3-2s-4 3-6 1z" fill="none" stroke="#000" stroke-miterlimit="10" stroke-width=".3" class="mZKRXrhZ_23"></path>
  <path d="M27 179c3 0 5 0 6-3h5v1c-2 1 2 4-1 4v2c1 0 2 0 0 2s0 2 0 3v1l-2-1v-1a3 3 0 000-1v-1h-1c1 3-2 4 0 7v5a7 7 0 001 2l1 1v-1c-2-2-1-5-1-7l2-1c2 1 3 2 2 4l1 2 2-1c1-1-1-3 1-3 3 1 4 4 6 7a7 7 0 01-3 3l-4-1c-1-2-2-3-4-2l-3 3-3 2c-2 0 0-2-1-3 0-2-2-2-4-1a15 15 0 01-1 0 13 13 0 01-2 0 8 8 0 011-1 48 48 0 003-6c1-1 2-2 0-3-1-1 0-3-2-4v-1h1c2 1 4 0 5-2l1-1-1-1c-2 0-4-1-5 1h-2a8 8 0 011-2 17 17 0 011-2zM10 176c-1-3-1-4-4-2a9 9 0 01-1 1c0-1-1-3 2-3 0-2 2-3 1-5 2 0 3-1 4-3 2-3 3-2 4 1s0 5-1 8c2 2 0 6 2 9 1 0 3-1 3 1l-6 1c-1 0-2 0-2-2s0-4-2-6z" fill="none" stroke="#000" stroke-miterlimit="10" stroke-width=".3" class="mZKRXrhZ_24"></path>
  <path d="M17 182a10 10 0 00-1 1l-2-1v-2l2-2c1-1 1-2-1-2a4 4 0 01-3-1l1-2c3-1 3-5 6-5h1c-1 2-3 3-1 6l-1 2 2 1c-1 1 0 4-3 5a4 4 0 000 0zM46 203a8 8 0 000-1c0-2 1-2 2-2 3-1 5 3 8 2 2-1 2-2 2-3 0-2 0-3 2-3 3-1 1-4 2-6l1-3c2-1 3 0 3 2l5 1c3-1 7-2 5 4a2 2 0 001 2c3 3 1 4-2 4h-1l-3-2v5a22 22 0 011 2c2 4-4 5-2 8 2 2 5 3 5 6a1 1 0 01-1 1l1 4 1 1c2 0 1-1 0-1l1-1a6 6 0 012 0c0 4 3 4 4 7h0c-2 1-3 3-5 3-1-1-2-2-3 0h-4l-1-1-5-5h-1v-2h3l-2-1v-4a2 2 0 00-1-1 5 5 0 00-2 0h-2l-1-3a2 2 0 00-2-1 10 10 0 00-3 2c-1 2-1 0-2 0a4 4 0 01-1-1c0-6-4-7-9-7 1-1-2-1 0-2 1-1 2-3 3-2a17 17 0 001-2z" fill="none" stroke="#000" stroke-miterlimit="10" stroke-width=".3" class="mZKRXrhZ_25"></path>
  <path d="M42 209a15 15 0 012-2 2 2 0 012 0c0 3 2 2 3 2 2-1 2-1 2 1v3l1 1c3 1 0 2 0 3a7 7 0 00-4 1l-2-1a4 4 0 000-3c-1 0-1-2-2 0l-3-1v-2l1-2zM15 165a1 1 0 000-1l-1-1-1 1c0 1 1 3-1 3-1 0 0 3-2 2l-2-2c-1-2 1-5-2-6-3-2 0-5-1-8l-1-1 1-2c6-6 6-7 3-12l-1-7 1-1a4 4 0 013-1c4 3 4 6 3 10 0 1-1 2 2 2 3-1 3 2 3 5 0 1 0 0 0 0-5 3-3 7-3 11 0 3 3 4 4 5a3 3 0 01-1 3v2l-4-2z" fill="none" stroke="#000" stroke-miterlimit="10" stroke-width=".3" class="mZKRXrhZ_26"></path>
  <path d="M11 130H8l2-2c0-2 1-3 3-3h3v-2a3 3 0 012 3l1 1c1 3 0 4-3 3h-5zM16 100a19 19 0 010 2c0 1 0 2 2 2l1 1h-1a2 2 0 00-1 2c1 3-1 7 1 10-1 1 0 3-2 4l-1-4c0-2 2-2 1-4s0-2 0-3c0-2 1-4-1-5a3 3 0 011-5zM187 79a12 12 0 01-2-2 15 15 0 01-1-3l-1-3a13 13 0 002-1 14 14 0 002-1l1 1 1-1v7a2 2 0 01-2 3zM182 69c-1-1-3-1-1-3l-1-3c1 1 2-3 2 0l2 4c2 1 0 1-1 1a7 7 0 01-1 1zM5 153l1 6a2 2 0 000 1 9 9 0 001 0 2 2 0 01-1 3c-4-3-4-6-1-10z" fill="none" stroke="#000" stroke-miterlimit="10" stroke-width=".3" class="mZKRXrhZ_27"></path>
  <path d="M6 163l1-3c1 1 3 2 1 5v2c-2-1-2-2-2-4zM65 227c2 0 3 1 4 3l1 2h-3a2 2 0 01-2 0v-2a18 18 0 000-3zM8 138c3 0 3 0 3 3a17 17 0 010 3 16 16 0 01-1 4l-3 1-2 1c0-2 1-4-1-5l2-2v-2a21 21 0 012-3zM105 4H93V3h11l1 1zM186 132v-6l1-4c2-1-1-3 1-4v-5c1-1 2-2 3-1v2l-1 1v10l-1 1-1 6h-2z" fill="none" stroke="#000" stroke-miterlimit="10" stroke-width=".3" class="mZKRXrhZ_28"></path>
  <path d="M191 112l-3 1v-3l-1-2-2-4a2 2 0 011-1c1 0 2 2 2 0v-7-3h-3a1 1 0 01-1-1 1 1 0 011-1c3-1 3-1 3-5v-3l2 1v6l1 1 1 1v3l-1 1v12zM92 35l2-1h4a7 7 0 013-1 7 7 0 016 2c3 1 5 2 2 5a4 4 0 000 2c-1 5-3 7-7 8-2 0-3-1-3 2 0 2-2 2-4 2h-3a22 22 0 013 2l2 1c1 0 3 1 3 3s-2 2-4 2c-2-1-3-2-5 1h-5l-1 1c-2 0-2-1-2-2 1-5 1-10 4-15 0-2 3-2 4-3 3-1 0-2 0-3a10 10 0 011-6zM24 101c2 0 2-1 3-2a13 13 0 012-2l2-1-2-1h-2a9 9 0 001-2l2-3 3-1c1 0 3 0 2 1v3c2 0 2 1 2 2a2 2 0 003 1h1v-2l-2-2a3 3 0 01-1-1h2a10 10 0 012 2v1a5 5 0 001-2l2-1a5 5 0 012 2c1 1 0 2-1 3h-1c-2 0-2 0-1 2a5 5 0 010 2 4 4 0 01-1-1 8 8 0 01-1-1h-2a7 7 0 01-4-1v-2h-1a8 8 0 000 2c0 2 3 1 3 4 2-1 2 2 4 0l1 1c1 2 0 4-2 4l-3-1h-3v2c0 2 1 1 2 1l5 1c3 1 2 2 0 3h-9l-3 3c-2 0-1-2-2-4l-1-3c-1-2-4-2-6-4l1-1c2 0 2-1 2-2z" fill="none" stroke="#000" stroke-miterlimit="10" stroke-width=".3" class="mZKRXrhZ_29"></path>
  <path d="M92 35c0 1 2 3-1 4l1 2c3 1 2 4 3 5a22 22 0 01-2 2l-1-1v-1-2a7 7 0 00-1 1l-3 1v2c1 1 0 2-1 3-2 0-2 1-2 3 0 3 1 6-1 9l1 1-1 1h-3a4 4 0 01-2 0c-5 0-5 0-9 2a2 2 0 01-3-1l-1-4h1c2 1 4-2 6 0h2l-1-2-1-1 1-1c2 2 2 0 3-1a5 5 0 001-1l2-1a15 15 0 001 2l2-1c1-3 2-5 0-8l1-2c2 0 3 0 2-2a4 4 0 01-1-1v-3c-2-1-2 1-2 2a12 12 0 01-4 0 14 14 0 01-1-3c3 1 1-2 3-2s1-1 1-2c2 0 4 1 6-1h1l3 1zM61 105l-2-4c0-1-1-2-2-1 0 3-3 2-4 3l-2 2v2c0 1 2 2 1 3l-3-2c0-1 2-1 0-2s-2-1-1-4l2-3 3-1a3 3 0 002-3c2-2 5-1 8-3a18 18 0 014-1 17 17 0 017 2c1 3-3 3-3 4-1 1-3 1-2 3s3 0 4 1h3a30 30 0 016 0c2 1 4 0 5 3a7 7 0 01-4 5 5 5 0 01-2 0l-8-2c-4-2-8-3-12-2zM37 136l-1 2-1 2c-5-2-9-6-12-11a2 2 0 010-2 13 13 0 010-2 8 8 0 010-3c3 0 0-2 0-3l1-1a9 9 0 012-1c2 0 4-2 5 0s0 3-1 5v2l1-1c1-2 1-4 4-3h0c1 3 4 2 6 2l2-1c0 2 3 2 2 4l1 2a1 1 0 010 1 3 3 0 01-1 1c-6-1-6-1-7 5a3 3 0 01-1 2zM60 120v-1c2-2 4-4 8-2l5 1a2 2 0 011 1c0 2-3 4-2 5l2 7v3a5 5 0 01-3 2c-5 1-9-2-14-2-4-1-5-7-2-10l5-4z" fill="none" stroke="#000" stroke-miterlimit="10" stroke-width=".3" class="mZKRXrhZ_30"></path>
  <path d="M91 63a17 17 0 010-2 3 3 0 011-2l1-1a4 4 0 012 2s-1 2 1 2 3 0 4 2a2 2 0 010 1c-4 2-1 2 0 3a4 4 0 010 3s0 0 0 0c-6 0-10 6-15 5-3 0-5 2-7 1s-3-1-1-3l4-2 1-1c0-2-1 0-1 0h-2a10 10 0 01-1-4h1a7 7 0 012 1l4-1a14 14 0 003-2c1-2 3 0 3-2zM60 120c0 1 1 3-2 3l-2 2c0 1-3 2-1 3v5c0 1 3-1 4 1 2 1 3 0 4-1 1-2 2-1 2 1l3 1a27 27 0 013 0c1 1 0 2-1 3-3 2-7 2-10 3-2 0-3-2-4-4l-7-4c-1-2-3-3-3-5v-1l3-1 3-5c2 0 4 1 5-2l3 1zM32 112l2-3a1 1 0 011 0c0 1 0 2 2 2h6l-1-2c0-1 0-2 2-2l3 2c2 1 1 2 0 3v4a3 3 0 01-3 1 6 6 0 01-2 0h-1c-1 3-1 3-4 3h-2c-1-2 0-6-3-8zM63 93a4 4 0 01-4 2h-4v-1h-2a3 3 0 01-1-3c1-2 1-2-1-3a4 4 0 01-1-1v-1a10 10 0 002-2c1-2 4-3 6-1l2-1 3-1c0 2 2 1 2 3-1 2-3 2-5 3l-2 1c-1 2 1 1 2 2 1 0 3 1 3 3z" fill="none" stroke="#000" stroke-miterlimit="10" stroke-width=".3" class="mZKRXrhZ_31"></path>
  <path d="M77 74a1 1 0 010 0l-1 2h2l1 10c-4 2-7 0-10-2a6 6 0 01-1 0 24 24 0 01-1-4c0-1 0-2 2-2v-2c1 0 2-2 3 0l1-1 4-1zM63 93a32 32 0 01-3-2h-2c-2 1-2-1-3-2s1-3 2-3l8-2c1 2 2 1 3 1a4 4 0 011 6l-2 1a5 5 0 01-4 1zM61 105h2c2-3 4-2 6-2l1 1c0 4 3 2 4 2a1 1 0 01-1 2c-6 0-12 4-18 5a4 4 0 01-4-1l1-1c2 0 3 0 2-2 0-2 0-2 2-2l3-1a6 6 0 012-1z" fill="none" stroke="#000" stroke-miterlimit="10" stroke-width=".3" class="mZKRXrhZ_32"></path>
  <path d="M69 89a5 5 0 01-1-4l1-1c1 0 1-2 2 0 2 2 5 2 7 2 3-2 5 0 8 0a17 17 0 014 2c2 1 3 2 1 4h-3c-1-3-2-2-4-2a60 60 0 01-15-1zM73 118h-1c-2 2-4 1-6 0-1-1-2-2-3 0 0 2-2 1-3 1l-1-3v-1l5-5a2 2 0 011 1c1 3 3 3 5 2a17 17 0 016 2 2 2 0 010 1 4 4 0 01-3 2zM62 55h-1a6 6 0 01-2 1c-1 0-2 0-2 2l-2 1c-1-1-1-2-3-2a2 2 0 01-1-1c0-2 1-1 2-1l1-1c0-2 2-2 3-2a7 7 0 015 2 3 3 0 010 1zM52 121c1 2-1 4-3 5a12 12 0 00-1-2v-1a5 5 0 002-5l2-2c1 1 2 2 1 3a8 8 0 00-1 2zM51 112h4a5 5 0 014 4 30 30 0 01-5 0 6 6 0 01-3-2v-2zM64 50l2 1a14 14 0 011 1 7 7 0 01-1 2l-2-1a7 7 0 01-2-1v-2h2zM44 117c1-2 2-1 3-1v4l-1 1s-2 0-1-1c0-1-2-2-1-3zM144 34a3 3 0 01-4-2c-1-1-1-2 1-3s2-3 5-2l1 1v1c0 1-2 1-1 2 1 2 0 3-2 3zM140 35v1c-1 1-3 3-5 1l-1-2c2-2 2-2 4 0h2z" fill="none" stroke="#000" stroke-miterlimit="10" stroke-width=".3" class="mZKRXrhZ_33"></path>
  <path d="M135 37l5-1c0 3 0 3 3 3h1c1 2 2 0 3 0l2 1a4 4 0 014 2c1 2 3 3 2 5a2 2 0 01-1 1 1 1 0 01-1 0 12 12 0 00-1-2c-1-1-1-3-2-2l-1 3 2 1a2 2 0 011 1c0 2 2 2 3 2 1 2 3 3 1 6l-1 4a2 2 0 001 2c2 1 4 2 2 4a4 4 0 01-5 2l-9-5c-1-2 0-3 1-4 1-2 1-4-1-5h-4a11 11 0 01-4 3c-3 0-5 1-5-3-1-3-4-4-3-8 0-1-2-3-3-2-3 1-7-1-8 4-1 2-3 0-4 0l-2-1v2c1 5-2 7-4 11a35 35 0 00-3 3h-4c0-2-1-1-2-1s-2 0-2-1c0 0 0 0 0 0 1-1 3 0 4-2a16 16 0 01-4-2c-1-1-3 0-3-3h-2a3 3 0 01-1 0 23 23 0 010-2h1a21 21 0 005 0 23 23 0 003 0 2 2 0 00-2-2 1 1 0 01-1-1l2-2c1 1 3-1 5 1 0 0 0 0 0 0 1 0 5-4 5-6a9 9 0 00-1-2c-1-1-1-2 1-2h1l1-2-3-2c0-2 2-1 2-1a7 7 0 007 0h7a2 2 0 011 0c4 3 4 3 7 3a5 5 0 013 1l1-1zM115 231h-2c-1 2-3 2-5 2-3 1-6 1-5-3 0-1-1-3-3-3-2 1-3 0-4-2s1-3 2-4l1-1a3 3 0 014 1c2 5 6 2 8 2 2 1 0-1 0-1-4-4-8-4-13-2-3 0-4-1-3-4l1-1a18 18 0 013 0h5l1 1h7c2 0 3 1 5 3h3c2 4-1 7-2 10 0 2-2 1-3 2zM74 220a7 7 0 00-2-5c-1-1-2-2-3 0a2 2 0 01-1-1 2 2 0 01-1-2l3-3c0-2 2-1 2-2a8 8 0 00-2-3v-4l-1-2-1-2a2 2 0 011-2l1 1a12 12 0 002 4h2a1 1 0 011 1c-2 5 3 4 5 5 2 2 5 0 6 2 0 2 3 1 2 3v1a1 1 0 01-2 0l-1-2a2 2 0 00-3 1l-1 2h2c3-1 6 1 9-1l2 2-1 1c-3 0-7 2-11 0-1 2-3 1-4 1h-1l1 1a4 4 0 011 2l-2 1-2-1-1 2z" fill="none" stroke="#000" stroke-miterlimit="10" stroke-width=".3" class="mZKRXrhZ_34"></path>
  <path d="M74 200v-1a17 17 0 003 0 6 6 0 001-1l-1-1-3-1v-2l1-1a11 11 0 001-3h-2a3 3 0 01-3 1c-1-2 1-3 2-4a3 3 0 012-1 11 11 0 013 1c1 2 3 1 5 2a3 3 0 011 2c-1 7-1 7 5 9l5 4a17 17 0 01-1 2h-3l-4 1c-2 0-4-1-5 1l-1-2c-2-2-5-3-6-6zM120 194l2 1c0 2-1 3-3 3-3 0-7 1-11-1a2 2 0 00-2 1l1 3c2 1 6 0 8 2 1 1 3 2 2 3l-4 2-7-1h-1c-4 0-6-4-8-7 0-2-1-5 1-6s5-3 8-1c2 1 2-1 3-1 4-1 7 1 11 2zM99 220v4a13 13 0 00-1-2 1 1 0 00-1 0l-1 1a17 17 0 001 3 2 2 0 001 1 12 12 0 002 0c3 0 4 1 3 4a3 3 0 001 2c1-1 3 1 3-2 0 0 0 0 0 0 2 2 4-1 6 0v2c0 2-2 0-3 1l-2 2a3 3 0 00-2 1h-5c-1 0-1 2-2 0l1-2c1-1 2-2 0-2l-1-1a1 1 0 011-1c2 0 2 0 2-2l-1-1c-1 0-3-1-5 1-1 2-2-1-4 0s-1-2-1-2l-2-4-1-1c2 0 1-3 4-3l3-3c0 3 0 3 4 3a1 1 0 010 1s0 0 0 0zM115 231l1-1c3-1 3-1 1-3v-2l2-1a1 1 0 001-1v-4l3-3a17 17 0 004 1h1v7l-1 1c-1 1-1 3-3 1l-4 3c-1 2-3 2-5 2z" fill="none" stroke="#000" stroke-miterlimit="10" stroke-width=".3" class="mZKRXrhZ_35"></path>
  <path d="M94 204l-1-1c-1 0-2 1-2-1l-1-1a13 13 0 01-4-1c-4-2-4-1-4-4l1-5 13 7c1 2 1 5-1 7z" fill="none" stroke="#000" stroke-miterlimit="10" stroke-width=".3" class="mZKRXrhZ_36"></path>
  <path d="M95 205v-8c2 0 3 1 3 3v1h2l1-1c1 1 2 1 1 3a6 6 0 00-1 1l1 2c1 0 3-1 3 1a17 17 0 01-10-2zM123 237h1c2 0 3 1 2 2a8 8 0 01-1 2l-2 1-1 1h-6l-1-2 6-1-1-1a5 5 0 00-1 0l1-1c1 0 3 1 3-1zM116 209l-2 2c-3 0-5 1-7-1l-3 1a2 2 0 01-3-1l2-2h1c2 2 5 1 7 1a4 4 0 015 0zM89 238h-4c-1 0-2 0-2-2 0-1-3 1-3-1-2-3 2-4 3-5l2 2v1l-2 1 2 1c0 2 3 1 4 3z" fill="none" stroke="#000" stroke-miterlimit="10" stroke-width=".3" class="mZKRXrhZ_37"></path>
  <path d="M116 209h-5c0-2-1-1-2-1s-3 1-3-1c2 0 3 1 5-1a17 17 0 011 1c4 2 7-2 11 0 2 0 4 0 4 2a11 11 0 00-3-1l-2 1h-6zM104 215h-1c-2 2-3 0-4 0 0-3 0-3 2-3h3v2a9 9 0 000 1zM144 181c-1-2-4-2-4-5-2 2-2 0-3-1l-4-2c-3-3 2-3 2-4 0-2-2-3-3-5a7 7 0 00-2-5c-1-1-3-2-2-4 5-2 6 1 8 4 1 3 3 5 6 6 1 1 3 2 2 4a9 9 0 010 3c-1 4 1 3 3 3v3c0 3 0 3-3 3z" fill="none" stroke="#000" stroke-miterlimit="10" stroke-width=".3" class="mZKRXrhZ_38"></path>
  <path d="M147 175a35 35 0 00-4 2h-1l-1-1c4-1 1-5 2-7 2-2 5-1 6-4 2-2 5 0 6 1l3 3c2 1 5 6 4 8-1 3-3 3-6 0-1-1-1-3-3-2a2 2 0 01-2 0c-2-2-3-1-4 0z" fill="none" stroke="#000" stroke-miterlimit="10" stroke-width=".3" class="mZKRXrhZ_39"></path>
  <path d="M156 177l2 1h2a2 2 0 011-1v-1h-1a2 2 0 01-2-2c0-2 2-1 2-1a1 1 0 001-1 1 1 0 00-1-1c-1-1-2 1-3-1 1-3 4-3 6-5 2 0 3 0 4 2l-3 5v3a1 1 0 010 1v2c2 0 4 1 6-1a8 8 0 011 1c0 1 1 2-1 2h-3c-2 3-4 2-6 1h-1c0 3-3 2-4 2l-1-2c2-1 1-2 1-4zM168 187c0 3-2 5-4 7l-2-1c0-2-2-1-3-1l-1-1h1a37 37 0 014-2c2 0 2-1 2-2l1-2a9 9 0 011 1 4 4 0 011 1zM128 182l-1 1a10 10 0 00-3 3c-2 2-4 2-6 1h-2c-4 1-8-2-12-2a6 6 0 01-2 0c-2-1-3-3-6-3h-1a9 9 0 00-2-1l-3-1c-1-2 1-3 2-3 2-1 5-1 6-3a15 15 0 015-1c2 1 5-1 7 1v1s0 0 0 0a18 18 0 009 0h2l7 2a4 4 0 010 5zM133 164a5 5 0 003 3l1 2a32 32 0 00-8 2c-3 2-7 0-10-1h-4c-2 3-5 2-7 1l-8-1a4 4 0 01-2-1c-1-3 1-4 3-5a6 6 0 012-1c5 0 11 0 16-2 3-1 8-2 8 4h1c2-1 3-2 5-1z" fill="none" stroke="#000" stroke-miterlimit="10" stroke-width=".3" class="mZKRXrhZ_40"></path>
  <path d="M100 169h2a3 3 0 013 0 11 11 0 003 1h7c1 3 4 3 6 5l-2 1c-3-1-6 1-9-1l-1-1-3 1a4 4 0 00-3-1l-2-2c-3 0-2-1-1-3zM119 170l7 1a3 3 0 004-1c2-3 5-2 7-1 0 1 1 2-1 2a29 29 0 01-3 0c-3 0 1 1 0 2a60 60 0 00-8 0c-3 0-4-1-6-3zM128 182v-5c2-1 3 1 5 2 0 3 0 3-2 3h-3zM103 184c2 0 3 1 5-1l1 1c0 2 1 2 3 2a6 6 0 014 1c0 1 0 3-2 1a3 3 0 00-4 1 10 10 0 00-1 1 5 5 0 002 1c2 0 4-1 5 2l3-1c2-1 3-2 5-1l1 1h-2c0 3-2 2-3 2-4 0-8-2-12-1a4 4 0 01-3-2c1-3-3-4-2-7z" fill="none" stroke="#000" stroke-miterlimit="10" stroke-width=".3" class="mZKRXrhZ_41"></path>
  <path d="M118 187c2-2 4-1 6-1a3 3 0 003 2l1 1h-7a2 2 0 01-3-2zM123 195a11 11 0 002 0c4-2 6 0 6 3v3c-2 2-5 1-7 0-2-2 1-4-1-6z" fill="none" stroke="#000" stroke-miterlimit="10" stroke-width=".3" class="mZKRXrhZ_42"></path>
  <path d="M123 195c1 2 2 1 3 1a1 1 0 011 2 19 19 0 01-3 1 10 10 0 00-1 1c0 2-1 2-2 2a5 5 0 01-2-5 2 2 0 003-2z" fill="none" stroke="#000" stroke-miterlimit="10" stroke-width=".3" class="mZKRXrhZ_43"></path>
  <path d="M120 201c1 0 3 1 3-1l8 1a15 15 0 01-1 2l-1 1c-2-2-3-1-3 1l-1 1-2 1a13 13 0 01-3 1 61 61 0 01-7 0l-1-1a11 11 0 003 0s2 1 2-1-2-1-2-1l-1-2c2-2 4-2 6-2zM144 64h3a14 14 0 005 4c1 0 2 2 3 1a18 18 0 003-3l-1-2a15 15 0 01-3-1l-1-1 2-1a29 29 0 003 2 1 1 0 001 0v-2h-1l-1-1 1-1c1 0 2 0 2-2l1-1a3 3 0 003 0l2 2 3 4c1 1 2 2 1 3l1 2v-1a4 4 0 012-1l1 2-1 1c1 2-3 1-2 3h4l1 2c1 3 1 3-2 3 0 0 0 0 0 0-3 0-3 0-2 2a2 2 0 010 3s-1 2 1 2 1 1 0 1l-2 4v6l-2 2c-3 0-3-3-5-4-4-2-7-2-11-2-1-1-3-1-3-3a4 4 0 012-2h2c0-1 0-3-2-3h-5c-1-2-3-3-3-5l4-1h-5a4 4 0 01-6-1c-2-3-6-2-6-7 1-3 6 0 8-3l5-1zM173 102h3l1 2c-1 3 1 4 2 6 1 1 2 2 0 2l-3 1 2 2 4 4-2 4v1a5 5 0 00-1-1c-1-1-1-3-3-1-1 1-2-1-3-2v-2a1 1 0 00-1-1l-1 1-2 1c-3 1-3-2-4-3-1-3-4-4-7-5-2-3-6-1-8-5l1-1c-1-6 3-5 6-6 4 0 8 1 11 3 2 1 3 2 5 0z" fill="none" stroke="#000" stroke-miterlimit="10" stroke-width=".3" class="mZKRXrhZ_44"></path>
  <path d="M153 89h6a3 3 0 012 1h4l2 4 2 2 1 1a10 10 0 011 2h-2c-3 2-5 0-8 0a13 13 0 01-4-1 3 3 0 01-1-2c0-2 1-3-1-4h-5c-2 0-4 0-3-2a6 6 0 016-1zM166 115c2 0 1 1 1 2 0 2 1 2 2 2l1 2c2 2 1 2-1 3l-1 1a4 4 0 01-1 1c-1-3-3-1-5-1l-1 1a8 8 0 00-2 0c-2 1-2 1-4-1 2-4 5-2 8-3 3-2 0-6 3-7z" fill="none" stroke="#000" stroke-miterlimit="10" stroke-width=".3" class="mZKRXrhZ_45"></path>
  <path d="M161 97c2 2 5 2 8 2l1 2a13 13 0 013 1l-1 3h-1l-4-2c-1-2-4 0-4-3a11 11 0 00-3 1c-1 0-2 1-3-1v-1l4-2zM179 94c0 1-2 3-4 3l-1-2c-3-1-2-3-1-4l1-2 2-1 1 2c-2 2-1 3 1 3l1 1zM167 167a5 5 0 00-4-1c-3-5 0-9 0-14s-2-7-7-7a3 3 0 01-2 0c-1-1-2-3-4-3s-3-2-2-4c3-1 1-3 0-4l-1-4a1 1 0 010-1c2 1 3-2 4-1l1 4a33 33 0 002 4h1c3 0 4 0 3 4a6 6 0 000 2l2-1a14 14 0 002-4c0-1 0-2 2-2l-1-1c0-2-4 0-3-2s3 1 4-1c2 1 5 1 6 4v1l-1 2c3 2 3 4 0 6a1 1 0 000 2c2 2 0 4 2 6 1 1 0 2-1 2a8 8 0 00-2 0 1 1 0 00-1 2c1 2 1 4 4 4l1 4c-1 1-1 3-3 2l-2 1zM148 127h-1c-2 2-4 1-7 0s-5-2-7 0a12 12 0 01-3 1c-2 0-3-2-4-4l2-4c2-1 6 1 9-1 4 1 9 1 12 6a2 2 0 01-1 2z" fill="none" stroke="#000" stroke-miterlimit="10" stroke-width=".3" class="mZKRXrhZ_46"></path>
  <path d="M148 125l-5-4h-6l-1-1 1-2a6 6 0 012 0h4c1 0 4 1 2-2-1-2 1-3 3-2 1 2 2 0 2 0 3-1 5-1 5 2a3 3 0 01-2 1c-4 2-1 3 0 4l1 1c3 0 6-2 9-1 1 0 2 1 1 2-1 0-1 2-2 0-1-1-5 1-7 2h-3a4 4 0 01-4 0zM132 126c1-1 1-3 3-1h5c2 3 5 2 7 2v3c-3 1-7-1-10-1-2 0-4-1-5-3z" fill="none" stroke="#000" stroke-miterlimit="10" stroke-width=".3" class="mZKRXrhZ_47"></path>
  <path d="M148 125a3 3 0 014 0c0 1 0 2-2 2a17 17 0 00-2 0zM23 127v2c3 4 1 8 0 12-2 2-3 4-2 6 0 1-1 3-2 2-2 0-1-2-1-3a18 18 0 000-4l-2-1a9 9 0 00-1 2v1l-1 1a2 2 0 01-1-1c0-1-2-2 0-3l1-4v-3l-2-2-1-2c1-1 2-3 4-1 0 0 0 0 0 0 3 1 3 1 4-2zM21 104l6 1v3c1 4-1 8-4 11h-2l-1-2h1c0-1 3 0 2-3l-3-2v-1c2 0 1-2 2-3 0 0 1-2-1-2v-2zM83 230l-1 2h-2a4 4 0 011 2l-1 1c-1 0-2 0-2-2 1-2 3-3 5-3z" fill="none" stroke="#000" stroke-miterlimit="10" stroke-width=".3" class="mZKRXrhZ_48"></path>
  <path d="M21 141h1c0-4 2-8 1-12l2 1c2 0 3 1 1 2a1 1 0 001 2l4 2a3 3 0 012 2l2 2c0 2 0 4 3 4v1c0 3-2 3-5 3-1 0-4-2-5 2 1 2 1 5 5 4l1 2a6 6 0 01-1 4c-1 2 1 3 1 5a2 2 0 002 0v-1a4 4 0 014-2l1 1c0 2-1 3-3 4h-2l2 1c1 0 2 0 2 2v1l-2 1c-1-2-3-3-6-3l-3-4c0-2-2-3-3-1l-2 3-2-1c0-2-2-1-3-1v-3c-1-4-1-8 1-12a7 7 0 001-4v-5zM60 196l-1 2v3c0 3-1 2-3 2l-1-2c-1-1 0-4-4-3-1 1-3-2-4-4l-4-10-1-6c-1-2 0-3 1-3h6c2 0 4-1 5-4h2a2 2 0 011 2 8 8 0 01-1 2 6 6 0 00-1 2c1 1-1 3 2 3a4 4 0 015 4c-1 4 0 8-2 12z" fill="none" stroke="#000" stroke-miterlimit="10" stroke-width=".3" class="mZKRXrhZ_49"></path>
  <path d="M56 173v-2c2 0 1-2 1-3s-3 1-1-1c1-1 3-2 3 0 1 1 3 1 3 3s2 0 3-1v-2l1-1 5 2 6 5a4 4 0 012 3l-3 3c-1 1-2 2-1 4s2 3 0 4h-2c-2 1-4 3-6 1s-1-4 1-6c0-1 0-3-2-3-3 1-5-1-6-3l-4-3zM60 160c-1-1-3-2-5-1-3 3-7 2-11 1l-1-1h3c2 3 4-1 6 0 0-1 3-2 0-2l-1-1 1-1c3 1 4-3 7-2l1-2c2 1 3 3 5 3l5 4a11 11 0 012 3c1 1 2 2 1 3a3 3 0 01-4 2c-2-1-4-1-5-4-1-2-3-1-4-2z" fill="none" stroke="#000" stroke-miterlimit="10" stroke-width=".3" class="mZKRXrhZ_50"></path>
  <path d="M60 160h3c2 0 3 0 1 2l1 1c2 2 4 0 6 2a4 4 0 002-2l-1-1-3-3 1-1c3 0 7-1 11 1 1 8-3 12-10 10a15 15 0 00-1 0c-2 0-3 0-3-2l-1-1c0-2-1-1-2-1h-2l-2-5zM37 136v-4c0-1 2-2 1-3l1-2c1 0 3-3 3 1h3c1 3 0 7 3 9 0 3-1 4-3 6l-1-1v-2a3 3 0 00-2-2l-2 1-1 3-1 1a1 1 0 01-1-1v-6z" fill="none" stroke="#000" stroke-miterlimit="10" stroke-width=".3" class="mZKRXrhZ_51"></path>
  <path d="M45 143a4 4 0 012-4 9 9 0 001-2c3-2 5-1 7 0 3 3 2 6 0 8 0 2 1 5-2 6-2 1-3 0-4-1l-1-1c-2 0-3-1-1-2 1-1-2-3 0-4zM43 184l2 1c0 1 0 4 2 4l1 1c0 4 0 3 2 5l1 3h2c0-4 2-1 2-1a53 53 0 011 6l-1 1a7 7 0 01-2-1l-2-2a11 11 0 00-3 0v-1l-1-2c-2 0-2-1-2-2l-2-3-1-5-1-4v-1a7 7 0 011 0 8 8 0 011 1zM64 155a3 3 0 01-3-2 22 22 0 01-1-2 2 2 0 00-2-3l-1-1a14 14 0 013-6l1-2h6c0-4 2 0 3-1 0 0 0 0 0 0l1 1c0 3-4 3-5 6-2 1-4 3-2 6a4 4 0 010 4zM28 150c-1-2-1-3 1-3h8a19 19 0 001-2l3 2c1 1 0 2-1 2l-1 1v4l1 2-2 4-1 1a2 2 0 01-1-1v-2-1a3 3 0 01-1-2c0-1 1-3-2-3 1-2 0-3-1-3s-3-1-4 1zM15 165a3 3 0 001 0l2-2v2l1 2v1l-2 2c0 3-2 3-4 3v-1c3-2 2-5 2-7z" fill="none" stroke="#000" stroke-miterlimit="10" stroke-width=".3" class="mZKRXrhZ_52"></path>
  <path d="M57 147l1 1c0 2 0 3-2 3h-3c1-2 2-3 0-5v-1l4 2zM56 173h2c1 0 2-2 2 1l4 5 2-1a13 13 0 010-2h2l2 6-1 2c-1 0-2-2-2 1a14 14 0 000 2l2 1c1-2 3-1 4-1 0 1 1 2-1 2l-1 2h-3c-3 0-3 0-3-3v-1a1 1 0 00-1 0l-1 1v8l-1 2c-2 0-2-1-2-2v-8a5 5 0 011-3c1-1 0-2-1-3s-2 0-2-2a2 2 0 00-1 0l-1 1c0 1 1 3-1 3s-1-2-1-3a40 40 0 010-5 2 2 0 011 0 7 7 0 014 1l-4-2zM21 146v4l-1 2-1 2 1 2v3a25 25 0 01-1 3c-4 0-5-2-4-6a15 15 0 000-2l-1-2-2-1a7 7 0 010-2l2-1c2 1 3 1 3-2h1c1 1-1 3 1 3s1-2 1-3a1 1 0 011 0zM23 119a13 13 0 001-3c0-2 0-4 3-4a7 7 0 000-1c-2 0-2-1-1-2a9 9 0 001-1c3 1 4 1 3 4l-1 2 1 1a6 6 0 000-1l2-2c1 2 3 0 4 1a2 2 0 011 1v1c-2 0-2 1-2 2v3l-2 1c1 2-2 3-3 5h-1a54 54 0 01-2-5l1-1h2l1-2-1-1h-2c-1 2-3 2-5 2zM82 108l2-2 2-1c4-2 5 3 8 4a10 10 0 012 0l8 6c0 2 1 3-1 5a35 35 0 01-7 5c-2 1-4-2-5-5s-4-1-6-2h-2a2 2 0 010-2c4-3 1-5-1-7a1 1 0 010-1zM59 116c0-2-1-1-2-1-1-1-2-1-1-3h-1l1-1 6-1a20 20 0 0112-3v-1l1-1c2 0 1 2 2 2a13 13 0 014 0v1c-1 2-3 3-6 3H65l-2 1a25 25 0 01-3 4h-1zM85 89l2 2 4 1c2 1 2 2 1 3-3 3-7 0-10 1a18 18 0 01-8-3 33 33 0 01-4 0 18 18 0 01-3-1l1-1a11 11 0 018-1 15 15 0 009-1z" fill="none" stroke="#000" stroke-miterlimit="10" stroke-width=".3" class="mZKRXrhZ_53"></path>
  <path d="M82 102h-7c-2-3 0-6 4-6l4-1a4 4 0 014 2l-1 5h-4z" fill="none" stroke="#000" stroke-miterlimit="10" stroke-width=".3" class="mZKRXrhZ_54"></path>
  <path d="M83 95v2l-1-1h-2c-1 2-2 1-2 0l-2 3c-3 0-1 2-1 3h-2c-1-2-4-2-3-5 0-2 1-3 2-3l2-1c3 0 5-1 7 2h1a1 1 0 011 0zM82 102h4c3-2 4 0 5 1 2 3 5 4 3 7l-3-2c-1-1-3-3-5-3 0-1 0-2-2-2 0 0-2 1-2-1zM75 110l6-2h1v1c0 3-1 4-3 6a2 2 0 01-1 0c-2-1-5-2-3-5z" fill="none" stroke="#000" stroke-miterlimit="10" stroke-width=".3" class="mZKRXrhZ_55"></path>
  <path d="M70 97l1 2c3 0 2 1 2 3h-3c-3 0-3 0-3-3 0-2 0-2 3-2zM55 138l-7-1a31 31 0 00-3-1v-1c0-2 1-3-1-4v-2a9 9 0 001-1h1l2 1c1 3 4 4 6 5 1 1 3 0 3 2l-2 2zM83 118l2-1c2 3 1 5-2 5-3 1-5 2-4 6a4 4 0 010 2c-2 2-3 4-6 3-1-1 3-2 0-2-1 0-2-2-1-4 1-1 0-2-2-2-1 0-1 2-2 0a3 3 0 011-2c3 0 4-3 4-5a2 2 0 013-2c2 1 5 0 7 2z" fill="none" stroke="#000" stroke-miterlimit="10" stroke-width=".3" class="mZKRXrhZ_56"></path>
  <path d="M73 133a3 3 0 003-1 18 18 0 012-2 1 1 0 011 0c-1 8-3 9-9 8l1-3zM84 75c2 0 3-2 5 0h1c0-3 2-2 3-2a5 5 0 001 0 5 5 0 00-1-1h-2a11 11 0 012-2h2l3 2c1 1 1-1 1-2 2 1 4 0 4-2 3-1 8 3 8 6l-1 1c-3 1-4 5-8 6-3-1-7-2-10 0-1 1-3-1-4-1l-4-4a1 1 0 010-1z" fill="none" stroke="#000" stroke-miterlimit="10" stroke-width=".3" class="mZKRXrhZ_57"></path>
  <path d="M84 75v1c1 2 0 4-1 6 3 0 4 2 4 5h-1c-3 1-5-1-8-1 1-3-2-4-2-6v-1c3 0 2-2 2-3a27 27 0 004 0c2 0 1-1 0-1l1-2c2 0 1 1 1 2zM103 68a11 11 0 001 3l-1 1c-2 1-2 1-3-2h-1l1-2c0-1-2-2-1-4h1a5 5 0 004-1c2 1 2 3 0 4l-1 1z" fill="none" stroke="#000" stroke-miterlimit="10" stroke-width=".3" class="mZKRXrhZ_58"></path>
  <path d="M99 64l2 2c0 1 1 2-1 2h-4l-1-1c1-2 2-3 4-3zM55 138c0-2 1-2 2-2 0 1 0 3 2 3l1 2c1 3-1 4-3 6a14 14 0 01-2-1 15 15 0 01-2-1c0-2 3 0 2-2 2-1 1-2 0-4v-1zM85 89c-1 2-4 2-6 3a2 2 0 01-1 0c-1 0-1-2-3-1h-7l1-2c2 0 3 1 5-1h1c3 2 7 1 10 1zM92 95l-1-3c0-1 2-1 0-3s-4 0-5-2a4 4 0 014-1c3 2 7 3 9 6-1 4-2 5-7 3zM75 110c0 2 0 3 2 3s1 1 1 2a1 1 0 01-2 0l-6-2c-2 1-3-1-5-2l1-1 6-1 3 1z" fill="none" stroke="#000" stroke-miterlimit="10" stroke-width=".3" class="mZKRXrhZ_59"></path>
  <path d="M65 111c2-1 4 1 5 2v2c-2 0-5 0-6-2l1-2zM76 115h3l4 1v2h-4a2 2 0 01-3-2zM144 64c-3 2-3 2-5 1-3 1-5 0-7-2-1-1-2-3-4-1s0 3 1 4a8 8 0 012 2l1 2c2 1 5 1 6 4l3 2c1 1 1-1 1-1 1-2 2-2 4-1h2a4 4 0 012-1l1 1a1 1 0 010 1c-2 0-4 3-7 2l-4 4c-3-1-7-1-11 1a6 6 0 01-6 0l-4-7v-3c7-2 0-5 2-8l-4-1a24 24 0 01-10 0 3 3 0 01-1-3l2-2a9 9 0 012-5 3 3 0 001-2l-2-1a3 3 0 01-2 0 9 9 0 011-2h1l2-2c2 1 4 1 4 3h1s3-2-1-2v-3c1 0 3-1 3 1s2 1 2 0h2l1-1c1-2 1-2 2-1l2 1c2 0 2 1 2 2a4 4 0 001 2h1a4 4 0 01-1 1c-2 0-2 0-1 2a13 13 0 004 2l1 1-1 1h-1a1 1 0 00-1 1l1 1c1 0 4 1 4-2a2 2 0 012 0c0 1 1 2 1 0s0-2 2-2a6 6 0 002 0c3-1 2 3 4 2a14 14 0 010 3v1c1 1 0 2-1 2a2 2 0 00-2 3z" fill="none" stroke="#000" stroke-miterlimit="10" stroke-width=".3" class="mZKRXrhZ_60"></path>
  <path d="M106 60l1 3c1 1 2 3 1 4a4 4 0 01-5 0l1-1c2 0 1-1 0-2a3 3 0 010-1 2 2 0 012-3zM104 56h-2l-1-2 1-1a7 7 0 013 1l2 1-2 1a7 7 0 01-1 0zM99 220v-1c0-1 0-3 1-2l9 1 1 1c1 2 2 3 5 3a3 3 0 010 2 2 2 0 01-1 1 9 9 0 01-4 0c-1-1-3-2-3 1h-5v-1c2-2 1-3 0-4a3 3 0 00-3-1zM74 200c1 1 4 1 4 3s2 1 3 1a12 12 0 011 1 12 12 0 01-1 1 3 3 0 01-1 0c-2 0-4 0-6-2s-3-2 0-4zM106 191l2 2a10 10 0 01-1 1l-1 1c-3-3-6-3-9 0a2 2 0 001 2l1 2-1 1-3-3c-4 0-7-1-9-4a19 19 0 00-3-2l-1-2c3-2 7-1 10-1 5 1 10 0 14 3z" fill="none" stroke="#000" stroke-miterlimit="10" stroke-width=".3" class="mZKRXrhZ_61"></path>
  <path d="M92 190a13 13 0 00-3-1h-7a9 9 0 01-2 1c-1 0-2 0-2-2a7 7 0 015-5l4-1c5-1 9 3 14 4a1 1 0 010 2l-2 1-7 1z" fill="none" stroke="#000" stroke-miterlimit="10" stroke-width=".3" class="mZKRXrhZ_62"></path>
  <path d="M83 184l-2 1a5 5 0 01-3 3c-1 0-2 1-3-1a4 4 0 010-1c1-2 1-3-1-3s-2-1-1-2l2-3h4a9 9 0 015-3 2 2 0 012 1c3 4-1 6-3 8zM120 201c0 2-1 2-3 2h-3a10 10 0 00-2 0c-3 1-6-1-8-3-1-2-1-2 1-3l6-1c1 4 3 2 4 1h4l1 1c2 0 1 1 0 2a3 3 0 000 1zM136 159a9 9 0 01-2-2c-2-2-4-2-6-2h-1c-7 1-14 2-21-1a6 6 0 01-2-1c-2-2-4-2-5-1h-4c-1-2 0-3 1-4 3-2 4-5 6-8a17 17 0 016-1 3 3 0 012 2c1 2 0 3-1 4s-3 2-2 3l3 1a41 41 0 006 1c6 1 6 1 8-4 2-1 4 2 6 0 1-2-1-4-1-6a28 28 0 012-8c1-2 2-4 5-3 2 0 3 2 3 4-1 2-2 5 1 7 1 2 3 5-1 7-3-1-4 0-3 3 1 2 3 5 1 8a3 3 0 01-1 1z" fill="none" stroke="#000" stroke-miterlimit="10" stroke-width=".3" class="mZKRXrhZ_63"></path>
  <path d="M136 159v-1c2-1 3 2 5 2 2 1 4 5 7 2l5-7v-5c-2-2-2-4 0-5a2 2 0 012 0 6 6 0 013 4v2c5 4 5 7-1 9-2 1 0 2 0 3 1 2 1 4-2 4a27 27 0 00-3-2 8 8 0 00-3 0v3h1v2l-2-1-1-1c-1 2-3 1-4 1-1-1 3-2 0-2l-3-1-5-4 1-3zM133 164l-2 1-1 1-2-1 1 2a2 2 0 01-1 2 6 6 0 01-3 0 7 7 0 011-2c2-5 1-5-4-5h-3c-1 0-2 0-2 2a2 2 0 01-1 0c-1-2-3 0-4 0a22 22 0 00-4 0h-5c1-3 3-4 6-4a29 29 0 015 0c4-1 9 0 12-2a5 5 0 015 1c2 0 1 3 3 2 1 2-1 2-1 3z" fill="none" stroke="#000" stroke-miterlimit="10" stroke-width=".3" class="mZKRXrhZ_64"></path>
  <path d="M131 159h-5c-5 1-6 1-5-3a9 9 0 017-1zM155 167l1-1 1-2-1-1a6 6 0 01-3-1v-2c2 0 2-3 4-2a6 6 0 002 0l2-1a7 7 0 000-3h-2c-3 0-3-1-2-3l-1-3a2 2 0 01-1-3 19 19 0 012-1 3 3 0 012-1 6 6 0 012 1l1 2 2 1c0 2 2 4 0 6v5l-1 3v5a16 16 0 010 2c-3-1-4 1-6 2-2 0-2 0-2-3zM92 190c1-1 0-3 3-1h5l1-1-1-1-6-2a11 11 0 00-8-2 2 2 0 012-2h8c1 3 4 2 6 3h1l1 2c2 0 2 1 2 3v2c-1 1-2 2-3 0l-3-1h-8z" fill="none" stroke="#000" stroke-miterlimit="10" stroke-width=".3" class="mZKRXrhZ_65"></path>
  <path d="M96 181l-5 1h-5v1l-3 1a2 2 0 011-3c3 0 2-2 2-3a6 6 0 01-1-2l4-4a2 2 0 012 0c1 1 2 2 4 1a2 2 0 013 2v1c0 1 0 3-1 2-2-2-4 0-6 0l-1 1 2 2c2-1 3-2 4 0z" fill="none" stroke="#000" stroke-miterlimit="10" stroke-width=".3" class="mZKRXrhZ_66"></path>
  <path d="M98 175c-1 0-2-2-3-1-4 1-4 1-4-2-1-2 0-3 2-4l5 1h2v2a9 9 0 01-1 1h1a5 5 0 001-1c1 0 2-2 3-1a2 2 0 01-1 3v1l-5 1zM110 175c3 0 5 1 7-1l2 2a11 11 0 01-10 0 5 5 0 01-1-1zM102 184c-1 0-3-1-3 2l-2-1-1-4c3 0 5 0 6 3z" fill="none" stroke="#000" stroke-miterlimit="10" stroke-width=".3" class="mZKRXrhZ_67"></path>
  <path d="M98 169c-2 0-4 2-6 0l-1 1a6 6 0 000 2h-2c-1 0-2-3-4 0s-5 3-8 1c-3 0-4-2-6-4h3c1-2 1 0 2 0l2-2a3 3 0 011-4c2-1 1-3 1-4-1-3-1-5 3-6l2 3a7 7 0 010 3c1 0-2 2 1 2 3-1 5 0 8 1 2 3 5 1 7 2v2c-2 0-2 2-3 3z" fill="none" stroke="#000" stroke-miterlimit="10" stroke-width=".3" class="mZKRXrhZ_68"></path>
  <path d="M101 164h-1c-2 3-4 2-6 0a10 10 0 00-1-1l12-6-2-4 1-1 2 1c3 1 5 3 8 2l2 2c-2 1 0 3-1 4h-5c-2 0-4-1-4 2-1 1-3-1-3 1zM131 68c-2 0-3 0-4-2a14 14 0 00-1-2l-1-1 3-4s3-1 3 2c1 1 3 1 3 3h2l3 1v3h-5c-1-2-2 0-3 0zM141 80l3-3 2 2c2 0 1 1 1 2 2 1 5 2 5 5l-2 1c-5 3-10 4-15 3v-3a8 8 0 015-1l3-1c1-2-1-2-2-3s-1-1 0-2z" fill="none" stroke="#000" stroke-miterlimit="10" stroke-width=".3" class="mZKRXrhZ_69"></path>
  <path d="M152 86l-2-3-3-2 6-1c1 0 2 0 2 2 0 1-1 3 2 3v3h-2c0-3-2-2-3-2zM134 89h7l4-1c1-2 3-1 5-1a5 5 0 001 1l2 1-6 1c-2 2-5 1-8 2l-5-1v-1-1zM167 66h-1c-3-1-3-4-5-6l1-1h1c1 0 4 4 4 7zM157 100l-3 1c-1 0-3-1-3 1a3 3 0 002 2c2 0 1 1 0 1a18 18 0 01-3 1 4 4 0 01-2 1c-4 1-8-2-13-1a3 3 0 01-1-2 2 2 0 011-2 5 5 0 011 0 9 9 0 005-2c-2 0-3 0-3-2a2 2 0 011-2 47 47 0 0116 0c1 1 3 1 2 4z" fill="none" stroke="#000" stroke-miterlimit="10" stroke-width=".3" class="mZKRXrhZ_70"></path>
  <path d="M148 106h2c1 2 2 1 3 1 3 0 5 0 6 3 0 2 4 4-1 5l-9-3a5 5 0 01-1-6z" fill="none" stroke="#000" stroke-miterlimit="10" stroke-width=".3" class="mZKRXrhZ_71"></path>
  <path d="M158 114l2-1-1-1v-2a18 18 0 003 1c2 0 3 1 3 4h1c1 2-2 2-1 4l1 3c1 1-1 1-2 1l-1-2c-1-3-5-4-5-7zM139 91l1-1h7l1 1h6c1 0 3-1 3 2h2a1 1 0 011 1 1 1 0 01-1 1c-1 1-2-1-3 1l-18 1a2 2 0 01-2-1 3 3 0 01-1-1c0-2 2-3 4-4z" fill="none" stroke="#000" stroke-miterlimit="10" stroke-width=".3" class="mZKRXrhZ_72"></path>
  <path d="M136 96a12 12 0 013-1l3 1c2 0 4 1 6-1l2 1h6l1 1a1 1 0 01-2 0h-17c-1 1-2 1-2-1z" fill="none" stroke="#000" stroke-miterlimit="10" stroke-width=".3" class="mZKRXrhZ_73"></path>
  <path d="M155 97h6c0 1 1 2-1 2a14 14 0 00-3 1c0-1 1-2-1-2l-1-1zM139 133l-3-4 1-1c1-1 2 2 4 0l4 1 2 1c3 0 3 0 1 3-2 0-3 0-2 2a5 5 0 010 4 3 3 0 01-1 1c-3-2-6-3-6-7z" fill="none" stroke="#000" stroke-miterlimit="10" stroke-width=".3" class="mZKRXrhZ_74"></path>
  <path d="M146 139s0 0 0 0c-2-1-3-2-1-4 1-1 0-2-2-2h-1a9 9 0 01-1-1 5 5 0 011-1l6 2c2 0 3 0 2 3l1 3-1 1a15 15 0 00-1-1 7 7 0 00-1-1c0 1-1 2-2 1z" fill="none" stroke="#000" stroke-miterlimit="10" stroke-width=".3" class="mZKRXrhZ_75"></path>
  <path d="M146 139l2-1c0 3 0 3 2 3a3 3 0 014 2 10 10 0 001 2h-2a10 10 0 01-5 0c-2-2-5-3-3-6zM126 124l2 2 2 1a3 3 0 010 0c-3 4-1 9-2 14a3 3 0 01-2 2l-3-2c-3-1-4-3-5-4-3-3-5-6-1-10 0-2 2-1 2-2-2-1 0-5-3-5l-1-1 1-2a8 8 0 019-8l2 1a9 9 0 011 3 6 6 0 010 3l-1 1c-3 2-3 4-1 7z" fill="none" stroke="#000" stroke-miterlimit="10" stroke-width=".3" class="mZKRXrhZ_76"></path>
  <path d="M127 116l1-3c1-4 4-5 7-7a7 7 0 012-1l3-1c3 3 5 2 8 2l1 3c-2 1 1 1 0 2-2 2-5 1-7 0-6-2-7-1-10 2-1 1 1 1 1 2s0 2 2 2c1 0 2 0 2 2l-1 1c-1 0-2-1-2 1a2 2 0 01-3 1c0-4-2-1-3-1-2-1-2-3-1-5zM128 141a12 12 0 010-3c0-1-2-1 0-2l-2-2c-1-2-1-3 1-4a13 13 0 002-1 2 2 0 001-2c0-2 1-1 2-1 2 1 3 3 5 2l-1 1-2 1c-1 2-4 3-3 6l-1 3-1 2a1 1 0 01-1 0z" fill="none" stroke="#000" stroke-miterlimit="10" stroke-width=".3" class="mZKRXrhZ_77"></path>
  <path d="M127 116l1 5-2 3c-2-1-2-4-5-4a3 3 0 011-1l2-1c2 1 2-2 3-2zM141 110c3 0 5 2 8 1l5 1 3 1 1 1 6 5c0 1 1 2-1 2a16 16 0 00-3 1l-7 1a13 13 0 01-2 0l2-2a11 11 0 002-5c-1-2-2-2-4-2l-1 1a18 18 0 01-1 2h-1v-3c-3-2-4 2-7 1a3 3 0 01-2-2 3 3 0 012-3z" fill="none" stroke="#000" stroke-miterlimit="10" stroke-width=".3" class="mZKRXrhZ_78"></path>
  <path d="M141 115h2c2-2 3-3 5-1a2 2 0 00-2 1v1c3 1 1 3 1 4a2 2 0 01-1 1v-1l-1-1c-2 0-4-1-6 1a1 1 0 010-1 1 1 0 010 0c-1-2 0-3 2-4z" fill="none" stroke="#000" stroke-miterlimit="10" stroke-width=".3" class="mZKRXrhZ_79"></path>
  <path d="M141 115l-2 4h-2c0-2-2 0-2-1-2-2-2 0-3 1l-1-1c-1-2 2-1 2-3 1-5 5-1 7-2zM155 116c2 3 2 3-1 5a8 8 0 01-1 0l-4-1 3-3 3-1zM21 146h-1c-2 0-1-2-1-3l2-2v1c2 2 1 3 0 4zM50 181l-2-1v-2l1-1c2-2 2 0 3 1 2 1 1 1 0 2a26 26 0 01-2 1zM55 175h1c4 0 5 1 4 5v1l-1-1-4-4h-1zM77 173h7l1-1h-1l-1-2 2-1a14 14 0 011 0c3 0 3 0 3 3a21 21 0 010 2c0 3-1 3-4 2h-1c-2-2-4 2-6 0z" fill="none" stroke="#000" stroke-miterlimit="10" stroke-width=".3" class="mZKRXrhZ_80"></path>
  <path d="M78 176a3 3 0 003-1 4 4 0 012-1l1 2c0 2-2 0-3 1l-2 3a3 3 0 01-3 1c-2-1-1-2-1-3zM64 155l-1-3v-1l-1-4v-1a3 3 0 003-2c5-2 5 2 5 5-1 2 4 6-1 7v3l-2-1-1-2-2-1z" fill="none" stroke="#000" stroke-miterlimit="10" stroke-width=".3" class="mZKRXrhZ_81"></path>
  <path d="M69 159c0-1 1-3-1-3h-1l1-1h3a6 6 0 00-1-1l-1-4c3-6 8-9 13-11 5 2 4 6 3 9a2 2 0 01-2 1c-1 0-1-3-3-2-2 2-5 2-6 5l1 2 2-1c1-2 3-4 6-4 2 1 1 2 0 4h-2l-1 6-4 1a3 3 0 01-3 0l-4-1z" fill="none" stroke="#000" stroke-miterlimit="10" stroke-width=".3" class="mZKRXrhZ_82"></path>
  <path d="M82 140a7 7 0 00-1 1l-5 2-1 1a3 3 0 010 2c-3-1-3 3-5 4a1 1 0 01-1 0 18 18 0 000-4c-1-2-2-3-4-2l1-2c3 0 4-1 4-4 1 0 2-2 3 0l4-3c-1-2 1-3 2-5a2 2 0 011-1c3 2 4 6 2 11zM91 119l1 2 1 1c1 1 2 3 4 3v-4c0-2 1-1 2-1 1 2 2-1 3 0a2 2 0 001-1v-4c-1-4-4-4-6-5a5 5 0 01-1-6c6-3 10-1 11 5 1 3 2 6 1 9-3 5-2 7 2 10a2 2 0 010 1c-1 2-3 3-5 3h-2c-1 0-2-4-2 0-1 2-4 3-6 3-2-3-6-4-6-7-1-2-4-3-3-6 1-2 2-4 5-3z" fill="none" stroke="#000" stroke-miterlimit="10" stroke-width=".3" class="mZKRXrhZ_83"></path>
  <path d="M91 119a6 6 0 00-3 3c-1 2-2 2 0 3l2 2-4 2-6 1h-2v-3c0-2 0-3-2-3l-1-1 1-1 5-1 4-1v-3h3c1 2 1-1 2 0a17 17 0 012 2s0 0 0 0a1 1 0 01-1 0zM83 116a18 18 0 01-3 0l-1-1c0-3 2-4 3-6l5 3v2a42 42 0 01-4 2zM97 110c1 0 1-2 2 0l2-1 2 1v5h-3a2 2 0 01-1-1c1-2-3-2-3-4a1 1 0 011 0z" fill="none" stroke="#000" stroke-miterlimit="10" stroke-width=".3" class="mZKRXrhZ_84"></path>
  <path d="M97 110h-3c1-2-1-2-2-3l-1-3c1-3 3-1 4-1a3 3 0 011 1c-1 2 1 4 1 6zM92 95h2c4 0 4 0 4-4a1 1 0 012 0l1 5c-2 3-5 2-8 3h-5a3 3 0 01-2-2l-3-2h-1c1-2 3-1 3-1 2 2 5 1 7 1z" fill="none" stroke="#000" stroke-miterlimit="10" stroke-width=".3" class="mZKRXrhZ_85"></path>
  <path d="M86 97l1 1a11 11 0 017 3c1 1 2 2 1 3a9 9 0 01-2-1l-2 1h-2c0-3-2-2-3-2a4 4 0 010-5zM103 67c2 1 3-2 5 0l-1-2c-3 0 1-1 0-2a8 8 0 006-1c2-2 2-1 2 1l1 1a3 3 0 000-1v-1a4 4 0 012-2l1 1c1 2 3 0 4 1l-1 5c0 2 2 2 3 3a3 3 0 010 3h-2a10 10 0 01-2-1s0 0 0 0h-2a1 1 0 000 2 18 18 0 003 3l1 4a1 1 0 010 1c-5 1-7-1-7-5a18 18 0 000-5v-4l-4 4c0 3-2 6 1 9a2 2 0 01-1 1c-3 1-7 2-10-2l5-5h3l-1-2c-2 1-2-1-2-2 0-2 0-5-2-2l-2-1-1-1z" fill="none" stroke="#000" stroke-miterlimit="10" stroke-width=".3" class="mZKRXrhZ_86"></path>
  <path d="M102 80l3 1c1 2 2 2 3 0l2 1h2c0 4-3 4-6 4a31 31 0 01-8 0 2 2 0 00-1 0 3 3 0 001 0c2 2 3 3 1 5h-1l-3-1c-1-2-4-1-5-3-2-2-3-5-2-8h1c1-1 1 3 3 1l4-2h2c2 0 2 3 4 2z" fill="none" stroke="#000" stroke-miterlimit="10" stroke-width=".3" class="mZKRXrhZ_87"></path>
  <path d="M88 79l2 5v3h-4l-1-3c-1-2-1-2-3-1-1 0-2 2-3 1l2-3a17 17 0 002-1l1-1c-2-1 0-2 0-3 3 0 4 1 4 3zM123 82v-1a22 22 0 003 0c1 0 3 1 3-2h1a43 43 0 005-1l6 2 1 2a2 2 0 000 0c2 0 3 0 4 2l-4 3h-2c-2-3-4-4-8-2a13 13 0 01-5 1 4 4 0 01-2-1c-1-1-2-1-2-3zM149 163c-2 2-2 2-4 1a23 23 0 00-4-2l-5-4a7 7 0 000-7c-1-2 0-4-3-5l1-1 5 1c1 1 3 3 5 2a3 3 0 013 3c-2 4 3 8 2 12z" fill="none" stroke="#000" stroke-miterlimit="10" stroke-width=".3" class="mZKRXrhZ_88"></path>
  <path d="M146 151c0-1-1-2-3-2-3 1-4 1-4-3l2-1a11 11 0 01-1-1l-1-1c1-3-2-4-3-5v-3l3-2c1 1 1 3 3 3l1 2 2 1c0 2 0 4 3 4v1a28 28 0 011 4c1 3 0 4-3 3zM104 152l-1 1c-3 2-6 1-9 2h-6c-3-5-2-8 3-10a43 43 0 015-2l6-2h0l-1 2c1 2 0 3-2 4l-4 3a1 1 0 000 2 1 1 0 002 0 7 7 0 002-1c2-2 3-1 5 1zM117 127c0 1 1 3-2 3v2l4 4a5 5 0 01-4 2c-2 0-5 0-7 2l-6 1a20 20 0 017-8c2-1 4-2 3-5-1-1-1-3 1-4s4 1 4 3zM116 151c-2 1-4-1-6-1a1 1 0 010-1s0 0 0 0c3-1 2-3 1-4a8 8 0 010-4 3 3 0 013-1 5 5 0 011 0 27 27 0 013 2 8 8 0 013 7c0 3-3 1-5 2z" fill="none" stroke="#000" stroke-miterlimit="10" stroke-width=".3" class="mZKRXrhZ_89"></path>
  <path d="M116 151l2-1a13 13 0 002-1l1-1a2 2 0 00-1-1c-2 0-2-1-1-2s0-2-1-2a12 12 0 01-2 0l-1-2c4-2 6 0 8 3a4 4 0 011 2l1 4-1 2c-2-2-3 0-4 0l-4-1zM115 158c0-1 1-2-1-2l-7-1-1-2a13 13 0 013-1l1 1c0 3 1 2 3 1h1c2-1 4 3 6 0h7l1 1a32 32 0 00-4 0 18 18 0 00-3 1c-2 1-3 4-6 2zM111 141v4l-1 4v1h-4a2 2 0 01-2-3l6-4v-2a1 1 0 011 0z" fill="none" stroke="#000" stroke-miterlimit="10" stroke-width=".3" class="mZKRXrhZ_90"></path>
  <path d="M124 146l-1-1v-5l2 1 1 1c3 1 3 3 5 5-1 2-2 1-4 1l-3-2zM111 141h-1l-2-1c0-2 1-3 3-3h4c1 2 1 3-1 4z" fill="none" stroke="#000" stroke-miterlimit="10" stroke-width=".3" class="mZKRXrhZ_91"></path>
  <path d="M131 147c-1 0-3 1-3-2l-2-3 2-1h3a50 50 0 011 6h-1zM146 151a2 2 0 003-1 2 2 0 000-2c-2-2-2-2-1-4h4l1 1a14 14 0 01-1 2l1 2c2 0 2 0 2 2v4l-1 1c-2 0-2 2-3 3l-2 4c-1-1-3-1-1-3l-1-2c-2 0-2-3-2-4 2-1-1-3 1-3zM115 158l2-1 4-1c-1 1 0 3 1 3h4c0 1 1 2-1 2a11 11 0 00-5 0 25 25 0 01-5 0l-1-1-1-2zM96 144a4 4 0 00-1 0c-1 1-1 2-3 1-1-1-5 4-5 6a13 13 0 001 3 4 4 0 01-1 3c-1 1-2 0-3-1-2 0 0-2-1-3v-4l1-1c1-1 0-3 2-4l6-7c0-2 1-3 3-2l1-1c1-2 1-2 3-2l1 1 1-2c-3-4 2-3 2-4h1a4 4 0 010 1l-1 1a21 21 0 00-1 2 5 5 0 012-1c2 0 1 1 1 2-3 4-4 9-9 12z" fill="none" stroke="#000" stroke-miterlimit="10" stroke-width=".3" class="mZKRXrhZ_92"></path>
  <path d="M84 156l3 1c2 1 4-1 6-1h8a16 16 0 016 1c0 1 1 2-1 2a3 3 0 010 0c-3 0-3 0-6 3h-2c-1-1-3 1-5 1a15 15 0 00-1-1c-2 2-3 1-4 0l-2-1c-2 0-1-2-2-2z" fill="none" stroke="#000" stroke-miterlimit="10" stroke-width=".3" class="mZKRXrhZ_93"></path>
  <path d="M84 159l1 2h1c0 1 0 2-2 3l-1-3a7 7 0 011-2zM107 157h-6c-2-3-6 0-8-2a1 1 0 010-1l5-1h5zM127 85l6-2a4 4 0 012-1 21 21 0 015 1v4c0 1-2-3-2 0l-2 1c-1 0-2-1-2 1l-8 4c-2-3 2-5 1-8z" fill="none" stroke="#000" stroke-miterlimit="10" stroke-width=".3" class="mZKRXrhZ_94"></path>
  <path d="M126 93c3-4 3-4 8-4v1c0 2-5 2-3 5 1 1 4-1 5 1l2 1v2c-3 2-6 2-10 3-4-1-6-4-4-8l2-1z" fill="none" stroke="#000" stroke-miterlimit="10" stroke-width=".3" class="mZKRXrhZ_95"></path>
  <path d="M130 96h-2a14 14 0 011-3c1 0 1-3 4-2l1-1 5 1a8 8 0 00-3 4 12 12 0 01-6 1zM135 103l-1 1c0 3-3 5-5 7-1 1-2 0-3-1-1-3 0-6 2-8l4-1c2-1 3 0 3 2z" fill="none" stroke="#000" stroke-miterlimit="10" stroke-width=".3" class="mZKRXrhZ_96"></path>
  <path d="M135 103c0-1 0-3-2-1h-5a1 1 0 010-1s0 0 0 0c1 0 3 1 3-1l2-1h5c2 0 3 1 5-1a8 8 0 011 1l-1 1-2 1c-1 3-4 2-6 2zM126 110h4l4-6c2 0 1 1 1 2l-7 7-2-2v-1c0-1 0 0 0 0zM130 96l1-1h5v1l-5 1-1-1z" fill="none" stroke="#000" stroke-miterlimit="10" stroke-width=".3" class="mZKRXrhZ_97"></path>
  <path d="M126 110v1a6 6 0 01-1-1 6 6 0 010-1l-1 1-2 2h-4c-2 0 0 1 0 2a4 4 0 01-1 2c-1 1-1 1 1 1h1a2 2 0 010 1v1h-4s0 0 0 0c-4-1-5-3-3-6 5-6 9-12 12-19a1 1 0 011 0v3c-1 1-1 2 1 2l2 2v1a8 8 0 01-1 2 9 9 0 00-1 6z" fill="none" stroke="#000" stroke-miterlimit="10" stroke-width=".3" class="mZKRXrhZ_98"></path>
  <path d="M117 127a12 12 0 00-2-2 3 3 0 00-2 0l-1 2 1 2a2 2 0 01-3 0c-3-3 0-6 0-9 1-2 3-2 5-1 1 2 3 0 4 1h1l-1 1c-2 1-1 2 0 2l3 2 1 2h-6zM114 141a5 5 0 001-4l2-1h2a36 36 0 002 4h2v5c-3-4-3-4-8-4zM140 113l-2 2c-1 1-1 0-2-1h-2l-1 1h-2a8 8 0 01-2 0 6 6 0 011-1l6-6h3c1 1 0 3 2 2l-1 3zM86 145a5 5 0 00-1 1l-1 2a14 14 0 010-2l1-3-3-3c0-1-3-2 0-3l1-1-2-1a6 6 0 011-3c1-2-1-2-2-2 1-2 2-2 3-2h3a4 4 0 012 5v2c3 4 0 7-2 10zM81 145l2 1v3c-2 1-1 4-4 3l-1 1c1 1-1 2-2 3-1 2-2 1-3-1s1-4 0-6a1 1 0 013 0c0-1 2 0 2-2s2-2 3-2z" fill="none" stroke="#000" stroke-miterlimit="10" stroke-width=".3" class="mZKRXrhZ_99"></path>
  <path d="M115 119h-4l-1 2c-3 1-4 0-3-3 0-2-1-4 1-5a3 3 0 00-2-2v-1c1-1 2-2 0-2l-1-1-1-2h-1c-2-3-5-1-7-1h-1l-1-2c-1-1-2-3-1-5h6l1-2c4-1 5 1 5 4l2 3a7 7 0 011 1 50 50 0 004 6c1 1 2 3 0 5v2 1l1 1c2-2 2 0 2 1zM86 145l1-4c3-2 2-2 1-4l-1-1v-3c2-1 1-2 0-3l-1-2 1-1a18 18 0 013 0l1 1c1 0 2 0 0 1a13 13 0 00-1 2h2a5 5 0 001 0c2 0 2 1 2 2v2c-2 1-3 1-3 4v1c-3 0-3 4-6 5zM110 129h3c2 0 1 1 1 2-2 1-3 3-5 3-1 0 0 2-2 2l-1 2h-1c0 2 0 2-2 2l-1 1a13 13 0 00-2 0c1 4-2 3-4 3l2-2 1-2c0-4 4-6 6-8 2-1 3-3 5-2a4 4 0 000-1z" fill="none" stroke="#000" stroke-miterlimit="10" stroke-width=".3" class="mZKRXrhZ_100"></path>
  <path d="M107 118c0 2 1 3 3 3h2v2c-3 1-3 2-2 4v2a16 16 0 01-4-1l-1-2c0-1 2-1 0-2l-1-3 3-3zM107 103v-1c0-5-4-8-7-11h-1v-1s2-1 0-2a12 12 0 00-3-1c-2 0-3-1-3-2l3-1h2c2 2 5 1 7 1l3 1c1-2 4-2 4-4l1-1a4 4 0 010 0c4 3 8 2 12 3l2 1 1 1 1 2-2 1-1 4-1 1h-1c-4 1-5 5-6 7-4 7-3 7-10 3l-1-1zM100 91c2 1 3 3 5 2l1 1v1l2 3-1 4-4-1-1-1a1 1 0 011-1 15 15 0 002 0v-1a1 1 0 000-1 22 22 0 00-3 0l1-2h-3l-1-2a10 10 0 001-2zM93 97l1 5c-1 0-3 1-3-2l-1-1c-1 0-3 1-3-1l6-1z" fill="none" stroke="#000" stroke-miterlimit="10" stroke-width=".3" class="mZKRXrhZ_101"></path>
  <path d="M125 84c-1-1-3 3-4 0l-5 1c-2 0-2 0-1-2 0-2 0-2-2-2 0-2-2-1-3-1v-3l1-4c2-1 0-1-1-1a11 11 0 01-1 0l1-1 3-1c1 0 3-1 1-3l1-1a13 13 0 013-1v1a12 12 0 010 3v6a2 2 0 010 1l-1 3c1 1 2 4 5 3a4 4 0 011 0l1 1a9 9 0 011 1zM93 154v1c1 1 0 1-1 2-2 0-2 1-3 2l-1 1a12 12 0 01-1-2 7 7 0 010-1c1-1-1-3 1-3a4 4 0 005 0zM110 149c-2-2-2-2 0-3a11 11 0 011-1 19 19 0 003 1l1 2-1 1h-4z" fill="none" stroke="#000" stroke-miterlimit="10" stroke-width=".3" class="mZKRXrhZ_102"></path>
  <path d="M92 157l1-2a13 13 0 003 0l3-1 2 3zM107 103c2 0 4-1 5 2 1 2 2 1 3-1l1-1 1-1-1-1a1 1 0 01-1-1l1-1h2c2 0 3-2 1-4h-1v-2h2c1 2 3 1 4 1 0 2-2 4-1 6l-1 1c-2 0-2 2-2 3l-1 3c-2 2-4 3-4 6l-3 1a5 5 0 00-1-5l-4-6zM111 89c3-1 4 1 5 3v2c-3-1-4 2-6 2h-1a19 19 0 01-2-4 3 3 0 011-3h3z" fill="none" stroke="#000" stroke-miterlimit="10" stroke-width=".3" class="mZKRXrhZ_103"></path>
<style data-made-with="vivus-instant">.mZKRXrhZ_0{stroke-dasharray:683 685;stroke-dashoffset:684;animation:mZKRXrhZ_draw 2000ms infinite alternate;}.mZKRXrhZ_1{stroke-dasharray:627 629;stroke-dashoffset:628;animation:mZKRXrhZ_draw 2000ms infinite alternate;}.mZKRXrhZ_2{stroke-dasharray:370 372;stroke-dashoffset:371;animation:mZKRXrhZ_draw 2000ms infinite alternate;}.mZKRXrhZ_3{stroke-dasharray:545 547;stroke-dashoffset:546;animation:mZKRXrhZ_draw 2000ms infinite alternate;}.mZKRXrhZ_4{stroke-dasharray:541 543;stroke-dashoffset:542;animation:mZKRXrhZ_draw 2000ms infinite alternate;}.mZKRXrhZ_5{stroke-dasharray:353 355;stroke-dashoffset:354;animation:mZKRXrhZ_draw 2000ms infinite alternate;}.mZKRXrhZ_6{stroke-dasharray:100 102;stroke-dashoffset:101;animation:mZKRXrhZ_draw 2000ms infinite alternate;}.mZKRXrhZ_7{stroke-dasharray:113 115;stroke-dashoffset:114;animation:mZKRXrhZ_draw 2000ms infinite alternate;}.mZKRXrhZ_8{stroke-dasharray:58 60;stroke-dashoffset:59;animation:mZKRXrhZ_draw 2000ms infinite alternate;}.mZKRXrhZ_9{stroke-dasharray:89 91;stroke-dashoffset:90;animation:mZKRXrhZ_draw 2000ms infinite alternate;}.mZKRXrhZ_10{stroke-dasharray:639 641;stroke-dashoffset:640;animation:mZKRXrhZ_draw 2000ms infinite alternate;}.mZKRXrhZ_11{stroke-dasharray:170 172;stroke-dashoffset:171;animation:mZKRXrhZ_draw 2000ms infinite alternate;}.mZKRXrhZ_12{stroke-dasharray:153 155;stroke-dashoffset:154;animation:mZKRXrhZ_draw 2000ms infinite alternate;}.mZKRXrhZ_13{stroke-dasharray:301 303;stroke-dashoffset:302;animation:mZKRXrhZ_draw 2000ms infinite alternate;}.mZKRXrhZ_14{stroke-dasharray:207 209;stroke-dashoffset:208;animation:mZKRXrhZ_draw 2000ms infinite alternate;}.mZKRXrhZ_15{stroke-dasharray:142 144;stroke-dashoffset:143;animation:mZKRXrhZ_draw 2000ms infinite alternate;}.mZKRXrhZ_16{stroke-dasharray:49 51;stroke-dashoffset:50;animation:mZKRXrhZ_draw 2000ms infinite alternate;}.mZKRXrhZ_17{stroke-dasharray:613 615;stroke-dashoffset:614;animation:mZKRXrhZ_draw 2000ms infinite alternate;}.mZKRXrhZ_18{stroke-dasharray:115 117;stroke-dashoffset:116;animation:mZKRXrhZ_draw 2000ms infinite alternate;}.mZKRXrhZ_19{stroke-dasharray:241 243;stroke-dashoffset:242;animation:mZKRXrhZ_draw 2000ms infinite alternate;}.mZKRXrhZ_20{stroke-dasharray:258 260;stroke-dashoffset:259;animation:mZKRXrhZ_draw 2000ms infinite alternate;}.mZKRXrhZ_21{stroke-dasharray:97 99;stroke-dashoffset:98;animation:mZKRXrhZ_draw 2000ms infinite alternate;}.mZKRXrhZ_22{stroke-dasharray:75 77;stroke-dashoffset:76;animation:mZKRXrhZ_draw 2000ms infinite alternate;}.mZKRXrhZ_23{stroke-dasharray:334 336;stroke-dashoffset:335;animation:mZKRXrhZ_draw 2000ms infinite alternate;}.mZKRXrhZ_24{stroke-dasharray:224 226;stroke-dashoffset:225;animation:mZKRXrhZ_draw 2000ms infinite alternate;}.mZKRXrhZ_25{stroke-dasharray:231 233;stroke-dashoffset:232;animation:mZKRXrhZ_draw 2000ms infinite alternate;}.mZKRXrhZ_26{stroke-dasharray:153 155;stroke-dashoffset:154;animation:mZKRXrhZ_draw 2000ms infinite alternate;}.mZKRXrhZ_27{stroke-dasharray:152 154;stroke-dashoffset:153;animation:mZKRXrhZ_draw 2000ms infinite alternate;}.mZKRXrhZ_28{stroke-dasharray:138 140;stroke-dashoffset:139;animation:mZKRXrhZ_draw 2000ms infinite alternate;}.mZKRXrhZ_29{stroke-dasharray:339 341;stroke-dashoffset:340;animation:mZKRXrhZ_draw 2000ms infinite alternate;}.mZKRXrhZ_30{stroke-dasharray:424 426;stroke-dashoffset:425;animation:mZKRXrhZ_draw 2000ms infinite alternate;}.mZKRXrhZ_31{stroke-dasharray:283 285;stroke-dashoffset:284;animation:mZKRXrhZ_draw 2000ms infinite alternate;}.mZKRXrhZ_32{stroke-dasharray:142 144;stroke-dashoffset:143;animation:mZKRXrhZ_draw 2000ms infinite alternate;}.mZKRXrhZ_33{stroke-dasharray:247 249;stroke-dashoffset:248;animation:mZKRXrhZ_draw 2000ms infinite alternate;}.mZKRXrhZ_34{stroke-dasharray:489 491;stroke-dashoffset:490;animation:mZKRXrhZ_draw 2000ms infinite alternate;}.mZKRXrhZ_35{stroke-dasharray:327 329;stroke-dashoffset:328;animation:mZKRXrhZ_draw 2000ms infinite alternate;}.mZKRXrhZ_36{stroke-dasharray:46 48;stroke-dashoffset:47;animation:mZKRXrhZ_draw 2000ms infinite alternate;}.mZKRXrhZ_37{stroke-dasharray:137 139;stroke-dashoffset:138;animation:mZKRXrhZ_draw 2000ms infinite alternate;}.mZKRXrhZ_38{stroke-dasharray:142 144;stroke-dashoffset:143;animation:mZKRXrhZ_draw 2000ms infinite alternate;}.mZKRXrhZ_39{stroke-dasharray:62 64;stroke-dashoffset:63;animation:mZKRXrhZ_draw 2000ms infinite alternate;}.mZKRXrhZ_40{stroke-dasharray:290 292;stroke-dashoffset:291;animation:mZKRXrhZ_draw 2000ms infinite alternate;}.mZKRXrhZ_41{stroke-dasharray:186 188;stroke-dashoffset:187;animation:mZKRXrhZ_draw 2000ms infinite alternate;}.mZKRXrhZ_42{stroke-dasharray:51 53;stroke-dashoffset:52;animation:mZKRXrhZ_draw 2000ms infinite alternate;}.mZKRXrhZ_43{stroke-dasharray:27 29;stroke-dashoffset:28;animation:mZKRXrhZ_draw 2000ms infinite alternate;}.mZKRXrhZ_44{stroke-dasharray:346 348;stroke-dashoffset:347;animation:mZKRXrhZ_draw 2000ms infinite alternate;}.mZKRXrhZ_45{stroke-dasharray:108 110;stroke-dashoffset:109;animation:mZKRXrhZ_draw 2000ms infinite alternate;}.mZKRXrhZ_46{stroke-dasharray:272 274;stroke-dashoffset:273;animation:mZKRXrhZ_draw 2000ms infinite alternate;}.mZKRXrhZ_47{stroke-dasharray:118 120;stroke-dashoffset:119;animation:mZKRXrhZ_draw 2000ms infinite alternate;}.mZKRXrhZ_48{stroke-dasharray:146 148;stroke-dashoffset:147;animation:mZKRXrhZ_draw 2000ms infinite alternate;}.mZKRXrhZ_49{stroke-dasharray:240 242;stroke-dashoffset:241;animation:mZKRXrhZ_draw 2000ms infinite alternate;}.mZKRXrhZ_50{stroke-dasharray:169 171;stroke-dashoffset:170;animation:mZKRXrhZ_draw 2000ms infinite alternate;}.mZKRXrhZ_51{stroke-dasharray:127 129;stroke-dashoffset:128;animation:mZKRXrhZ_draw 2000ms infinite alternate;}.mZKRXrhZ_52{stroke-dasharray:243 245;stroke-dashoffset:244;animation:mZKRXrhZ_draw 2000ms infinite alternate;}.mZKRXrhZ_53{stroke-dasharray:447 449;stroke-dashoffset:448;animation:mZKRXrhZ_draw 2000ms infinite alternate;}.mZKRXrhZ_54{stroke-dasharray:35 37;stroke-dashoffset:36;animation:mZKRXrhZ_draw 2000ms infinite alternate;}.mZKRXrhZ_55{stroke-dasharray:99 101;stroke-dashoffset:100;animation:mZKRXrhZ_draw 2000ms infinite alternate;}.mZKRXrhZ_56{stroke-dasharray:121 123;stroke-dashoffset:122;animation:mZKRXrhZ_draw 2000ms infinite alternate;}.mZKRXrhZ_57{stroke-dasharray:105 107;stroke-dashoffset:106;animation:mZKRXrhZ_draw 2000ms infinite alternate;}.mZKRXrhZ_58{stroke-dasharray:77 79;stroke-dashoffset:78;animation:mZKRXrhZ_draw 2000ms infinite alternate;}.mZKRXrhZ_59{stroke-dasharray:156 158;stroke-dashoffset:157;animation:mZKRXrhZ_draw 2000ms infinite alternate;}.mZKRXrhZ_60{stroke-dasharray:264 266;stroke-dashoffset:265;animation:mZKRXrhZ_draw 2000ms infinite alternate;}.mZKRXrhZ_61{stroke-dasharray:177 179;stroke-dashoffset:178;animation:mZKRXrhZ_draw 2000ms infinite alternate;}.mZKRXrhZ_62{stroke-dasharray:55 57;stroke-dashoffset:56;animation:mZKRXrhZ_draw 2000ms infinite alternate;}.mZKRXrhZ_63{stroke-dasharray:251 253;stroke-dashoffset:252;animation:mZKRXrhZ_draw 2000ms infinite alternate;}.mZKRXrhZ_64{stroke-dasharray:188 190;stroke-dashoffset:189;animation:mZKRXrhZ_draw 2000ms infinite alternate;}.mZKRXrhZ_65{stroke-dasharray:176 178;stroke-dashoffset:177;animation:mZKRXrhZ_draw 2000ms infinite alternate;}.mZKRXrhZ_66{stroke-dasharray:61 63;stroke-dashoffset:62;animation:mZKRXrhZ_draw 2000ms infinite alternate;}.mZKRXrhZ_67{stroke-dasharray:84 86;stroke-dashoffset:85;animation:mZKRXrhZ_draw 2000ms infinite alternate;}.mZKRXrhZ_68{stroke-dasharray:92 94;stroke-dashoffset:93;animation:mZKRXrhZ_draw 2000ms infinite alternate;}.mZKRXrhZ_69{stroke-dasharray:157 159;stroke-dashoffset:158;animation:mZKRXrhZ_draw 2000ms infinite alternate;}.mZKRXrhZ_70{stroke-dasharray:163 165;stroke-dashoffset:164;animation:mZKRXrhZ_draw 2000ms infinite alternate;}.mZKRXrhZ_71{stroke-dasharray:36 38;stroke-dashoffset:37;animation:mZKRXrhZ_draw 2000ms infinite alternate;}.mZKRXrhZ_72{stroke-dasharray:95 97;stroke-dashoffset:96;animation:mZKRXrhZ_draw 2000ms infinite alternate;}.mZKRXrhZ_73{stroke-dasharray:46 48;stroke-dashoffset:47;animation:mZKRXrhZ_draw 2000ms infinite alternate;}.mZKRXrhZ_74{stroke-dasharray:59 61;stroke-dashoffset:60;animation:mZKRXrhZ_draw 2000ms infinite alternate;}.mZKRXrhZ_75{stroke-dasharray:35 37;stroke-dashoffset:36;animation:mZKRXrhZ_draw 2000ms infinite alternate;}.mZKRXrhZ_76{stroke-dasharray:120 122;stroke-dashoffset:121;animation:mZKRXrhZ_draw 2000ms infinite alternate;}.mZKRXrhZ_77{stroke-dasharray:125 127;stroke-dashoffset:126;animation:mZKRXrhZ_draw 2000ms infinite alternate;}.mZKRXrhZ_78{stroke-dasharray:100 102;stroke-dashoffset:101;animation:mZKRXrhZ_draw 2000ms infinite alternate;}.mZKRXrhZ_79{stroke-dasharray:33 35;stroke-dashoffset:34;animation:mZKRXrhZ_draw 2000ms infinite alternate;}.mZKRXrhZ_80{stroke-dasharray:137 139;stroke-dashoffset:138;animation:mZKRXrhZ_draw 2000ms infinite alternate;}.mZKRXrhZ_81{stroke-dasharray:67 69;stroke-dashoffset:68;animation:mZKRXrhZ_draw 2000ms infinite alternate;}.mZKRXrhZ_82{stroke-dasharray:94 96;stroke-dashoffset:95;animation:mZKRXrhZ_draw 2000ms infinite alternate;}.mZKRXrhZ_83{stroke-dasharray:184 186;stroke-dashoffset:185;animation:mZKRXrhZ_draw 2000ms infinite alternate;}.mZKRXrhZ_84{stroke-dasharray:103 105;stroke-dashoffset:104;animation:mZKRXrhZ_draw 2000ms infinite alternate;}.mZKRXrhZ_85{stroke-dasharray:73 75;stroke-dashoffset:74;animation:mZKRXrhZ_draw 2000ms infinite alternate;}.mZKRXrhZ_86{stroke-dasharray:168 170;stroke-dashoffset:169;animation:mZKRXrhZ_draw 2000ms infinite alternate;}.mZKRXrhZ_87{stroke-dasharray:72 74;stroke-dashoffset:73;animation:mZKRXrhZ_draw 2000ms infinite alternate;}.mZKRXrhZ_88{stroke-dasharray:155 157;stroke-dashoffset:156;animation:mZKRXrhZ_draw 2000ms infinite alternate;}.mZKRXrhZ_89{stroke-dasharray:221 223;stroke-dashoffset:222;animation:mZKRXrhZ_draw 2000ms infinite alternate;}.mZKRXrhZ_90{stroke-dasharray:125 127;stroke-dashoffset:126;animation:mZKRXrhZ_draw 2000ms infinite alternate;}.mZKRXrhZ_91{stroke-dasharray:46 48;stroke-dashoffset:47;animation:mZKRXrhZ_draw 2000ms infinite alternate;}.mZKRXrhZ_92{stroke-dasharray:200 202;stroke-dashoffset:201;animation:mZKRXrhZ_draw 2000ms infinite alternate;}.mZKRXrhZ_93{stroke-dasharray:56 58;stroke-dashoffset:57;animation:mZKRXrhZ_draw 2000ms infinite alternate;}.mZKRXrhZ_94{stroke-dasharray:88 90;stroke-dashoffset:89;animation:mZKRXrhZ_draw 2000ms infinite alternate;}.mZKRXrhZ_95{stroke-dasharray:51 53;stroke-dashoffset:52;animation:mZKRXrhZ_draw 2000ms infinite alternate;}.mZKRXrhZ_96{stroke-dasharray:60 62;stroke-dashoffset:61;animation:mZKRXrhZ_draw 2000ms infinite alternate;}.mZKRXrhZ_97{stroke-dasharray:82 84;stroke-dashoffset:83;animation:mZKRXrhZ_draw 2000ms infinite alternate;}.mZKRXrhZ_98{stroke-dasharray:78 80;stroke-dashoffset:79;animation:mZKRXrhZ_draw 2000ms infinite alternate;}.mZKRXrhZ_99{stroke-dasharray:207 209;stroke-dashoffset:208;animation:mZKRXrhZ_draw 2000ms infinite alternate;}.mZKRXrhZ_100{stroke-dasharray:197 199;stroke-dashoffset:198;animation:mZKRXrhZ_draw 2000ms infinite alternate;}.mZKRXrhZ_101{stroke-dasharray:196 198;stroke-dashoffset:197;animation:mZKRXrhZ_draw 2000ms infinite alternate;}.mZKRXrhZ_102{stroke-dasharray:109 111;stroke-dashoffset:110;animation:mZKRXrhZ_draw 2000ms infinite alternate;}.mZKRXrhZ_103{stroke-dasharray:122 124;stroke-dashoffset:123;animation:mZKRXrhZ_draw 2000ms infinite alternate;}@keyframes mZKRXrhZ_draw{100%{stroke-dashoffset:0;}}@keyframes mZKRXrhZ_fade{0%{stroke-opacity:1;}100%{stroke-opacity:1;}100%{stroke-opacity:0;}}</style></svg>
