<svg id="heartpage" xmlns="http://www.w3.org/2000/svg" viewBox="0 0 867.87 1063.18"><title>heartpage</title><g id="page"><path stroke-width="4px" d="M841.24,491.81,768.88,450a15.65,15.65,0,0,0-1.57-.81c-.16-.08-.32-.13-.49-.2a11,11,0,0,0-1-.41c-.2-.07-.39-.11-.59-.17s-.59-.18-.87-.24-.41-.07-.62-.1-.53-.1-.79-.12-.4,0-.6,0-.5,0-.74,0-.38.05-.57.07-.47,0-.69.09a4.94,4.94,0,0,0-.55.15c-.21.06-.43.11-.63.18s-.34.16-.51.24-.39.17-.58.27l0,0-5.82,3.38-4.69,2.72-.6.36c0-.15,0-.28,0-.42,0-5.44-2.13-11.56-5.51-16.73a30.12,30.12,0,0,0-9.7-9.61l-550-317.52a15.52,15.52,0,0,0-1.56-.81c-.17-.08-.34-.13-.51-.21-.34-.14-.68-.29-1-.4s-.4-.11-.6-.17-.59-.18-.87-.24-.4-.06-.6-.1-.54-.1-.8-.12-.41,0-.61,0-.49,0-.73,0-.39.05-.59.07-.46,0-.67.09-.37.1-.56.15-.42.11-.62.18-.35.16-.52.24-.39.17-.57.27l0,0-3.58,2.08-2.24,1.3-6.27,3.64c.06-.28.09-.58.13-.88s.06-.32.07-.49a16.33,16.33,0,0,0,.09-1.74h0a28.58,28.58,0,0,0-2.58-11.3c-.05-.12-.11-.23-.16-.35-.23-.5-.46-1-.71-1.5-2.79-5.52-7-10.45-11.76-13.18a15.52,15.52,0,0,0-1.56-.81l-.52-.21c-.33-.14-.67-.29-1-.4s-.4-.11-.6-.17-.58-.18-.87-.24-.39-.06-.59-.1-.55-.1-.81-.12-.39,0-.59,0-.51,0-.75,0-.38,0-.57.07-.47,0-.69.09a4.77,4.77,0,0,0-.54.15c-.22.06-.44.11-.64.18s-.34.16-.5.24-.4.17-.59.27l0,0-3.59,2.08L127.22,90l-4.32,2.51a29,29,0,0,0-2.56-10.69c-2.72-6.24-7.36-12-12.62-15-.53-.3-1-.57-1.57-.81-.17-.08-.34-.13-.51-.21-.34-.14-.68-.29-1-.4a5.5,5.5,0,0,0-.58-.16,9,9,0,0,0-.89-.25c-.2,0-.4-.06-.6-.1s-.54-.1-.8-.12-.4,0-.6,0-.5,0-.74,0-.39,0-.58.07-.46,0-.68.09a4.94,4.94,0,0,0-.55.15c-.21.06-.43.11-.63.18s-.34.16-.51.24-.39.17-.58.27l0,0L91,69.09l-4.32,2.52c-.25-9.56-6.94-21-15.19-25.73-.52-.3-1-.57-1.56-.81-.17-.08-.33-.13-.49-.2-.35-.14-.69-.29-1-.41s-.39-.11-.59-.17-.59-.18-.88-.24-.4-.06-.61-.1-.53-.1-.79-.12-.4,0-.6,0-.5,0-.74,0-.38.05-.58.07-.46,0-.68.09-.37.1-.55.15-.43.11-.63.18-.34.16-.51.24a5.18,5.18,0,0,0-.58.28h0l-5.82,3.39-4.69,2.72L46.59,53a5.62,5.62,0,0,0-.5.35c-.15.1-.31.2-.46.32s-.31.29-.47.45-.28.25-.41.39-.27.36-.41.54-.24.3-.35.46a6.54,6.54,0,0,0-.35.64,5.29,5.29,0,0,0-.29.52c-.11.23-.2.49-.29.74s-.16.37-.23.57-.15.57-.22.86-.11.39-.16.6-.1.68-.15,1c0,.19-.06.37-.08.57a15.31,15.31,0,0,0-.07,1.54c0,.07,0,.13,0,.2h0c0,9.68,6.78,21.48,15.2,26.34h0a15.65,15.65,0,0,0,1.57.81c.16.08.32.13.48.2.34.14.7.3,1,.41s.37.1.56.16.61.19.9.25.4.06.59.1.55.1.82.12a5.81,5.81,0,0,0,.59,0c.25,0,.51,0,.75,0s.38,0,.57-.07.47,0,.69-.09a4.77,4.77,0,0,0,.54-.15c.22-.06.43-.11.64-.18s.34-.16.51-.24.39-.17.58-.27c0,0,0,0,0,0h0l3.06-1.77c.17-.11.35-.21.53-.31l6.56-3.82a23.79,23.79,0,0,0,.28,3.11c0,.09,0,.18,0,.27.1.54.2,1.08.32,1.62s.29,1.15.46,1.72c0,.06,0,.12,0,.19a35.38,35.38,0,0,0,3.2,7.37l0,.09c.19.33.4.65.6,1s.31.52.48.77l.2.29a34.36,34.36,0,0,0,4.88,5.84l-6.66-3.85c-.42-.24-.85-.48-1.27-.7-.12-.06-.25-.11-.37-.18-.3-.14-.59-.3-.89-.43l-.48-.21-.76-.32-.52-.2-.7-.26-.53-.16c-.22-.07-.44-.15-.66-.21l-.54-.13-.64-.16-.53-.1-.62-.11-.53-.07-.6-.07c-.17,0-.35,0-.52,0s-.38,0-.57,0H70.45l-.5,0-.54,0-.48.08c-.18,0-.36,0-.53.09l-.46.11-.51.12L67,100l-.49.16-.43.19-.47.19-.41.22-.45.23,0,0-3.59,2.08-2.24,1.3-8.27,4.81c-.13.07-.25.16-.37.24l-.4.25c-.14.09-.27.2-.4.3l-.38.28-.37.33-.36.32-.35.37-.34.35-.33.4-.31.38c-.11.14-.21.29-.31.44s-.19.26-.28.4-.2.32-.29.47-.18.29-.26.44-.17.34-.26.51l-.24.46c-.08.17-.15.36-.23.55s-.14.31-.21.48l-.21.58-.18.51c-.07.2-.12.42-.18.63s-.11.34-.15.52-.11.46-.16.69-.09.34-.12.52-.09.49-.13.73-.07.35-.09.53-.07.53-.1.79,0,.36-.06.54-.05.59-.07.89l0,.49c0,.47,0,1,0,1.43L42.15,558.17c0,8.31,3.08,17.6,8,25.67l.47.73.43.68c4.26,6.52,9.72,12.11,15.68,15.55l748,431.85h0c.42.25.85.48,1.27.7l.44.21c.27.14.54.28.82.4l.5.22.73.32.51.19.71.26.53.16.67.21.54.14.64.15.54.1.61.12.52.06.32,0,.25,0h0l.52,0,.58,0h1.07l.49,0,.55,0,.47-.08c.18,0,.36,0,.53-.09l.47-.11c.17,0,.34-.07.5-.12l.45-.15.49-.16.43-.18.47-.2.42-.21.44-.24,0,0,5.08-2.95,5.2-3,3.82-2.21.38-.25.39-.25c.14-.09.27-.2.4-.3s.26-.18.38-.28l.38-.33.35-.32.36-.37.33-.34c.12-.13.22-.27.34-.41l.3-.37.31-.44c.1-.14.2-.27.29-.41s.19-.31.28-.47.18-.29.26-.44.18-.34.27-.51.16-.3.23-.45l.24-.56c.07-.16.14-.31.2-.48s.14-.38.21-.58.13-.33.18-.51.13-.41.19-.62l.15-.53c.06-.22.1-.45.16-.68l.12-.53.12-.71c0-.18.07-.37.1-.55l.09-.77c0-.19.05-.37.07-.56s0-.6.06-.91,0-.31,0-.47c0-.47,0-.95,0-1.43l1.23-433.16c0-8.47-3.2-17.95-8.32-26.12a53,53,0,0,0-12.41-13.93h.22c.2,0,.38,0,.57-.07s.47,0,.7-.09l.54-.15a6.55,6.55,0,0,0,.63-.19,4.67,4.67,0,0,0,.51-.23,5.18,5.18,0,0,0,.58-.28h0l5.07-3,5.21-3,3.82-2.21a5.48,5.48,0,0,0,.49-.35,5.33,5.33,0,0,0,.46-.32,5,5,0,0,0,.47-.45c.14-.13.28-.25.41-.39s.28-.36.41-.54.24-.3.35-.46.24-.43.36-.64.2-.34.28-.52.2-.5.3-.75.15-.36.22-.56.15-.58.23-.88.11-.38.15-.58.11-.72.16-1.09c0-.17.05-.34.07-.51,0-.56.08-1.14.08-1.75a33.48,33.48,0,0,0-15.2-26.33ZM71.92,80.37c-.16-.08-.32-.15-.48-.25a22,22,0,0,1-2.93-2,29.41,29.41,0,0,1-4-4c-.41-.5-.81-1-1.2-1.54-3.86-5.24-6.39-11.8-6.38-17.55,0-.13,0-.25,0-.38l.31.16.17.09h0a23,23,0,0,1,2.93,2,29.48,29.48,0,0,1,2.72,2.55,34.11,34.11,0,0,1,2.47,3A35,35,0,0,1,70.2,71a26.31,26.31,0,0,1,1.74,9C71.94,80.13,71.92,80.25,71.92,80.37ZM738.66,467l.84-.48c0,.07,0,.13,0,.21s0,.13,0,.2h0a27.25,27.25,0,0,0,1.82,9.42,36.64,36.64,0,0,0,5.78,10.17L725.29,474l.11,0c.23,0,.47,0,.69-.08a5.7,5.7,0,0,0,.55-.16,4.54,4.54,0,0,0,.63-.18c.18-.06.34-.16.51-.23s.39-.17.58-.28h0l5.08-2.95ZM167.18,119.92c.16.08.32.15.48.25l550,317.52a25.32,25.32,0,0,1,5.65,4.58c.62.66,1.21,1.37,1.79,2.1a35.85,35.85,0,0,1,3.41,5.23,28.72,28.72,0,0,1,3.64,13.19c0,.13,0,.25,0,.37l-.48-.24-550-317.53a27.13,27.13,0,0,1-7.6-6.88c-4.14-5.35-6.91-12.22-6.9-18.23C167.16,120.16,167.18,120,167.18,119.92ZM150.83,126l1.81-1.06c0,.28-.09.57-.12.86s-.06.34-.08.52c-.05.56-.08,1.14-.08,1.74a30.86,30.86,0,0,0,4.43,15,35.7,35.7,0,0,0,3,4.43l-25.5-14.72c.18,0,.35.05.53.08s.54.1.81.13a5.81,5.81,0,0,0,.59,0c.25,0,.51,0,.75,0s.38-.05.58-.07.46,0,.68-.09.36-.1.54-.15.43-.11.64-.19a4.52,4.52,0,0,0,.5-.23,6.36,6.36,0,0,0,.59-.28h0l5.07-2.95ZM129.32,96.42l.48.25c5.51,3.18,10.31,9.5,12.76,16.13a26.15,26.15,0,0,1,1.73,9c0,.13,0,.24,0,.37l-.48-.25c-8-4.63-14.52-15.89-14.49-25.11C129.31,96.67,129.32,96.55,129.32,96.42Zm-14.8,8.76c.16,5.9,2.75,12.5,6.66,17.81.12.17.26.32.38.48.29.38.58.76.88,1.12l.33.38c.33.39.66.77,1,1.13h0c.42.46.86.89,1.31,1.32L98.14,111.86l.55.09c.26,0,.53.1.79.12s.4,0,.6,0,.5,0,.74,0,.38,0,.58-.07.46,0,.68-.09.37-.1.55-.15.43-.11.63-.18.34-.16.51-.24.39-.17.58-.28h0ZM93.14,75.53l.48.25A24.07,24.07,0,0,1,97.94,79c.45.42.9.87,1.33,1.33a34,34,0,0,1,4.94,6.86,29.13,29.13,0,0,1,3.91,13.67c0,.13,0,.25,0,.37-.16-.08-.32-.15-.48-.25-8-4.63-14.52-15.89-14.49-25.11C93.13,75.78,93.14,75.66,93.14,75.53ZM840,585l-1.22,433.16c0,.47,0,.94,0,1.39l0,.45-.06.89c0,.18-.05.34-.07.51s0,.53-.09.78l-.09.52-.12.71-.12.51c-.05.23-.1.45-.16.67s-.09.33-.14.49l-.18.62c-.05.17-.12.33-.17.49l-.21.57v0l-.21,0-.61-.11-.51-.1-.62-.15-.52-.13-.64-.2-.52-.16-.69-.26-.5-.18-.72-.31-.48-.21-.8-.39c-.14-.07-.28-.13-.42-.21-.41-.21-.82-.44-1.24-.68l-455.52-263L80.87,591.79c-10.93-6.3-20.14-20.08-23-33.24a39.85,39.85,0,0,1-.89-6.73c0-.28,0-.55,0-.83s0-.4,0-.61l.48-167.67.75-265.48c0-.48,0-.94,0-1.4,0-.15,0-.3,0-.45s0-.6.06-.89l.06-.51c0-.26.06-.52.1-.78s.06-.34.09-.51.07-.48.12-.72l.12-.51c0-.22.1-.45.15-.66l.15-.51c.06-.2.11-.41.18-.61s.11-.32.17-.49.13-.38.21-.57v0a1.52,1.52,0,0,1,.21,0l.61.11.51.09.62.16.52.13.64.2.52.16.68.25.5.19c.24.09.49.2.73.31s.32.13.48.21l.8.39.42.2c.41.21.82.44,1.23.68l748,431.85c5.79,3.34,11.09,8.77,15.23,15.1C836.69,566.79,840.07,576.41,840,585Zm1.58-58.67c-.16-.08-.32-.15-.48-.24l-72.36-41.78c-5-2.89-9.43-8.38-12-14.33a27.35,27.35,0,0,1-2.46-10.78c0-.12,0-.24,0-.36l.47.24,72.36,41.78c8,4.63,14.52,15.89,14.49,25.1C841.63,526.05,841.62,526.17,841.62,526.29Z" transform="translate(-16.06 -10.41)" fill="none" stroke="#ff7bac" stroke-miterlimit="10"/><path d="M646.33,502.51c-18.69-37.75-47.36-70.16-79.76-88.87-26.3-15.19-66.79-28.05-110.58-3.37-9.17-15.82-18.21-29.8-27-42.15-25.44-35.72-48.88-57.8-67.73-71.43l-.07-.05c-.87-.63-1.73-1.23-2.58-1.83l-.26-.18-.25-.17c-4.11-2.84-8-5.28-11.58-7.36-.9-.52-1.8-1-2.69-1.51l-.84-.45-.44-.25-.47-.24-.92-.5L338.8,283l-.23-.12c-1.16-.57-2.3-1.11-3.45-1.64l-.87-.4c-1-.46-2-.9-3.06-1.33l-.4-.17c-1.12-.46-2.23-.89-3.34-1.31l-.85-.31c-1-.36-1.92-.69-2.88-1l-.51-.18c-1.09-.35-2.17-.68-3.25-1l-.79-.22c-.92-.26-1.83-.5-2.74-.72l-.41-.11h0l-.17,0-.25-.06-.8-.18c-.7-.16-1.4-.31-2.09-.44l-.74-.14c-.88-.17-1.75-.32-2.62-.45l-.63-.1c-1-.15-2-.28-3-.38l-.67-.06c-.84-.08-1.68-.14-2.51-.19l-.66,0c-1-.05-2-.07-2.92-.07h-.6c-.82,0-1.62,0-2.42.07l-.67,0c-.94.06-1.87.14-2.8.24l-.51.07c-.79.09-1.56.2-2.33.33l-.67.11c-.9.16-1.79.34-2.67.55l-.41.1c-.77.19-1.52.39-2.27.61l-.65.19c-.85.26-1.69.54-2.52.85l-.31.12c-.74.28-1.48.59-2.2.9l-.62.28c-.8.36-1.6.74-2.38,1.15l-.18.1c-.52.28-1,.56-1.55.86l-3.34,1.94-.24.14-2.24,1.3L262.64,285l-.24.14-3.34,1.95-.63.38-.53.32c-.75.47-1.48.95-2.21,1.46l-.24.17c-.66.47-1.31,1-1.94,1.47l-.48.38c-.68.56-1.36,1.14-2,1.74l-.34.32c-.58.54-1.15,1.1-1.72,1.67l-.39.41c-.63.65-1.24,1.33-1.84,2-.13.14-.25.29-.37.44-.53.63-1,1.28-1.56,1.94-.1.13-.2.25-.29.38-.57.76-1.12,1.54-1.66,2.33l-.36.56-.14.21c-.45.68-.88,1.37-1.31,2.08-.05.09-.11.18-.16.28-.51.85-1,1.73-1.47,2.63l-.33.65c-.48.92-.94,1.85-1.39,2.82a86.91,86.91,0,0,0-6.62,22.66c-6.34,39.87,7.93,96,40.36,157.5,3.3,6.26,6.76,12.57,10.43,18.92L440.34,785.34l.51-.28.5.86,159.26-90.76.27-.15,14.1-8.19c47.93-27.31,65-82.67,45.62-148.08A228,228,0,0,0,646.33,502.51ZM265.11,284.79c.45-.42.93-.81,1.4-1.21h0l0,0h0c.6-.22,1.22-.42,1.84-.62l-.58.34-2.83,1.64ZM455.45,777.73l-.39-.67,123.48-69.48Zm150.76-86L477.34,764.26l123.05-70.11,13.6-7.91Q610.27,689.14,606.21,691.75Zm-1-.52L455.13,776.76l-.18.1L296.45,502.34c-1-1.65-1.89-3.3-2.82-4.94l-.78-1.39-2.09-3.75c-.23-.43-.47-.85-.7-1.27q-1.32-2.42-2.61-4.82c-.13-.25-.26-.5-.4-.75l-2.15-4.07-.72-1.4c-.66-1.27-1.32-2.54-2-3.8l-.51-1q-1.18-2.34-2.32-4.65l-.54-1.1c-.6-1.22-1.18-2.43-1.76-3.63-.22-.46-.44-.91-.65-1.36-.65-1.36-1.29-2.72-1.92-4.07l-.24-.52c-.7-1.52-1.39-3-2.06-4.52-.19-.41-.37-.82-.55-1.24-.52-1.14-1-2.28-1.51-3.42-.18-.41-.37-.83-.54-1.24q-1-2.22-1.89-4.42c-.05-.11-.09-.23-.14-.34-.57-1.36-1.12-2.7-1.67-4.05l-.51-1.26c-.45-1.12-.89-2.24-1.33-3.36-.14-.35-.28-.71-.41-1.06-.55-1.42-1.1-2.84-1.62-4.24-.11-.28-.21-.56-.31-.84-.43-1.15-.85-2.29-1.26-3.43-.15-.42-.29-.83-.44-1.24-.41-1.15-.82-2.3-1.21-3.45l-.26-.75c-.47-1.37-.92-2.73-1.37-4.08l-.33-1c-.34-1-.67-2.09-1-3.12l-.36-1.17c-.39-1.26-.78-2.52-1.15-3.77l-.06-.23c-.39-1.32-.77-2.62-1.13-3.93-.1-.37-.2-.74-.31-1.11-.27-1-.54-2-.79-2.95-.1-.35-.19-.71-.28-1.06-.34-1.27-.66-2.54-1-3.8l-.12-.5c-.27-1.11-.52-2.2-.77-3.29-.09-.37-.17-.73-.25-1.1-.22-1-.44-1.95-.64-2.91-.06-.29-.13-.58-.18-.86-.26-1.22-.5-2.43-.73-3.63-.06-.27-.1-.53-.16-.8-.18-1-.35-1.91-.52-2.85l-.18-1.05c-.18-1-.34-2-.5-3l-.09-.52c-.18-1.16-.34-2.31-.5-3.46l-.12-.92c-.12-.87-.23-1.75-.34-2.61,0-.32-.07-.64-.11-1-.13-1.12-.25-2.24-.36-3.34,0,0,0-.08,0-.12-.11-1.07-.2-2.12-.28-3.18,0-.31-.05-.62-.07-.94-.06-.83-.12-1.66-.17-2.48,0-.28,0-.55-.05-.82-.06-1.06-.11-2.11-.14-3.15,0-.19,0-.37,0-.56,0-.86,0-1.72-.06-2.57,0-.31,0-.62,0-.92,0-.82,0-1.64,0-2.45v-.62c0-1,0-2,.06-3l0-.71c0-.76.06-1.52.1-2.26,0-.29,0-.57,0-.85q.08-1.3.18-2.58a2.45,2.45,0,0,1,0-.27c.07-.94.16-1.86.26-2.78,0-.25,0-.5.08-.76.08-.7.16-1.39.25-2.07,0-.25.06-.5.1-.74.12-.89.24-1.78.38-2.65,0-.08,0-.17,0-.26.13-.78.26-1.56.41-2.33,0-.25.09-.5.14-.75.13-.66.26-1.31.4-2,0-.2.09-.4.13-.6q.27-1.23.57-2.43c.05-.17.09-.34.13-.5.17-.65.34-1.29.52-1.92.06-.23.13-.47.2-.7.18-.65.38-1.29.58-1.93l.12-.4c.25-.75.5-1.5.76-2.23.06-.19.13-.38.2-.57l.63-1.68.24-.61c.28-.7.56-1.38.86-2.06l0-.05c.3-.69.61-1.36.93-2l.27-.57c.25-.51.5-1,.76-1.5l.26-.52c.34-.64.69-1.27,1-1.89l.16-.27c.31-.53.62-1.05.94-1.56.11-.18.22-.36.34-.53.3-.47.6-.94.91-1.39.09-.13.17-.26.26-.38.39-.57.79-1.13,1.19-1.67l.29-.38c.32-.42.65-.85,1-1.26.12-.16.25-.31.37-.46.38-.46.76-.9,1.14-1.34l.18-.2c.44-.5.89-1,1.35-1.45l.37-.39c.36-.35.71-.71,1.08-1.05l.4-.39c.48-.44,1-.88,1.45-1.3l.09-.08.26-.21.05,0,1.29-.45.46-.15c.59-.19,1.17-.37,1.77-.54l.35-.09,1.46-.38.6-.14,1.28-.27.62-.12c.49-.1,1-.18,1.47-.26l.41-.07c.63-.09,1.26-.18,1.9-.25l.49-.05,1.46-.14.66-.05,1.38-.08.64,0q.87,0,1.74,0h.26l2,0,.6,0,1.48.07.71.05,1.48.12.65.06,2.11.25.11,0,2,.3.67.12,1.54.28.74.15c.54.1,1.07.22,1.61.34l.61.14,2.22.54.4.11q.93.24,1.86.51l.74.22,1.59.48.77.24,1.77.6.54.18c.77.27,1.54.56,2.31.85l.57.22,1.79.7.8.33,1.65.7.77.33c.67.3,1.35.6,2,.92l.36.16c.8.37,1.6.76,2.41,1.16l.69.34,1.76.89.84.44,1.72.92.76.42c.82.45,1.64.91,2.47,1.39,34,19.61,72.57,59.58,109.48,123.51,37.46-21.35,76.44-16.68,110.58,3C642.61,474.69,699.07,631.56,605.22,691.23Z" transform="translate(-16.06 -10.41)" fill="none" stroke="#ff7bac" stroke-miterlimit="10"/><path stroke-width="4px" d="M855.79,474.18,60,14.71c-.48-.28-1-.54-1.43-.79l-.45-.22-1-.47L56.56,13l-.84-.36c-.19-.08-.39-.14-.58-.21l-.79-.3-.58-.18c-.26-.08-.51-.17-.77-.24l-.57-.14-.75-.19-.59-.11-.7-.13-.59-.07L49.13,11l-.58,0-.66,0a5.42,5.42,0,0,0-.57,0h-.63l-.55.05-.61,0-.54.09-.59.1c-.18,0-.35.08-.53.12l-.56.14-.51.17c-.18.06-.37.11-.55.18l-.48.2-.53.22-.46.24c-.17.09-.34.17-.5.27l-.05,0L26.13,21l-.42.26-.44.29c-.16.1-.3.22-.45.33s-.29.21-.42.32-.29.25-.43.38l-.4.35-.4.41-.37.39c-.13.15-.25.3-.37.46s-.24.27-.35.42l-.35.49-.32.46c-.11.17-.21.35-.32.53s-.2.32-.29.48-.19.39-.29.58-.18.34-.26.51-.18.41-.27.62-.16.35-.23.54-.16.44-.24.67-.14.36-.2.56-.14.47-.2.7-.12.39-.17.59-.12.5-.18.76-.1.39-.14.6-.09.54-.14.81-.07.4-.1.61-.08.59-.11.88-.05.4-.07.61-.05.67-.08,1,0,.36,0,.55c0,.53,0,1.07,0,1.61L16.56,562c0,17.59,12.33,39,27.64,47.87L840,1069.29c.49.28,1,.54,1.44.79l.44.21c.32.17.65.33,1,.48l.54.23c.29.13.57.26.85.37l.57.21.8.3.59.18.76.24.59.14.73.19.59.11.7.13.59.07.68.08.57,0,.66,0a5.42,5.42,0,0,0,.57,0h.63l.56,0,.61,0,.54-.09.59-.1.52-.12.57-.14.5-.17c.18-.06.37-.11.55-.18l.49-.2.52-.22.47-.24.5-.27,0,0,8.27-4.81,2.24-1.3,3.58-2.09c.15-.08.29-.18.43-.27l.44-.28c.15-.1.3-.22.45-.34l.42-.31.43-.38.39-.35c.14-.13.27-.28.4-.42l.37-.38.38-.46c.11-.14.23-.27.34-.42l.35-.49c.11-.16.22-.3.32-.46l.33-.54c.09-.16.19-.31.28-.48s.2-.38.3-.58.18-.33.26-.51.18-.41.26-.61l.24-.54.23-.66c.07-.19.14-.37.2-.57s.14-.47.21-.71.12-.38.17-.58.12-.52.18-.78.09-.38.13-.58.1-.54.14-.82.08-.4.11-.61.07-.58.1-.87.06-.41.08-.61.05-.68.07-1c0-.18,0-.35,0-.53,0-.53,0-1.07,0-1.62l1.48-523.2C883.48,504.45,871.11,483,855.79,474.18Zm12,341L867.14,1053c0,.54,0,1.06,0,1.57,0,.18,0,.35,0,.52,0,.33,0,.67-.07,1s0,.4-.08.59-.06.58-.1.86-.07.39-.1.58-.09.55-.14.81-.09.39-.14.59-.1.49-.16.73l-.18.59c-.06.22-.12.45-.19.67s-.13.37-.2.56-.15.43-.23.63-.15.35-.22.53l-.26.6,0,.08-.28,0-.67-.08-.56-.07c-.23,0-.46-.08-.7-.13l-.56-.1-.73-.18-.56-.14-.75-.24-.56-.17-.78-.29c-.18-.07-.37-.13-.55-.21l-.84-.35-.52-.23c-.31-.14-.63-.3-.94-.46l-.43-.21c-.46-.24-.93-.49-1.4-.76L58.3,600.81c-14.9-8.6-27-29.52-26.93-46.64l.81-285.39L32.85,31c0-.53,0-1.05,0-1.57,0-.17,0-.34,0-.51,0-.34,0-.67.07-1s0-.4.07-.6.07-.57.11-.85.06-.38.1-.57.09-.55.14-.82.08-.37.13-.56.11-.51.17-.76.11-.38.17-.56.13-.47.2-.7.13-.36.19-.55.15-.43.24-.64.15-.35.22-.53l.26-.6s0,0,0-.08l.28,0,.66.08.57.07c.22,0,.45.08.68.13l.58.1.69.18.59.14.72.23.59.18.77.29.57.21c.27.1.54.23.81.34l.54.24.91.44.47.23c.46.24.92.5,1.39.76L443.78,253.45,841.7,483.19c14.9,8.6,27,29.52,26.93,46.64Z" transform="translate(-16.06 -10.41)" fill="none" stroke="#ff7bac" stroke-miterlimit="10"/></g><path id="heart" d="M545,486.82C526,454,500.6,427.5,472.68,411.38q-4.12-2.38-8.31-4.46c-17.51-8.67-35.11-12.9-52.33-12.7-2.16,0-4.3.12-6.44.29a99.42,99.42,0,0,0-19.05,3.34A108.47,108.47,0,0,0,362,408.12c-31.59-54.63-66.72-95.59-101.61-118.49q-4-2.62-8-4.9c-28-16.16-53.57-19.1-72.74-8.17l-14.09,8.19c-21,11.94-31.41,38.86-29.38,75.79,2.29,41.59,20.23,92.57,51.89,147.4l158.75,275,159.78-91h0l14.1-8.2c32-18.26,50.36-48.46,53-87.34C576,561.79,565.84,522.91,545,486.82ZM172.64,281.46l1.47-.51-2.64,1.53ZM518,684.44c-2.16,1.61-4.4,3.13-6.72,4.6L360.94,774.71l-.43-.74,9.53-5.44L506.14,691,520,683C519.31,683.45,518.66,684,518,684.44Zm31.87-41.15-.27.64-.34.72c-.33.74-.67,1.48-1,2.22a.83.83,0,0,1-.07.13c-7.8,16-20,30.18-37.37,41.17L384.14,760.34,361,773.56,202.7,499.46C171.17,444.84,153.29,394.09,151,352.71c-.82-14.91.4-28.17,3.54-39.46q.72-2.6,1.58-5.07c.29-.82.59-1.63.9-2.42.61-1.6,1.28-3.14,2-4.64a61.83,61.83,0,0,1,3.48-6.39,51.91,51.91,0,0,1,10.65-12.4c18-6.68,40.68-2.74,65.16,11.4q3.93,2.26,7.91,4.88C281,321.45,316.1,362.4,347.64,417c38.43-21.32,77-16.38,110.53,3,29.19,16.85,54.53,44.62,72.23,75.29,15.46,26.78,26.06,57.42,28.45,87.08,0,.11,0,.21,0,.32.14,1.78.25,3.57.33,5.34,0,1.11.08,2.21.11,3.31,0,.48,0,1,0,1.43C559.59,610.54,556.68,627.74,549.87,643.29Z" transform="translate(-16.06 -10.41)" fill="#ffd4fe" stroke="#000" stroke-miterlimit="10"/></svg>