<?xml version="1.0" encoding="utf-8"?>
<!-- Generator: Adobe Illustrator 23.0.6, SVG Export Plug-In . SVG Version: 6.00 Build 0)  -->
<svg version="1.1" id="lightbulb" xmlns="http://www.w3.org/2000/svg" xmlns:xlink="http://www.w3.org/1999/xlink" x="0px" y="0px"
	 viewBox="0 0 569.9 428.9" style="enable-background:new 0 0 569.9 428.9;" xml:space="preserve">
<style type="text/css">
	.st0{fill:none;stroke:#FF7BAC;stroke-miterlimit:10;}
</style>
<g id="bulb">
	<path class="st0" d="M220,40.8C270.8,15.6,326.1,3.1,383,9.5c55.8,6.3,124.5,30.2,147.1,87.1c9.7,24.4,10.3,51.6-0.8,75.8
		c-27.9,61.1-94.6,80.7-153.2,98.2c-27.2,8.2-53.2,18-79.1,30.3c-12,5.7-23.5,12.1-34.9,19c-12,7.4-28.5,25.4-42.8,26.3
		c0.2,0.3,1.2,4,0.9,4.2c-3.8,3-4.7,1.3-9.3,2.4c-4.7,1.2-7.7,4.6-11.3,7.6c-3.4,2.8-8.4,4.9-11.2,8.3c-3.8,4.6-3.5,7.4-9.2,10.6
		c-4.5,2.6-4,2.6-6.7,5.4c-2.3,2.3-0.9,3.3-5.2,5.6c-3.5,1.9-5.2,1.7-7.8,4.2c-3,2.8-2.4,4.5-7.1,7c-4.5,2.4-9.5,5.2-14.5,6.3
		c-5.9,1.3-10.6-1.8-15.9-1.8c-6.2,0-12.4,4.4-19.2,2.8c-5.7-1.3-11.7-5.2-17.1-7.5c4.7,9.4-8.6,1.1-12.3,0.8
		c-4.5-0.4-8,3.2-12.2-0.7c-1.1-1.1-0.2-3.9-1.2-5c-1.9-2-5.3-1.9-7.2-3.7c-2.6-2.4-1.4-5-3.5-7.5c-2.8-3.4-11.3-2.6-13.9-6.2
		c-2-2.8,0.2-7.2-1-9.6c-0.8-1.5-4.5-2.8-5.7-4.7c-3.1-4.7-4.1-15.6-2-20.5c0.8-1.9,1.2-2.4,2.6-4c0.7-0.8,2.4-0.6,3-1.3
		c0.8-1,2.2-1,3-2c0.7-1-0.8-3.6,0-4.5c2.4-2.9,7.5-3.1,9.8-5.8c1.7-2.1,0.4-5.5,2.2-7.8c2.3-2.9,8.7-1.9,10.4-4.3
		c1.4-2-0.4-5.2,0.8-7.3c2.6-4.3,9.4-1.8,12.6-4.6c-1.1,0.9,2-5.9,1.9-5.7c0.4-0.7,1.4-1.1,1.9-1.8c0.6-0.9,1.9-1.4,2.3-2.4
		c1.8-4.2,0-4.4,2.7-8c1.4-1.9,4.2-2.9,5.8-4.9c5.7-7.2,10.8-16.8,16.5-24.6c8.8-12.3,17.2-23.4,24.2-36.8
		c11.8-22.4,15.4-52.3,17.3-77.7C146.9,96.8,182.2,60.1,220,40.8z M536.3,121.8c-0.6-5.9-1.8-11.5-3.9-17.1
		C533.9,109.9,535.9,117.7,536.3,121.8z M525.1,171.6c21.9-45.7,7.3-85.2-31.2-115.9c37.7,31.1,50.5,82.7,25.2,126
		C521.3,178.4,523.4,175.1,525.1,171.6z M528,107.3c1.1,3.7,2,7.5,2.8,11.3C530.4,114.6,529.3,111.1,528,107.3z M159.2,278.5
		c-9.2,8.5-18.4,17-27.1,26c9.5,4.5,19.2,8.7,28.8,12.8c7.6,3.2,7.7,4.4,13.7-0.2c6.2-4.8,11.5-11,17.3-16.3
		c12.8-11.5,27.3-21,40.7-31.8c6.4-5.1,7.9-4.9,7.6-11.4c-0.1-3.5-2.4-7.1-2-10.7c0.9-9.2,14.6-18.2,21.3-24.5
		c6.9-6.6,13.9-13.1,20.9-19.6c4.4-4,9.2-10.4,15-12.3c-1.8-2.1-3.1-6.9-4.9-7.7c0.7,1.4,0.5,3.3,1.1,4.7c-8.7,0.1-7.9,2.2-13.5-3.6
		c-1.5-1.6-0.3-7-3.6-3.6c6.2,3.3,1.8,8-0.7,11.3c-4.3,5.5-10.9,10.2-15.9,15c-11,10.5-21.6,23.2-33.9,32.1
		c-9.2,6.7-19.6,1.9-29.5,6.3c-5.7,2.5-10.5,9.4-14.8,13.7C172.9,265.4,166.1,272,159.2,278.5z M232.7,196.7
		c-4.3,1.2-13.1,16.9-15.9,20.4c-5.4,6.6-11.2,12.9-16.5,19.5c14.6-1.6,16.3-0.9,27.5-11.2c6.6-6.1,12.7-12.7,19.3-18.6
		c6.4-5.7,12.7-11.5,18.8-17.5c0.8-0.8,5.9-4.7,5.8-5.9c-0.2-2.2-15.8-9.7-18.5-9.3C243.8,175.4,241.1,194.1,232.7,196.7z
		 M161.9,263.3c-1.4,2.3-6.5,8.9-6.1,10.8C159.2,271,164.7,268.3,161.9,263.3z M99.3,268.4c-3.7,6.2-18,15.8-7.6,20.2
		c-0.8-8.2,9.1-22.5,13.6-29.4C103.1,262.1,101.1,265.2,99.3,268.4z M115.8,245.2c-1.6,2.5-4,4.5-5.3,7.3c3-3.3,5.8-7.2,8.3-10.9
		C117.8,242.6,116.7,243.9,115.8,245.2z M160.4,102c-8.5,16.7-14.1,30.4-15.2,49.5c-0.8,15.3-4.6,30.7-7.8,45.8
		c-1.2,5.6-2.2,13.1-4.4,18.1c-3,7.1-9.3,13.9-11.2,21.6c11.8-17,18.4-36.7,22.3-56.8c5.6-29.4,3.5-58.8,20.8-84.9
		C163.3,97.4,161.8,99.7,160.4,102z M208.8,59C190.1,71.6,173,88.8,162,108.6c-11,19.9-9.2,39-12.8,60.3c-3,18-6.6,35.9-14.1,52.6
		c-7.7,16.9-19.1,29.5-28.9,44.8c-3.1,4.8-7.4,11.6-9.5,16.9c-3,7.6,0.9,6.5,8.2,9.6c3.8,1.6,11.4,6.5,15.8,5.6
		c7.2-1.6,17.3-15.8,22.4-20.8c9.7-9.4,15.9-18.9,25.5-27.7c10.3-9.4,22.1-13.2,31.3-24c11.5-13.6,22.5-27.6,33.8-41.4
		c4.3-5.3,8-11.1,10.6-16.4c0.4-0.7-1.2-2.8-0.6-3.6c0.2-0.2,0.3-1,0.5-1.3c-0.9,1.5,5.8-2.1,5.7-2c3.8-3,6.9-13.5,9-17.8
		c3.9-7.9,11.9-18.2,13.4-27.1c0.6-3.5-1.6-7.2-0.3-10.7c3.8-9.9,5.9-1.7,8.4,1.1c0.6,0.7,0.6,2.7,1.2,3c1.9,1,3.3-3.6,4.8-2.9
		c0.4,0.2,3.2,5.5,2.8,4.7c2.2,5.3,3.6,9.4-4.3,7.3c-4.9-1.3-5-6.5-9.4,3.5c-6.7,15.2-13.4,30.4-20.7,45.4
		c5.9,2.6,11.9,6.1,17.5,5.8c6.9-0.4,6.7-0.9,14.1,1.6c6.5,2.2,5.3,1.7,10.1-1c7.2-3.9,13.8-12.6,19.9-18.3
		c5.7-5.2,13.9-10.7,17.9-17.5c-6-2.6-18.8-3.2-18.3-12.5c-0.3,0.5-1.7,5-1.6,5c-1.5-0.1-7.7-3.3-8.8-4.6c-4.3-5.1,3.1-13.8,5.3-4.3
		c3.8-3.4,5.7-3.3,5.3,2.7c3.1-3.7,5.5-4.8,5,2.1c3,0.2,5.2-8.8,5.3,2c2.9-0.6,5.8-6.1,5.4,2.4c4.5-1.2,2.7,4,7.3,1.6
		c0.2,0.8,0.4,1.7,0.6,2.5c0.4-0.1,0.7-0.2,1.1-0.4c-2.8-12.6,14.2-6.9,8.6,1.4c2.7-2.2,2.8,1.8,2.9,3.8c2.9-0.6,5.2-7.5,5.1,1.6
		c6.4-2.9,4.4,3.6,5.3,9.2c-3.8,0.5-11.3-5.1-15.5-6.3c-6.7-2-7.1-1.1-12.2,3.8c-11.3,10.9-22.9,21.7-34.3,32.5
		c5.2,2,9.1,3.5,11.9,7.9c1.1,1.7,4,11.7,4,12.6c-2.1,1.7-13.8-5.2-18.3-3.5c-1.4,0.5-2.4,1.9-3.6,2.7c-10,6.9-18.7,16.9-27.6,25.1
		c-6.4,5.9-25.9,17.4-24.9,27.1c0.1,0.6,0.7,1.4,0.9,1.9c2.3,5,2.2,3.4,6.6,2c6.9-2.2,14.9-11.4,20.8-15.7c6.9-5.1,14-10.1,21.1-15
		c6.7-4.7,13.5-9.1,20.3-13.8c2.4-1.7,7.7-3.8,9.1-6.2c2-3.6-1.8-3.6-2-9.2c8,2.8,10.6,3.3,17.9-1c7.8-4.6,15.6-9.8,23.7-13.9
		c11-5.6,22.1-11.1,33.7-16.2c-4-2.2-32.9-10.1-28.3-18.6c0.5-0.9,4.2-0.3,4.6-0.4c0.4-0.1,0.1,2.6,0.7,2.6c1.3,0,6-2.5,6.1-2.5
		c1.6,0.4,2,3.2,1.9,5c2.9-1.7,1.9-0.5,3.2-0.2c-1.3-0.3,5,1.4,3.1,0.7c2.5,1,6-4,5.4,3.2c3.1-3,4.6-2.9,4.7,2
		c2.9-2.7,5.2-1.4,5.1,2.5c2.4-2.6,5-3.8,5.2,0.8c5.4-2.6,5.1-1.6,6.4,1.7c2.4,5.9-3,6.8-8.2,8.5c-21.6,7.1-52.2,19.8-70,36.2
		c-0.2,0.1-3.1,4.4-2.3,3.9c-2.2,1.5-7.3,1.7-10.3,3.3c-6.9,3.6-12.8,9.2-19.2,13.6c-9.1,6.2-18.2,12.4-27.1,19
		c-7,5.2-14,10.5-21,15.6c-6.2,4.5-5.6,5.7-8.7,11.5c-6.3,11.4-20.3,17.7-30.8,24.2c-11.9,7.4-22,19.6-31.9,29.4
		c8.1,3.7,17.2,9.6,26.1,10.9c12.4,1.9,20.9-6.9,30.1-13.7c21.6-15.9,45-27.7,69.3-38.7c45.3-20.4,95.7-27.5,139.9-49.9
		c44.4-22.5,96.1-70.6,79.7-126.1c-14.7-49.3-69-75.3-115.3-85.9C344.6,7.9,267.4,19.9,208.8,59z"/>
	<path class="st0" d="M294.1,113.5c0.5,0.2,0.4,1.2,0.6,1.5c2.1,3.3,3.3-3,5.3-2.1c1.4,0.6,2.3,3.5,3,5.5c0.3,0.8,2.1,5.9,1.4,6.7
		c-1.3,1.6-9.6-2.6-10.8-3.8C292.3,120,288.3,111,294.1,113.5z"/>
	<path class="st0" d="M216.7,247.4c1.8,0.8,3.3,5.2,2.4,6.4c-1,1.3-10.3-0.1-11.3-2C204.1,245.1,211.8,245.3,216.7,247.4z"/>
	<path class="st0" d="M227.5,262.2c-2-1.3-7-8.9-6-11.6C223.4,245.7,231.8,265.1,227.5,262.2z"/>
	<path class="st0" d="M188.9,261.4c20.7-12,30.4,17.1,10.4,19.5c-8,0.9-17-4.6-15.1-13.7C184.9,264.4,186.5,262.8,188.9,261.4z
		 M197,268.8c0.2,0.8-2.2,3.7-2.2,4.9c4.1,0.2,9-0.5,11.3-4.4c-1.9-2.7-6.7-3-9.6-3C196.7,267.1,196.8,267.9,197,268.8z"/>
</g>
</svg>
