<svg data-name="Layer 1" xmlns="http://www.w3.org/2000/svg" viewBox="0 0 333.3 469.3">
  <path stroke="#ff7bac" d="M28 391l2-3 10-10 6-2v1l-2 3-1 2c-3-1-3 1-3 3l-1 3v17l-4 8h5l2 6c-4 2-4 2-4-3-9 0-9 10-16 13-4-5-2-11-2-16l4-13z" stroke-width=".5" fill="none"/>
  <path stroke="#ff7bac" d="M43 382l1-2h9c-4 3-1 4 1 5l-4 12 2 5a81 81 0 010 10l-2-1-2 5 1 15a28 28 0 01-1 5l-1-2-4-9-1-6-2-6-1-8v-17l1-3z" stroke-width=".5" fill="none"/>
  <path stroke="#ff7bac" d="M43 425l4 9-2 2c1-4-6-7-2-11zM41 423v0zM274 451l-2 3c-3 1-6-2-10 1l-2-1-5-4-3 5h-1l1-11-1-4a88 88 0 000-9l-2-4v-7l4 3v-20a42 42 0 002-3 29 29 0 002-3c-4-2-2-6-2-9l19 12 9-30 3-6 2 4c-1 7-3 13-3 20l-7 57c-5 1-6 2-4 6zm-14-9l-1 3a5 5 0 001 2v-5zm-5 3h-1a1 1 0 001 1v-1z" stroke-width=".5" fill="none"/>
  <path stroke="#ff7bac" d="M274 451c-2-4-1-5 4-6l7-57c0-7 2-13 3-20l-2-4 2-5c8 0 9-2 10-10a56 56 0 011-8l3-13 1-2 2 4a96 96 0 01-1 14l-11 74-4 28v7l-7-3h-5z" stroke-width=".5" fill="none"/>
  <path stroke="#ff7bac" d="M277 450h3zM7 168c5-6 3-13 2-20a39 39 0 0113-21l7-5v14h2l15-19c0 5 1 9-1 13-5 10 0 21 0 31v4l-10 47-2 11-1 5v2l-2 11a168 168 0 00-1 6l-1 2-1 9-4 8-1-2v-9l-1-7-4 3-5-6-5-19 1-6-4-2-3-17H0l5-9 7 9c1 1 2 3 4 1 3-5 6-10 4-16-2-9-5-17 0-26v-1h-5c-1 5-3 8-8 9zm16 14l2 1 3-14h-2z" stroke-width=".5" fill="none"/>
  <path stroke="#ff7bac" d="M23 307l-2-12 2 2 2 3a13 13 0 000-3c-1-8-2-17 1-25a13 13 0 011 4c1 7 1 16 7 21 5 4 7 8 8 14 0 4 3 8 4 11l12 3c5 0 3 3 3 5v10l2 13c6 4 9 9 9 19l-6 1-4-7-4-3c-5 0-9-2-10-7l-1-2h-1l-1 6h-1l-7-11-4-15 3-2v-4l-5 2c0-3-4-6 1-8v-4c-1-5-5-9-5-15zm35 53c5-7-5-13-3-18-3-4-6-9-10-3l-4-3-1 9z" stroke-width=".5" fill="none"/>
  <path stroke="#ff7bac" d="M23 307l4-4c0 6 4 10 5 14v5c-5 2-1 5-1 7l5-2v5l-3 2 4 15-4-1a18 18 0 01-3-3l-4-10-2-22-1-6zm7 11v-1l-1 1 1 1z" stroke-width=".5" fill="none"/>
  <path stroke="#ff7bac" d="M40 378l-10 10-3-37 1-5 2 3 5 7z" stroke-width=".5" fill="none"/>
  <path stroke="#ff7bac" d="M26 272c-3 8-2 17-1 25a13 13 0 010 3l-2-3-2-2v-9-12l1-4v-2h4z" stroke-width=".5" fill="none"/>
  <path stroke="#ff7bac" d="M30 349l-2-3c-1-3-6-6-2-11l4 10a18 18 0 003 3zM26 268h-5l1-4 1 2 4-8 1 3v7zM17 251l4-3 1 7zM22 270l-1 5 1-5zM21 284v0z" stroke-width=".5" fill="none"/>
  <path stroke="#ff7bac" d="M7 168c5-1 7-4 8-9h5v1c-5 9-2 17 0 26 2 6-1 11-4 16-2 2-3 0-4-1l-7-9v-5h3l1-1-3-2-2-7v-2l3-7z" stroke-width=".5" fill="none"/>
  <path stroke="#ff7bac" d="M4 218l4 2-1 6zM4 177l2 7H3l-1-4 2-3z" stroke-width=".5" fill="none"/>
  <path stroke="#ff7bac" d="M3 184h3l3 2-1 1H5l-2-3z" stroke-width=".5" fill="none"/>
  <path stroke="#ff7bac" d="M80 380c-3 0-5 1-6-2l-5-2-16 4h-9l2-3v-1l-6 2-5-22 4 3 4 4 12 10c1 1 1 5 4 3l7-3 6-1h7zM39 405l1 8h-5l4-8zM43 382l-3 3c-1-2 0-4 3-3zM40 385l-1 3 1-3z" stroke-width=".5" fill="none"/>
  <path stroke="#ff7bac" d="M270 36c1 8 4 13 11 17 4 1 5 8 7 12a134 134 0 016 14l4 13 2 8 2 6 3 2a104 104 0 016 11 92 92 0 013 11l2 8 4 4 1 4 1 2 3 17-1 10 2 3 1 6-1 6 3-3 1 4v1a1 1 0 011 1l2 6c2 7-1 12-4 18h-2l1-6c2-5-1-9-2-13h-2l-1 17h-5l-1-6h-1l-1 5c0 5-2 9-5 13l-8 12-7 8h-1l-1-3-1-11-3-21-3-20-3-15-1-4 2-19c10 5 13 14 17 22 4 7 6 16 9 25l2-1c-1-7-1-15-4-21-5-9-5-18-7-27v-4l4 3c-1-6-1-12-3-16l-10-17c-3-9-4-20-12-27v-1c-3-6-5-11-11-12l2-7c-7-5-11-10-8-17l-14-2h-3a13 13 0 01-2-1l1-2 1-4c0-1-11-2-12-1l-10 4-1-2c-3-5-8-4-13-4l-1-1-10-6c4-9 5-12 3-16l-3 7-2-5c-4-3-6-7-4-11h2l3 1 3 3 2-3 2 13v11h1l2-12c0-9 3-11 11-9l5 4 6 1h2l7 2 6 1c3 6 4 6 8 2l2 4 1 1a2 2 0 000 1l3 3 2 5 3-2 4 5zm-37-4l-1-1-2 1a15 15 0 01-3 1c-4 2-5 3 0 8z" stroke-width=".5" fill="none"/>
  <path stroke="#ff7bac" d="M295 247l7-8 8-12c3-4 5-8 5-13l1-5h1l1 6h5l-2 5c-3 1-1 3 0 4-6 11-2 33-2 33l-3-2-6 5 3-13a21 21 0 00-6 7c-1 3-1 6 3 7-4 5-6 9-5 15v3l-1 13 1 9-1 6v2l-1 1-3 4-1-8c-6-1-6-1-5 5 1 4 3 8 2 11-2 5 2 10-1 15h2l3-16 2 7-3 13a56 56 0 00-1 8c-1 8-2 10-10 10l-14-5a16 16 0 001-3v-4l-6-3c-4 2-7 3-9-1h-2v8c-5-1-10-18-7-22l5 2c2 0 4-2 5-4l13-7 1 2 8-3-3-5h7l-1-10c-1-3-1-6 4-7l3-5v-2c4-7 2-15 3-22l-1-21z" stroke-width=".5" fill="none"/>
  <path stroke="#ff7bac" d="M316 264c-4 3-9 6-9 11l-2 1c-1-6 1-10 5-15v-1l6-5 3 2s-4-22 2-33v-4l2-5 1-17h2c1 4 4 8 2 13l-1 6c-4 5-4 5-1 6l-1 3c-6 3-5 9-6 14" stroke-width=".5" fill="none"/>
  <path stroke="#ff7bac" d="M302 328l-2-6-3 15h-2c3-5-1-10 1-15 1-3-1-7-2-11-1-5-1-6 5-5l1 8 3-4 1 6-1 2v8z" stroke-width=".5" fill="none"/>
  <path stroke="#ff7bac" d="M326 178l-2-3 1-10z" stroke-width=".5" fill="none"/>
  <path stroke="#ff7bac" d="M304 292l1-13-1 13z" stroke-width=".5" fill="none"/>
  <path stroke="#ff7bac" d="M326 223c-3-1-3-1 1-6h2l-3 6z" stroke-width=".5" fill="none"/>
  <path stroke="#ff7bac" d="M304 316l-1-6 1-1c3 3 3 5 0 7zM303 322v-4l3 3z" stroke-width=".5" fill="none"/>
  <path stroke="#ff7bac" d="M333 199l-2-6 2 6z" stroke-width=".5" fill="none"/>
  <path stroke="#ff7bac" d="M304 307l1-6-1 6z" stroke-width=".5" fill="none"/>
  <path stroke="#ff7bac" d="M329 187l-3 3 1-6zM322 148l-1-2zM330 192v-1zM193 10c-2 4-1 8 4 11l2 5 3-7c2 4 1 7-3 16l10 6-14-3c-10-2-19-6-29-3l-11 1-17 5-18 6c-16 5-29 14-40 26l-5 7a1 1 0 00-1 1l-6 8-2 2-9 10h-5a45 45 0 012-5 26 26 0 012-4l8-11 3-12-4 2-4 2 1-4-7 6-4 7v-1c-1-1-2-3-1-4 4-12 6-24 17-32l14-14 11-8c4-3 11-2 15-8 3 4 6 3 10 3l1-1-6-4 11-1 9-2c4-2 6-5 10-6 1-1 5 0 6 1 3 3 5 2 7-1l6 5c2-2 11 2 13 6l2-2c4 3 5 4 8 2v-1l2-2v-1zm-66 16l-11 12c4-1 2 7 9 4 3-1 7-1 7-8l4 7c4-3 8-5 11-9 2-2 0-10-3-12 0 4-2 6-6 5l-1 5-2-3-3 7zm26-5l-1 3c-2 2-3 5-2 7a3 3 0 003 1 3 3 0 001-2l-1-9z" stroke-width=".5" fill="none"/>
  <path stroke="#ff7bac" d="M105 15c-4 6-10 5-15 8l-11 8c3-7 9-11 17-13l3-1c5-6 12-7 19-9 5-1 10-4 15-4 2 0 3-2 5-3l6-1a36 36 0 0110 2l17 7c2 0 2 2 3 3l-2 3c-2-4-11-8-12-6l-7-5c-2 3-4 4-7 1-1-1-4-2-6-1-4 1-6 4-10 6l-9 2-11 1z" stroke-width=".5" fill="none"/>
  <path stroke="#ff7bac" d="M34 96a30 30 0 013-3c5-3 9-6 12-12v1l1 3-3 6-2 4c-1 5-3 8-7 11-3 1-2 3 2 5l-6 4c0-4-3-3-5-4l1-5 4-1a11 11 0 003-6l-3-3zM218 14c-7-2-11 0-10 9l-2 12h-1V24l-2-13c2-4 5 1 7-1l4 1 4 1 1 1z" stroke-width=".5" fill="none"/>
  <path stroke="#ff7bac" d="M29 111c2 1 5 0 5 4l-5 7-7 5c0-6 2-12 7-16z" stroke-width=".5" fill="none"/>
  <path stroke="#ff7bac" d="M210 10c-2 2-5-3-7 1h-6l-2-1h-2l-9 1c1-1 2-3 4-3h19l3 2zM270 36l-2 5-4-5c0-4-2-4-6-3l-2-3c5-1 10-3 13 4a10 10 0 011 2z" stroke-width=".5" fill="none"/>
  <path stroke="#ff7bac" d="M34 96l3 3a11 11 0 01-2 6l-4 1 3-10z" stroke-width=".5" fill="none"/>
  <path stroke="#ff7bac" d="M218 14l1-1 15 5-3 1h-1l-7-1z" stroke-width=".5" fill="none"/>
  <path stroke="#ff7bac" d="M231 19l3-1 11 4-6-1-8-2z" stroke-width=".5" fill="none"/>
  <path stroke="#ff7bac" d="M182 15c-3 2-4 1-7-2zM218 12l-4-1c2-2 3-2 4 1zM184 11l-2 2zM256 29l-1-1zM295 247l1 21c-1 7 1 15-3 22v2l-3 5c-5 1-5 4-4 7l1 10h-7l3 5-8 3-1-2-13 8c-1 1-3 3-5 3l-5-2c-3 4 2 21 7 22v-8h2c2 4 5 3 9 1l6 3v4a16 16 0 01-1 3l14 5-2 5-3 7c-4-3-7-3-10 0l-4 1-5 1c-4 5-8 8-14 9h-2a3 3 0 00-1 0c-4-5-12-6-17-3l-6 2v-5a15 15 0 011-1c3-1 5-4 3-4l-3 3a19 19 0 01-1-3c0-5 0-10-7-9l-2-1c-7-6-7-6-14 0a6 6 0 01-2 1l-2-8-5-7-4 8c1 5-1 5-4 5-4 1-8 2-9 6l-1-8-2 3-3-5-3 2c-4-3-7 1-10 0-3-6-6 0-9 0v-2l-1-5h-11l-1-1-1 3-1-4-7 1c-2 7-8 5-13 4l-1-5a6 6 0 00-4-2l-7 2-1 6-2-4h-1c-1 4-2 8-7 8l-3 5 1 1 1-2 1 5 5-1 4 4 2 6-4 3-3-2-2-1-8-5-6-5 2-1 2 1-1-8c2-6 10-7 12-13h1l5-4 2-1c4 0 7-5 11-2h2c2-2 4-1 6 1s4 2 6-1c1-1 4-2 5-1l5 2 1-4v-1a17 17 0 003-2c2-4 10-7 12-4l8 12 1 2c5 2 12-3 12-7l2 1c2 5 6 5 11 4a20 20 0 0111 0l2 7h2c0-5 3-6 8-6a14 14 0 008-4c5-4 4-9 1-15v-6a87 87 0 017-12c3-3 5-5 10-5a6 6 0 005-2 58 58 0 006-9c2-3 2-6 7-4l1-2 12-25 4 2a60 60 0 0010-10c2-2 2-5 2-7l-1-10-2-5c-2-2-2-5 0-7 3-3 3-6 1-9l-4-7c4-7-2-12-3-16l-13-3c-9-2-18-7-28-6a35 35 0 01-8 0 9 9 0 01-4-1c-7-4-14-6-21-4-3 0-5 0-7-2l-4-1a6 6 0 00-1 4c0 7 5 14 3 22v1l4 18v1l-2 9c0 3 0 6 2 9l8 12h4c3 6 10 8 11 16 0 1 2 3 4 3a10 10 0 017 11c-1 6-4 10-9 11a56 56 0 01-7 1h-16c-4 1-6 3-6 7a14 14 0 01-15 15l-16-1-8-1 1-2h13c4-1 3-5 4-8l4-9a17 17 0 011-2l-3-2-4-1a14 14 0 00-3-2l-16-2c-4 0-8 0-9 6l-2 4 8 7c-4 5 0 8 5 11l-3 2-15-4c-5-1-6-3-6-8l-1-12a6 6 0 00-2-4c-5-5-12-3-18 0-4 2-8 2-12-1s-2-6-2-10a3 3 0 000-1l-2 3-4-7 3-3c4-1 6-3 7-7l2-1c5-4 13-5 17-11a26 26 0 017-5c10-6 11-10 4-19a13 13 0 00-1-1 13 13 0 01-3-15c3-6 7-10 11-15l1-1 33-9c8-2 10-6 8-14-1-2 0-4 1-6h6l-2-9c-8-12-7-25-1-38 2-4 5-9 12-8v3c1 4 2 8-2 12-1 1 0 5 1 7 1 1 4 2 6 1l13-4a87 87 0 0115-2c3-1 6 1 9 1l17 3 6-1-2-8-4-2-14-4-14-5c-9-2-18-3-27 1l-4-3a18 18 0 014-1h4l23 1 19 4c15 2 23 13 30 24 2 2 2 4 3 7 3-13 5-25 0-37l1 1c8 10 5 23 6 35 0 3-2 5-1 8l2 19 2 7 1 4 3 15 2 20 3 21 1 11 2 3h1zm-194 29v3l5 2 15-8h1c8-4 16-6 25-3 3 1 8 3 11-1h11l5 1h1l6 2 15 11a10 10 0 0012 2c0-4 0-9 2-12 3-5 1-9 1-13l-10-1-5-5-5 8a53 53 0 01-8-4c-3-2-6-6-10-7-4-2-9-1-14-1-4 1-8 3-12 2-9-2-16-1-21 6l-2 1c-6 4-12 7-14 14-4 0-7-3-8 3zm30-74l-3 2a46 46 0 00-3 9c-1 4 3 10 6 11l4-8 5-3 4-5c4-4 2-6 0-9-4-3-5-5-11 0zm39 14h2l3 7c-5-4-8-3-9 2v17l2-1c1 1 4 1 5 3l2 5h1l6-15a19 19 0 00-3 0c-4 0-7-1-7-5s5-3 7-2c5 1 6-2 6-5 3-13 1-15-8-23-3-2-7-5-10-2-4 2-6 5-5 9l-1 2h-2a44 44 0 001-7l-1-4c-3-2-8 3-7 6a38 38 0 001 6c2 7 5 9 9 5zm53-66v-4c10 2 15 11 14 21l7 3 4 1 1-4a18 18 0 000-3l4 2c4-7-8-28-19-29 7 6 11 12 13 21-8-9-16-16-29-17-14 0-22 8-31 15v2l9 1 3 3 2-1c-5-5-2-8 2-11 1 3 0 7 6 7 0 4-2 8 3 10a64 64 0 0010 2c6 1 10-2 9-9q0-8-8-10zm-85 97l12 2 10-2 3-2-3-2c-1-1-2 1-3 1-5 0-10 2-13-3a3 3 0 00-3-1l-12 6-2 3 4 1 7-3zm44-103c6 4 20-3 23-11-8 2-18 2-23 11zm33-6c8 1 8 1 10-1-4-4-7-4-10 1zm-51 209l1 1v-2h-1v1z" stroke-width=".5" fill="none"/>
  <path stroke="#ff7bac" d="M250 382c6-1 10-4 14-9l5-1 4-1c3-3 6-3 10 0l-9 29-19-12-5-6z" stroke-width=".5" fill="none"/>
  <path stroke="#ff7bac" d="M249 420v7l-3 10-1-3-2-10-6-10-2 2 1-9-2-5 1-3c2-3 2-6 0-10l-1 4-3-7c2-3 4-4 7-2l7 4 1 5 1 1 2 6a13 13 0 002 2l-1 1-1 17z" stroke-width=".5" fill="none"/>
  <path stroke="#ff7bac" d="M246 393l-1-5c-1-2-3-6 2-6a3 3 0 011 0l7 6c0 3-2 7 2 9a29 29 0 01-2 3 42 42 0 01-2 3h-3l1-1 1-3h-1v3a13 13 0 01-2-2l-2-6-1-1zM246 437l3-10 2 3a88 88 0 010 10l-2 10-4-1 1-12z" stroke-width=".5" fill="none"/>
  <path stroke="#ff7bac" d="M250 403h3v20l-4-3 1-17z" stroke-width=".5" fill="none"/>
  <path stroke="#ff7bac" d="M260 442v5a5 5 0 01-1-2l1-3zM255 445v1a1 1 0 01-1-1h1z" stroke-width=".5" fill="none"/>
  <path stroke="#ff7bac" d="M213 410l-2-9v-11l2 2 1-2 8 1 1-6h1v4l4 8 1 3 1 3-1 7c-7 6-8 6-16 0z" stroke-width=".5" fill="none"/>
  <path stroke="#ff7bac" d="M230 403l-1-3 5-7 1-4c3 4 2 7 0 10l-2 2 1 1 2 5-1 9 2-2 6 10 2 10-7-11-1 2-4-18c0-2 0-4-3-4z" stroke-width=".5" fill="none"/>
  <path stroke="#ff7bac" d="M237 425l1-2 7 11 1 3-3 4z" stroke-width=".5" fill="none"/>
  <path stroke="#ff7bac" d="M243 441l3-4-1 12-3-2a26 26 0 011-6z" stroke-width=".5" fill="none"/>
  <path stroke="#ff7bac" d="M230 403c3 0 3 2 2 4l-3 3 1-7z" stroke-width=".5" fill="none"/>
  <path stroke="#ff7bac" d="M211 390v6l-2-6 1-9h-1l-3 9c0 6 3 8 4 13-2 3-4-3-3 3h-1l-3-21h-1l-3 13h-1l3-16 2-3 5-2h2l5 2 9 2 6-2c5-3 13-2 17 3-5 0-3 4-2 6l-7-4c-3-2-5-1-7 1l-3 12-4-8v-4h-1l-1 6-7-1-2-4zM144 469l-8-8-5-3-5-6-1-2a8 8 0 002-1c3-3 5-6 10-3 2 2 6 1 10 2h7l5-7-3 11c-5 1-6 4-5 6z" stroke-width=".5" fill="none"/>
  <path stroke="#ff7bac" d="M188 395c-5 2-5 7-4 10 2 4 1 6 0 9l-7-4 2 5 3 3-6 13-2-1-1-3h-1l-4 7-3-1-1-2a8 8 0 011-1v-1l12-24 12-19 3 1-1 4z" stroke-width=".5" fill="none"/>
  <path stroke="#ff7bac" d="M165 433l3 1-9 17-3 1 3-11 2-3 4-5zM207 406l-1-16 1 3 2-3 2 6v5c-5 0-3 4-4 5zM174 430l2 1-8 12-2-1zM192 387l-3-1c4-4 8-7 14-7l-2 3-6 3-3 2z" stroke-width=".5" fill="none"/>
  <path stroke="#ff7bac" d="M188 395l3-4v7z" stroke-width=".5" fill="none"/>
  <path stroke="#ff7bac" d="M126 452l5 6-6-5z" stroke-width=".5" fill="none"/>
  <path stroke="#ff7bac" d="M126 452l-1 1h-2l-2-7 4 4z" stroke-width=".5" fill="none"/>
  <path stroke="#ff7bac" d="M28 261l-1-3 1-9 1-2v-3l1-3 2-11v-2l1-5 2-11 10-47v-4l2-2 3-8a13 13 0 012-3l2 3v4l-1 11c0 6 4 13 9 14h12c5 0 10-3 15 0l3-1h9l9 1c11 2 20-7 22-18l10-27 4-7c1-4 0-8 2-11 3-6 4-6-1-8a7 7 0 01-1-1 48 48 0 00-12-9c-8-3-14-1-21-1h-3v-3c5 0 11 0 15-2s7-4 12-3c2 0 3-2 2-5-3-6-2-11 3-15l3-6c1-6 3-9 9-11 5-2 2-6 1-9l-5-1-16 4-3-1a12 12 0 012-2l11-3c12-4 24-6 36-4l14 4 19 6 4 2c12 4 11 11 7 19-1 3-2 5 1 7 6 5 8 12 8 19 1 4 0 6-4 6l-13 1-12-3-11 2a19 19 0 01-3 0c-5 0-10 0-14 5a47 47 0 01-13 12c-4 2-4 6-3 9 4 7 2 12-2 17l-3 6a128 128 0 002 18c1 4 0 7-4 8l-9 3c-9 2-18 6-20 17l-3 3-9 15v3c0 8 5 12 12 15a26 26 0 01-2 2c-2 4-7 3-9 6-6 6-13 10-20 14l-6 6-1 3c-7 5-7 13-6 20 1 6 2 12-1 18-1 3-4 4-7 6s-5 1-6-2l-8-12c-6 0-7 0-7-4-1-8-6-14-11-19l-8 3-4-4v-4-3z" stroke-width=".5" fill="none"/>
  <path stroke="#ff7bac" d="M47 159l-2 2c0-10-5-21 0-31l1-13-15 19h-2v-14l5-7 6-3c-4-3-5-5-2-6 4-3 6-6 7-11l2-4 3-6 10-12 3-2 4-2-3 12-8 11a26 26 0 00-2 4 45 45 0 00-2 5h5l-2 7v2a49 49 0 00-4 7c-3 9-6 18-5 28l1 14zM23 182l3-13h2l-3 14z" stroke-width=".5" fill="none"/>
  <path stroke="#ff7bac" d="M35 212l-2 11 2-11zM30 241zM29 247l-1 2zM32 228v0zM28 268l4 5 8-4c5 6 10 11 11 19 0 4 1 5 7 5l8 12c1 2 3 3 6 2s6-4 7-7c3-5 2-11 1-17-1-8-1-15 6-21l2-3 5-6c7-4 14-8 20-14 2-2 7-2 10-5a26 26 0 001-3c-7-3-12-7-12-15v-3l10-15 2-3c2-11 11-15 20-17l9-3c4-1 5-4 4-7a128 128 0 01-2-19l3-6c4-5 6-10 2-17-1-3-1-6 3-9a47 47 0 0013-11c4-5 9-5 14-6a19 19 0 003 0l11-2 12 3c4 1 9 0 13-1 4 0 5-2 4-6 0-7-2-13-8-18-3-2-2-5-1-8 4-8 5-15-7-19l-4-2-19-6-14-4c-12-2-24 1-36 4l-11 3a12 12 0 00-2 2h-2l-3 2-21 10c-5 2-9 4-13 9s-8 7-13 11a39 39 0 01-4 2l5-7c11-12 24-21 40-26l18-6 17-5 11-1c10-3 19 1 29 3l14 3 1 1 13 4 1 2 3 3 31 26 7 11 6 14 1 1c6 12 3 24 0 37-1-3-1-5-3-7-7-11-15-22-30-24l-19-4-23-1h-4a18 18 0 00-4 1v1c-7-1-10 4-12 8-6 13-7 26 1 38l2 9h-6c-1 2-2 4-1 6 2 9 0 12-8 14l-33 9-1 1c-4 5-8 9-11 15a13 13 0 003 15 13 13 0 011 1c7 9 6 13-4 19a26 26 0 00-7 5c-4 6-12 7-17 11l-2 1c-1 4-3 6-7 7l-3 3 4 7 2-3a3 3 0 010 1c0 4-2 8 2 10s8 3 12 1c6-3 13-5 18 0a6 6 0 012 4l1 13c1 5 1 6 6 7l15 4 3-2h1l8 1 16 1a14 14 0 0015-15c0-4 2-6 6-7h16a56 56 0 007-1c5-1 8-5 9-11a10 10 0 00-7-11c-2 0-4-2-4-3-1-8-8-10-11-16h-4l-8-12c-2-2-2-6-2-9l2-9v-1l-4-18v-1c2-8-3-15-3-22a6 6 0 011-4l4 1c2 2 4 2 7 2 7-1 14 1 21 4a9 9 0 004 1 35 35 0 008 0c10-1 19 4 28 6l13 3c1 4 7 9 3 16l4 7c2 3 2 6-1 9-2 3-2 5 0 8l2 4 1 10c0 2 0 5-2 7a60 60 0 01-10 10l-4-2-12 25-1 2c-5-2-5 1-7 4a58 58 0 01-6 9 6 6 0 01-5 2c-5 0-7 2-10 5a87 87 0 00-7 12v6c3 6 4 11-1 15a14 14 0 01-8 4c-5 0-8 1-8 6h-2l-2-7a20 20 0 00-11 0c-5 1-9 1-11-4l-2-1c0 4-7 9-12 7l-1-2-8-12c-2-3-10 0-12 4a17 17 0 01-3 3c-2-6 1-11 3-15 2-3 2-5-2-5h-15c-5 0-8 2-11 4l-6 3-10-1c-2 0-6 1-6 3-2 2-1 6-1 9l2 1 13-1c6-1 12-3 18 1a3 3 0 002 0c5-4 9-2 13 1l-1 4-5-2c-2-1-4 0-5 1-2 3-4 3-6 1s-4-3-6-1h-2c-4-3-7 2-11 2l-2 1-5 4h-1c-2 6-10 7-12 13l1 8-3-1-1 1 6 5-4 1h-7c0-11-3-16-9-19l-2-13v-11c0-2 2-4-3-4l-12-4c-1-2-4-6-4-11-1-6-3-10-8-14-6-5-7-13-7-21a13 13 0 00-1-4v-3zm181 48h3a37 37 0 001-4l-2-2-2 6zM66 373l-7 3c-3 2-3-2-4-3l-12-10-4-4-4-3-5-7 3-1 4 1 7 11h1l1-6h1l1 2c1 5 5 7 10 7l4 3 4 7z" stroke-width=".5" fill="none"/>
  <path stroke="#ff7bac" d="M58 360l-18-15 1-9 4 3c4-6 7 0 10 3-2 5 8 11 3 18z" stroke-width=".5" fill="none"/>
  <path stroke="#ff7bac" d="M30 318v1l-1-1 1-1z" stroke-width=".5" fill="none"/>
  <path stroke="#ff7bac" d="M28 261v0z" stroke-width=".5" fill="none"/>
  <path stroke="#ff7bac" d="M91 377l-3 5-3-4-1 6-4-4-1-8h4z" stroke-width=".5" fill="none"/>
  <path stroke="#ff7bac" d="M265 88l-7-11-31-26-3-3 10-4c2-1 12 0 12 1l-1 4-1 2a13 13 0 003 1h2l14 2c-3 7 1 12 9 17l-3 7c6 1 9 6 11 12v1c8 7 9 18 12 27l10 17c2 4 2 10 3 16l-4-3v4c2 9 2 18 7 27 3 6 3 14 4 21l-2 1c-3-9-4-18-9-25-4-8-7-17-17-22l-2 19-2-7-2-19c0-3 2-5 1-8-1-12 2-25-6-35l-1-1-1-1zM233 32l-6 9c-5-5-4-6 0-8a15 15 0 003-1l2-2zM286 192l-3-15zM223 46l-13-4c5 0 10-1 13 4zM258 33c4-1 6-1 6 3l-3 2-3-5zM223 18l7 1zM198 11h5l-2 3zM195 10l3 1zM294 247l-2-3 2 3z" stroke-width=".5" fill="none"/>
  <path stroke="#ff7bac" d="M310 260v1c-4-1-4-4-3-7a21 21 0 016-7l-3 13zM321 220v4c-1-1-3-3 0-4z" stroke-width=".5" fill="none"/>
  <path stroke="#ff7bac" d="M129 46h2l3 1 16-4 5 1c1 3 4 7-1 9-6 2-8 5-9 11l-3 6c-5 4-6 9-3 15 1 3 0 5-2 5-5-1-8 1-12 3s-10 2-15 2h-2l-4 2v1h-2l-8 1-3 1-12 3c-2 0-3 2-4 3v1l-5 3-2 1c-7 2-8 7-10 12a36 36 0 01-4 4l-1-1 2-9v-7-2l2-1 6-10 3-6 2-2 6-8a1 1 0 011-1 39 39 0 004-2c5-4 10-7 13-11s8-7 13-9l21-10c3 4 2-1 3-2z" stroke-width=".5" fill="none"/>
  <path stroke="#ff7bac" d="M127 26l5 8 3-7 2 3 1-5c4 1 5-1 6-5 3 2 5 9 3 12-3 4-7 6-11 9l-4-7c0 7-4 7-7 8-7 3-5-5-9-4zM59 73L49 85v-3l4-7 7-6z" stroke-width=".5" fill="none"/>
  <path stroke="#ff7bac" d="M66 91l-3 6-6 10-2 1 2-7z" stroke-width=".5" fill="none"/>
  <path stroke="#ff7bac" d="M153 21l1 9a3 3 0 01-1 2 3 3 0 01-3-1c-1-2 0-5 2-7l1-3zM105 15l5-2 6 3-1 2c-4 0-7 1-10-3z" stroke-width=".5" fill="none"/>
  <path stroke="#ff7bac" d="M74 81l-6 8 6-8z" stroke-width=".5" fill="none"/>
  <path stroke="#ff7bac" d="M103 388l-3-4-4-4 4-3-2-6 20 10 2 3-1 1 1-1 5-1c2-3 4-2 7 0a106 106 0 0011 5h6l12 3 14 2 5 2-3 5v5l-12 24v1a8 8 0 00-1 1c-2-1-3-3-5-3l-31-3c-6-1-11-1-15-5v-14c-1-7-4-14-10-18z" stroke-width=".5" fill="none"/>
  <path stroke="#ff7bac" d="M120 384l-2-3-20-10-3-4v-3l4 4 31-10 3 4 2-5c1 5 3 7 8 5l-1-1 5-5v2l1 2 5 2 3-4a34 34 0 001 4c4-1 7 3 11 3l7 4v-3l5-2 3 2 6-3 4-2 3 6 4 8c3-2 6-2 8 2l-5 2c-6 0-10 3-14 7l-12 19v-4l3-6-5-2-14-2-12-3h-6a106 106 0 01-12-5c-2-2-4-3-6 0l-5 1z" stroke-width=".5" fill="none"/>
  <path stroke="#ff7bac" d="M158 269c-3 4-8 2-11 1-9-3-17-1-25 3h-2l1-3-11 3c2-7 8-10 14-14l1-1c6-7 13-8 22-6 4 1 8-1 12-2 5 0 10-1 14 1 4 1 7 5 10 7a53 53 0 007 4l6-8 5 5 10 1c0 4 2 8-1 13-2 3-2 8-2 12a10 10 0 01-12-2h7a69 69 0 00-36-19l-1-4-2 3-3-2c-5 4-12 3-18 3h-9v2zM189 106v-1l4 3c9-4 18-3 27-1l14 5 14 4 4 2 2 8-6 1-17-3-9-2a87 87 0 00-14 3l-14 4-6-1c-1-2-2-6-1-7 4-4 4-8 2-12v-3zm23 5v-1h-4c-3 0-7-1-8 4l7 4a51 51 0 0015 1c2 0 4-3 5-6l-2-2h-13zM150 310h-1c-5-2-9-6-5-11l-8-7 2-4c1-6 5-6 9-6l16 2a14 14 0 013 2l4 1 3 2a17 17 0 00-1 2c-2 3-4 6-4 9s0 7-4 8h-13l-1 2zM147 356l-5 5 1 1c-5 2-7 0-8-5l-2 5-3-4-31 10-4-4v3l-6 1-1-5-1 2-1-1 3-5c5 0 6-4 7-8h1l2 4 1-6 7-2a6 6 0 014 2l1 5c5 1 11 3 13-4l7-1 1 4 1-3 1 1h8l3 1 1 4zM208 377c-2-4-5-4-8-2l-4-8-3-6-4 2-6 3-3-2-5 2c1-4 5-5 9-6 3 0 5 0 4-5l4-8 5 7 2 8a6 6 0 002-1c7-6 7-6 14 0l2 1c7-1 7 4 7 9a19 19 0 001 3l3-3c2 0 0 3-3 4a15 15 0 00-1 1v5l-9-2-5-6v4zM203 150c-4 3-7 6-2 12h-2l-3-3-9-1v-2c9-6 17-15 31-15 13 1 21 8 29 17-2-9-6-15-13-21 11 1 23 22 19 29l-4-2a18 18 0 010 3l-1 4c-1 1-3 0-4-1l-7-3c1-10-4-19-14-21h-13l-3 1-1 1zM177 199c9 8 11 10 8 23 0 3-1 6-6 5-2-1-7-2-7 2s3 5 7 5a19 19 0 013 0l-6 15h-1l-2-5-5-3-2 1v-17c1-5 4-6 9-2l-3-7a10 10 0 012 0c5 1 6-1 5-6l-2-11z" stroke-width=".5" fill="none"/>
  <path stroke="#ff7bac" d="M223 150q8 2 9 10c0 7-3 10-10 9a64 64 0 01-10-2c-5-2-3-6-3-10l6-7 4 1 1 6zM158 269l-24-3v-2h9c7 0 13 1 18-3l3 2 2-3 1 4c14 3 26 8 36 19h-7l-15-11-6-2h-1l-5-1-1-1-4 1zM177 199l2 11c1 5 0 7-5 6a10 10 0 00-2 0h-2l-3-7-5-3c-1-4 1-7 5-9 3-2 7 0 10 2zM133 199c6-5 7-3 11 0 2 3 4 6 0 9l-3 5-6 3c-7-1-8-3-5-9a33 33 0 001-5l2-3z" stroke-width=".5" fill="none"/>
  <path stroke="#ff7bac" d="M162 206l5 3 3 7-8-2c-4 4-7 2-9-5a38 38 0 01-1-6c-1-3 4-7 7-6l1 4a44 44 0 01-1 7h2z" stroke-width=".5" fill="none"/>
  <path stroke="#ff7bac" d="M138 247l-7 3-4-1 2-3 12-6a3 3 0 013 1c3 5 8 3 13 3l3-1 3 2-3 2-10 2-12-2z" stroke-width=".5" fill="none"/>
  <path stroke="#ff7bac" d="M182 144c5-9 15-9 23-11-3 8-17 15-23 11zM175 366v3l-7-4c-4 0-7-4-11-3a34 34 0 01-1-4c3 1 6-3 10 0l3-2 3 5 2-3 1 8zM131 202a33 33 0 01-1 5c-3 6-2 8 5 9l-4 8c-3-1-7-7-6-11a46 46 0 013-9l3-2z" stroke-width=".5" fill="none"/>
  <path stroke="#ff7bac" d="M110 273l11-3v3l-15 8-5-2v-3h1l8-3z" stroke-width=".5" fill="none"/>
  <path stroke="#ff7bac" d="M96 380l4 4c-4 6 3 10 3 15-5-1-8-4-7-9 0-3 0-6-3-8v-4z" stroke-width=".5" fill="none"/>
  <path stroke="#ff7bac" d="M215 150l-6 7c-6 0-5-4-5-7l2-2 1-1 3-1 6 1z" stroke-width=".5" fill="none"/>
  <path stroke="#ff7bac" d="M215 150l1-3-6-1h13v4l-3 7-1-6zM215 138c3-5 6-5 10-1-2 2-2 2-10 1z" stroke-width=".5" fill="none"/>
  <path stroke="#ff7bac" d="M156 358l-3 4-5-2-1-2c3 0 6-6 9 0zM110 273l-8 3c1-6 4-3 8-3z" stroke-width=".5" fill="none"/>
  <path stroke="#ff7bac" d="M255 388l-7-6h2l5 6z" stroke-width=".5" fill="none"/>
  <path stroke="#ff7bac" d="M175 270l6 2zM169 269l5 1zM164 269zM101 276v3zM133 199l-2 3z" stroke-width=".5" fill="none"/>
  <path stroke="#ff7bac" d="M164 347v-1h1v2z" stroke-width=".5" fill="none"/>
  <path stroke="#ff7bac" d="M228 397l3-11 3 7-5 7zM234 402l-1-1 2-2-1 3z" stroke-width=".5" fill="none"/>
  <path stroke="#ff7bac" d="M246 393l1 1-1-1zM251 402v-3l1 1-1 2z" stroke-width=".5" fill="none"/>
  <path stroke="#ff7bac" d="M211 390l2-4 2 4-2 2z" stroke-width=".5" fill="none"/>
  <path stroke="#ff7bac" d="M209 390l-2 3-1-3 3-9h1l-1 9z" stroke-width=".5" fill="none"/>
  <path stroke="#ff7bac" d="M210 377v-4l6 6z" stroke-width=".5" fill="none"/>
  <path stroke="#ff7bac" d="M113 420c4 5 9 4 15 5 10 2 20 2 31 3l5 3 1 2-4 5-2 3-5 7h-7c-4-1-8 0-10-2-5-3-7 0-10 3a8 8 0 01-2 1l-4-4-8-19v-7zM165 430v-1z" stroke-width=".5" fill="none"/>
  <path stroke="#ff7bac" d="M159 441l2-3zM55 110v7l-2 9 1 1a36 36 0 004-4c2-5 3-10 10-12v7c6 1 13 1 19 4 6 2 12 2 18 2a10 10 0 015 2l3 3c0 1-2 3-4 3l-5 1c9 3 9 3 8 11-2-2-4-2-7-2-13-1-23 4-30 16-4-5-5-8-1-12 5-6 0-11 1-16l-3-2a24 24 0 000 4c0 3 0 7-5 7l-2 3-2 6c-2 7 0 12 6 12v14l4-4 8-5 2 1-1-2c0-9 5-14 12-16 8-2 15-3 21 4 2 4 4 8-1 13l8 1 10-4c-2 11-11 20-22 18l-9-1h-9l-3 1c-5-3-10 0-15 0H62c-5 0-9-8-9-14l1-11v-4l-2-3a13 13 0 00-2 3l-3 8-1-14c-1-10 2-19 5-28a49 49 0 014-7zm49 58l2-1h4c4-3 4-8 1-13-3-3-4-4-8 0-2-4-4-5-7-2-2 2-2 5-3 7l-2-3c-2 10 0 12 6 13 2 2 3 2 5-1zm-18 6l1 2a57 57 0 0025-3l3-2-4-1-19 2-6 2z" stroke-width=".5" fill="none"/>
  <path stroke="#ff7bac" d="M112 144c1-8 1-8-8-11l5-1 4-3-3-4a10 10 0 00-5-1c-6 0-12 0-18-2-6-3-12-3-19-4v-7l2-1 5-3v-1l24-5 3-3h11l15 3a8 8 0 014 2c3 3 6 7 3 12l1 2c4 2 4 6 4 10l2 8-10 27-10 4-8-1c5-5 3-9 1-13l5 2a75 75 0 015 7c4-3 5-4 1-6l-14-11zm-31-36l2 3a65 65 0 0010 3 90 90 0 0014 2 48 48 0 0012 0c2 0 6-3 5-4 0-3-2-6-4-8-9-6-18-2-26 0l-13 4z" stroke-width=".5" fill="none"/>
  <path stroke="#ff7bac" d="M142 135l-2-8c0-4 0-8-4-10l-1-2c3-5 0-9-3-12a8 8 0 00-4-2l-15-3c7 0 13-2 21 1a48 48 0 0111 9 7 7 0 002 1c5 3 4 2 1 8-2 3-1 7-3 11 0 3-2 5-3 7zM110 98h-6v-1l4-2h2z" stroke-width=".5" fill="none"/>
  <path stroke="#ff7bac" d="M136 335c-4-3-8-4-13 0a3 3 0 01-2 0c-6-4-12-2-18-1l-13 1-2-1 1-10 6-2 10 1c2 0 5-1 6-3 3-2 6-4 11-4h15c4 0 4 1 2 5s-5 9-3 14z" stroke-width=".5" fill="none"/>
  <path stroke="#ff7bac" d="M265 88l6 14zM209 316l2-6 2 2a37 37 0 01-1 4z" stroke-width=".5" fill="none"/>
  <path stroke="#ff7bac" d="M129 46c-1 1 0 6-3 2z" stroke-width=".5" fill="none"/>
  <path stroke="#ff7bac" d="M87 397v1a1 1 0 010-1zM102 98l-3 3-24 5c1-1 2-3 4-3l12-3 3-1zM75 106l-5 4z" stroke-width=".5" fill="none"/>
  <path stroke="#ff7bac" d="M108 95l-4 2zM94 99l-3 1z" stroke-width=".5" fill="none"/>
  <path stroke="#ff7bac" d="M120 384l-1 1 1-1zM212 111h13l2 2c-1 3-3 6-5 6a51 51 0 01-15-1l-7-4c1-5 5-4 8-4h4z" stroke-width=".5" fill="none"/>
  <path stroke="#ff7bac" d="M207 147l-1 1z" stroke-width=".5" fill="none"/>
  <path stroke="#ff7bac" d="M112 144l14 11c4 2 4 3-1 6a75 75 0 00-5-7l-4-2c-6-7-14-6-21-4-8 2-13 7-13 16v1l-9 5c-3-5 2-8 2-12 7-12 17-17 30-16 3 0 5 0 7 2z" stroke-width=".5" fill="none"/>
  <path stroke="#ff7bac" d="M108 167h-2l-2 1h-2l-4 1c-7-1-8-3-7-13l2 3c1-2 1-5 3-7 3-3 5-2 7 2 4-4 6-3 8 0 3 5 3 10-1 13z" stroke-width=".5" fill="none"/>
  <path stroke="#ff7bac" d="M75 158c0 4-5 7-2 12l-4 4v-14c-6 0-8-5-6-12l2-6 2-3c5-1 5-4 5-7a24 24 0 010-4l3 2c-1 5 4 10-1 16-4 4-3 7 1 12zM86 174l6-2 19-2 4 1-3 2a57 57 0 01-25 3zM98 169l4-1c-2 3-3 3-4 1zM104 168l2-1zM108 167h2zM82 165v-1l1 2z" stroke-width=".5" fill="none"/>
  <path stroke="#ff7bac" d="M81 108l12-4c9-2 18-6 27 0 2 2 4 5 4 8 0 1-3 4-5 4a48 48 0 01-12 0 90 90 0 01-14-2 65 65 0 01-10-3l-2-3z" stroke-width=".5" fill="none"/>
</svg>
